ZxGamut.glyphspackage
{
glyphname = exclam;
layers = (
{
layerId = m01;
shapes = (
{
closed = 1;
nodes = (
(337,420,l),
(364,1500,l),
(162,1500,l),
(189,420,l)
);
},
{
closed = 1;
nodes = (
(366,0,l),
(366,210,l),
(160,210,l),
(160,0,l)
);
}
);
width = 526;
},
{
associatedMasterId = m01;
layerId = "FF36042A-1819-4133-A467-8AF01E5FF4DD";
name = "May 22, 24 at 10:44";
shapes = (
{
closed = 1;
nodes = (
(337,420,l),
(364,1500,l),
(162,1500,l),
(189,420,l)
);
},
{
closed = 1;
nodes = (
(334,-24,o),
(386,27,o),
(386,98,c),
(386,169,o),
(334,220,o),
(263,220,c),
(192,220,o),
(140,169,o),
(140,98,c),
(140,27,o),
(192,-24,o),
(263,-24,c)
);
}
);
visible = 1;
width = 526;
},
{
layerId = m002;
shapes = (
{
closed = 1;
nodes = (
(459,455,l),
(516,1500,l),
(100,1500,l),
(157,455,l)
);
},
{
closed = 1;
nodes = (
(469,0,l),
(469,314,l),
(147,314,l),
(147,0,l)
);
}
);
width = 616;
},
{
layerId = m003;
shapes = (
{
closed = 1;
nodes = (
(210,370,l),
(214,1500,l),
(174,1500,l),
(178,370,l)
);
},
{
closed = 1;
nodes = (
(230,0,l),
(230,73,l),
(158,73,l),
(158,0,l)
);
}
);
width = 388;
}
);
unicode = 33;
}
{
glyphname = quotedbl;
layers = (
{
layerId = m01;
shapes = (
{
closed = 1;
nodes = (
(547,960,l),
(601,1488,l),
(601,1500,l),
(393,1500,l),
(393,1488,l),
(447,960,l)
);
},
{
closed = 1;
nodes = (
(274,960,l),
(328,1488,l),
(328,1500,l),
(120,1500,l),
(120,1488,l),
(174,960,l)
);
}
);
width = 721;
},
{
layerId = m002;
shapes = (
{
closed = 1;
nodes = (
(597,870,l),
(654,1480,l),
(654,1500,l),
(390,1500,l),
(390,1480,l),
(447,870,l)
);
},
{
closed = 1;
nodes = (
(307,870,l),
(364,1480,l),
(364,1500,l),
(100,1500,l),
(100,1480,l),
(157,870,l)
);
}
);
width = 754;
},
{
layerId = m003;
shapes = (
{
closed = 1;
nodes = (
(233,1150,l),
(242,1496,l),
(242,1500,l),
(196,1500,l),
(196,1496,l),
(205,1150,l)
);
},
{
closed = 1;
nodes = (
(127,1150,l),
(136,1496,l),
(136,1500,l),
(90,1500,l),
(90,1496,l),
(99,1150,l)
);
}
);
width = 332;
}
);
unicode = 34;
}
{
glyphname = numbersign;
layers = (
{
layerId = m01;
shapes = (
{
closed = 1;
nodes = (
(338,0,l),
(407,415,l),
(697,415,l),
(628,0,l),
(775,0,l),
(844,415,l),
(1039,415,l),
(1063,559,l),
(868,559,l),
(929,926,l),
(1124,926,l),
(1148,1070,l),
(953,1070,l),
(1025,1500,l),
(878,1500,l),
(806,1070,l),
(516,1070,l),
(588,1500,l),
(441,1500,l),
(369,1070,l),
(165,1070,l),
(141,926,l),
(345,926,l),
(284,559,l),
(80,559,l),
(56,415,l),
(260,415,l),
(191,0,l)
);
},
{
closed = 1;
nodes = (
(492,926,l),
(782,926,l),
(721,559,l),
(431,559,l)
);
}
);
width = 1222;
},
{
associatedMasterId = m01;
layerId = "D49FA1C3-2B82-4306-B8D0-0953E0B0234E";
name = "May 21, 24 at 8:54";
shapes = (
{
closed = 1;
nodes = (
(175,1074,l),
(150,916,l),
(1204,916,l),
(1229,1074,l)
);
},
{
closed = 1;
nodes = (
(91,572,l),
(66,414,l),
(1120,414,l),
(1145,572,l)
);
},
{
closed = 1;
nodes = (
(191,0,l),
(359,0,l),
(609,1500,l),
(441,1500,l)
);
},
{
closed = 1;
nodes = (
(686,0,l),
(854,0,l),
(1104,1500,l),
(936,1500,l)
);
}
);
width = 1313;
},
{
layerId = m002;
shapes = (
{
closed = 1;
nodes = (
(485,0,l),
(540,329,l),
(668,329,l),
(613,0,l),
(934,0,l),
(989,329,l),
(1139,329,l),
(1193,649,l),
(1042,649,l),
(1074,838,l),
(1223,838,l),
(1277,1158,l),
(1127,1158,l),
(1184,1500,l),
(863,1500,l),
(806,1158,l),
(678,1158,l),
(735,1500,l),
(414,1500,l),
(357,1158,l),
(197,1158,l),
(145,838,l),
(304,838,l),
(272,649,l),
(112,649,l),
(60,329,l),
(219,329,l),
(164,0,l)
);
},
{
closed = 1;
nodes = (
(625,838,l),
(753,838,l),
(721,649,l),
(593,649,l)
);
}
);
width = 1335;
},
{
associatedMasterId = m002;
layerId = "98423BD4-06F5-46DE-929C-FACAFB6DEC24";
name = "May 21, 24 at 8:54";
shapes = (
{
closed = 1;
nodes = (
(175,1074,l),
(150,916,l),
(1204,916,l),
(1229,1074,l)
);
},
{
closed = 1;
nodes = (
(91,572,l),
(66,414,l),
(1120,414,l),
(1145,572,l)
);
},
{
closed = 1;
nodes = (
(191,0,l),
(359,0,l),
(609,1500,l),
(441,1500,l)
);
},
{
closed = 1;
nodes = (
(686,0,l),
(854,0,l),
(1104,1500,l),
(936,1500,l)
);
}
);
width = 1313;
},
{
layerId = m003;
shapes = (
{
closed = 1;
nodes = (
(247,0,l),
(326,473,l),
(726,473,l),
(647,0,l),
(682,0,l),
(761,473,l),
(995,473,l),
(1000,503,l),
(766,503,l),
(846,984,l),
(1080,984,l),
(1085,1015,l),
(851,1015,l),
(932,1500,l),
(897,1500,l),
(816,1015,l),
(416,1015,l),
(497,1500,l),
(462,1500,l),
(381,1015,l),
(142,1015,l),
(137,984,l),
(376,984,l),
(296,503,l),
(57,503,l),
(52,473,l),
(291,473,l),
(212,0,l)
);
},
{
closed = 1;
nodes = (
(411,984,l),
(811,984,l),
(731,503,l),
(331,503,l)
);
}
);
width = 1153;
},
{
associatedMasterId = m003;
layerId = "4E444FBC-57D8-4FB2-9F44-FD4B0AF4E860";
name = "May 21, 24 at 8:54";
shapes = (
{
closed = 1;
nodes = (
(175,1074,l),
(150,916,l),
(1204,916,l),
(1229,1074,l)
);
},
{
closed = 1;
nodes = (
(91,572,l),
(66,414,l),
(1120,414,l),
(1145,572,l)
);
},
{
closed = 1;
nodes = (
(191,0,l),
(359,0,l),
(609,1500,l),
(441,1500,l)
);
},
{
closed = 1;
nodes = (
(686,0,l),
(854,0,l),
(1104,1500,l),
(936,1500,l)
);
}
);
width = 1313;
},
{
associatedMasterId = m002;
layerId = "965A3C92-C367-4276-A1AB-E98E00F15153";
name = "Jun 6, 24 at 20:01";
shapes = (
{
closed = 1;
nodes = (
(485,0,l),
(735,1500,l),
(414,1500,l),
(164,0,l)
);
},
{
closed = 1;
nodes = (
(1139,329,l),
(1193,649,l),
(112,649,l),
(60,329,l)
);
},
{
closed = 1;
nodes = (
(924,0,l),
(1174,1500,l),
(863,1500,l),
(613,0,l)
);
},
{
closed = 1;
nodes = (
(1223,838,l),
(1277,1158,l),
(197,1158,l),
(145,838,l)
);
}
);
visible = 1;
width = 1335;
},
{
associatedMasterId = m002;
layerId = "B668CC5D-8BEA-48FE-BAA3-C35E336F309E";
name = "Jun 7, 24 at 22:50";
shapes = (
{
closed = 1;
nodes = (
(934,0,l),
(1184,1500,l),
(863,1500,l),
(613,0,l)
);
},
{
closed = 1;
nodes = (
(1139,329,l),
(1193,649,l),
(112,649,l),
(60,329,l)
);
},
{
closed = 1;
nodes = (
(485,0,l),
(735,1500,l),
(414,1500,l),
(164,0,l)
);
},
{
closed = 1;
nodes = (
(1223,838,l),
(1277,1158,l),
(197,1158,l),
(145,838,l)
);
}
);
width = 1335;
},
{
associatedMasterId = m01;
layerId = "21B4CD85-5B28-457A-95DC-74F687C23DAA";
name = "Jun 7, 24 at 22:50";
shapes = (
{
closed = 1;
nodes = (
(775,0,l),
(1025,1500,l),
(878,1500,l),
(628,0,l)
);
},
{
closed = 1;
nodes = (
(1039,415,l),
(1063,559,l),
(80,559,l),
(56,415,l)
);
},
{
closed = 1;
nodes = (
(338,0,l),
(588,1500,l),
(441,1500,l),
(191,0,l)
);
},
{
closed = 1;
nodes = (
(1124,926,l),
(1148,1070,l),
(165,1070,l),
(141,926,l)
);
}
);
width = 1222;
}
);
unicode = 35;
}
{
glyphname = dollar;
layers = (
{
associatedMasterId = m01;
layerId = "E4064405-C717-4E56-9F82-6509ACBD2296";
name = "May 18, 24 at 20:14";
shapes = (
{
closed = 1;
nodes = (
(797,847,o),
(1033,681,o),
(1033,423,cs),
(1033,208,o),
(873,0,o),
(548,0,cs),
(229,0,o),
(69,200,o),
(63,411,c),
(238,411,l),
(248,275,o),
(356,159,o),
(548,159,cs),
(750,159,o),
(858,288,o),
(858,432,cs),
(858,589,o),
(726,706,o),
(549,706,cs),
(292,706,o),
(101,875,o),
(101,1101,cs),
(101,1312,o),
(265,1502,o),
(548,1502,cs),
(828,1502,o),
(988,1317,o),
(995,1110,c),
(819,1110,l),
(811,1232,o),
(720,1343,o),
(548,1343,cs),
(369,1343,o),
(276,1221,o),
(276,1093,cs),
(276,964,o),
(374,847,o),
(548,847,cs)
);
},
{
closed = 1;
nodes = (
(634,1654,l),
(634,-151,l),
(480,-151,l),
(480,1654,l)
);
}
);
width = 1096;
},
{
associatedMasterId = m01;
layerId = "F225DAE7-6ADF-4FC2-973C-EBD366AB6585";
name = "May 21, 24 at 15:47";
shapes = (
{
closed = 1;
nodes = (
(634,0,ls),
(886,0,o),
(1016,146,o),
(1016,316,cs),
(1016,491,o),
(852,591,o),
(637,735,cs),
(441,865,o),
(272,941,o),
(278,1066,cs),
(282,1156,o),
(349,1215,o),
(509,1217,cs),
(632,1218,o),
(764,1217,o),
(886,1217,c),
(936,1362,l),
(936,1372,l),
(544,1372,ls),
(207,1372,o),
(114,1223,o),
(114,1067,cs),
(114,845,o),
(336,747,o),
(505,636,cs),
(679,521,o),
(850,448,o),
(852,333,cs),
(855,228,o),
(782,158,o),
(618,157,cs),
(463,154,o),
(305,157,o),
(151,157,c),
(151,0,l)
);
},
{
closed = 1;
nodes = (
(654,-180,l),
(654,1570,l),
(506,1570,l),
(506,-180,l)
);
}
);
width = 1136;
},
{
associatedMasterId = m01;
layerId = "35266168-3090-41C9-8D00-DCF618F6B953";
name = "May 21, 24 at 15:52";
shapes = (
{
closed = 1;
nodes = (
(638,1624,l),
(638,-151,l),
(484,-151,l),
(484,1624,l)
);
},
{
closed = 1;
nodes = (
(958,1448,l),
(905,1292,l),
(773,1292,o),
(637,1294,o),
(505,1292,cs),
(339,1290,o),
(267,1241,o),
(262,1145,cs),
(255,1014,o),
(434,930,o),
(642,795,cs),
(853,658,o),
(1045,540,o),
(1045,338,cs),
(1045,159,o),
(921,14,o),
(639,14,cs),
(126,14,l),
(126,182,l),
(292,182,o),
(456,180,o),
(622,182,cs),
(798,184,o),
(871,239,o),
(868,351,cs),
(865,469,o),
(687,553,o),
(501,679,cs),
(308,809,o),
(85,933,o),
(85,1152,cs),
(85,1320,o),
(190,1460,o),
(544,1460,cs),
(958,1460,l)
);
}
);
width = 1136;
},
{
layerId = m01;
name = Regular;
shapes = (
{
closed = 1;
nodes = (
(628,-151,l),
(628,1654,l),
(482,1654,l),
(482,-151,l)
);
},
{
closed = 1;
nodes = (
(643,0,ls),
(921,0,o),
(1044,149,o),
(1044,342,cs),
(1044,529,o),
(889,638,o),
(641,804,cs),
(434,943,o),
(259,1035,o),
(266,1168,cs),
(271,1264,o),
(343,1336,o),
(505,1338,cs),
(637,1340,o),
(791,1338,o),
(923,1338,c),
(978,1488,l),
(978,1500,l),
(544,1500,ls),
(191,1500,o),
(90,1340,o),
(90,1171,cs),
(90,935,o),
(325,819,o),
(504,697,cs),
(691,570,o),
(865,476,o),
(868,351,cs),
(871,239,o),
(792,164,o),
(626,162,cs),
(460,160,o),
(290,162,o),
(124,162,c),
(124,0,l)
);
}
);
visible = 1;
width = 1126;
},
{
layerId = m002;
name = Regular;
shapes = (
{
closed = 1;
nodes = (
(721,-151,l),
(721,1654,l),
(559,1654,l),
(559,-151,l)
);
},
{
closed = 1;
nodes = (
(739,0,ls),
(1033,0,o),
(1208,136,o),
(1208,350,cs),
(1208,639,o),
(962,740,o),
(758,850,cs),
(706,878,o),
(443,996,o),
(443,1082,cs),
(443,1155,o),
(617,1140,o),
(805,1140,cs),
(885,1140,o),
(995,1140,o),
(1075,1140,c),
(1159,1480,l),
(1159,1500,l),
(556,1500,ls),
(272,1500,o),
(56,1381,o),
(56,1144,cs),
(56,847,o),
(330,725,o),
(537,619,cs),
(575,600,o),
(839,479,o),
(839,420,cs),
(839,342,o),
(702,356,o),
(512,358,cs),
(401,359,o),
(232,359,o),
(121,359,c),
(121,0,l)
);
}
);
width = 1264;
},
{
layerId = m003;
name = Regular;
shapes = (
{
closed = 1;
nodes = (
(572,-151,l),
(572,1654,l),
(540,1654,l),
(540,-151,l)
);
},
{
closed = 1;
nodes = (
(551,0,ls),
(885,0,o),
(980,143,o),
(980,299,cs),
(980,500,o),
(739,633,o),
(557,755,cs),
(340,898,o),
(124,1017,o),
(124,1207,cs),
(124,1352,o),
(226,1470,o),
(483,1470,cs),
(614,1470,o),
(772,1470,o),
(903,1470,c),
(913,1496,l),
(913,1500,l),
(488,1500,ls),
(193,1500,o),
(92,1363,o),
(92,1207,cs),
(92,1003,o),
(322,874,o),
(504,752,cs),
(721,609,o),
(948,484,o),
(948,299,cs),
(948,154,o),
(844,30,o),
(556,30,cs),
(415,30,o),
(266,30,o),
(125,30,c),
(125,0,l)
);
}
);
width = 1072;
},
{
associatedMasterId = m002;
layerId = "E1862C64-E154-4AD4-880F-35EBB93A7EB4";
name = "Jun 5, 24 at 22:56";
shapes = (
{
closed = 1;
nodes = (
(708,-151,l),
(708,1654,l),
(562,1654,l),
(562,-151,l)
);
},
{
closed = 1;
nodes = (
(721,0,ls),
(1054,0,o),
(1203,162,o),
(1203,376,cs),
(1203,529,o),
(1116,650,o),
(857,820,cs),
(682,935,o),
(526,1025,o),
(526,1074,cs),
(526,1120,o),
(609,1110,o),
(797,1110,cs),
(877,1110,o),
(1003,1110,o),
(1083,1110,c),
(1177,1480,l),
(1177,1500,l),
(568,1500,ls),
(273,1500,o),
(74,1364,o),
(74,1122,cs),
(74,970,o),
(164,828,o),
(443,651,cs),
(615,542,o),
(730,476,o),
(730,434,cs),
(730,391,o),
(684,390,o),
(494,390,cs),
(383,390,o),
(231,390,o),
(120,390,c),
(120,0,l)
);
}
);
visible = 1;
width = 1136;
}
);
unicode = 36;
}
{
glyphname = percent;
layers = (
{
layerId = m01;
shapes = (
{
closed = 1;
nodes = (
(430,0,l),
(1259,1488,l),
(1259,1500,l),
(1093,1500,l),
(264,12,l),
(261,0,l)
);
},
{
closed = 1;
nodes = (
(1344,-24,o),
(1463,149,o),
(1463,320,cs),
(1463,491,o),
(1344,665,o),
(1132,665,cs),
(920,665,o),
(802,491,o),
(802,320,cs),
(802,149,o),
(920,-24,o),
(1132,-24,cs)
);
},
{
closed = 1;
nodes = (
(1007,108,o),
(938,207,o),
(938,320,cs),
(938,434,o),
(1007,533,o),
(1132,533,cs),
(1258,533,o),
(1327,434,o),
(1327,320,cs),
(1327,207,o),
(1259,108,o),
(1132,108,cs)
);
},
{
closed = 1;
nodes = (
(603,835,o),
(721,1009,o),
(721,1180,cs),
(721,1351,o),
(603,1524,o),
(391,1524,cs),
(179,1524,o),
(60,1351,o),
(60,1180,cs),
(60,1009,o),
(179,835,o),
(391,835,cs)
);
},
{
closed = 1;
nodes = (
(265,967,o),
(196,1066,o),
(196,1180,cs),
(196,1293,o),
(264,1392,o),
(391,1392,cs),
(516,1392,o),
(585,1293,o),
(585,1180,cs),
(585,1066,o),
(516,967,o),
(391,967,cs)
);
}
);
width = 1523;
},
{
layerId = m002;
shapes = (
{
closed = 1;
nodes = (
(508,0,l),
(1337,1481,l),
(1337,1500,l),
(1011,1500,l),
(182,20,l),
(179,0,l)
);
},
{
closed = 1;
nodes = (
(1358,-32,o),
(1479,146,o),
(1479,320,cs),
(1479,494,o),
(1358,671,o),
(1141,671,cs),
(924,671,o),
(802,494,o),
(802,320,cs),
(802,146,o),
(924,-32,o),
(1141,-32,cs)
);
},
{
closed = 1;
nodes = (
(1075,208,o),
(1036,260,o),
(1036,320,cs),
(1036,379,o),
(1075,431,o),
(1141,431,cs),
(1206,431,o),
(1245,379,o),
(1245,320,cs),
(1245,260,o),
(1206,208,o),
(1141,208,cs)
);
},
{
closed = 1;
nodes = (
(596,829,o),
(717,1007,o),
(717,1181,cs),
(717,1355,o),
(596,1532,o),
(379,1532,cs),
(162,1532,o),
(40,1355,o),
(40,1181,cs),
(40,1007,o),
(162,829,o),
(379,829,cs)
);
},
{
closed = 1;
nodes = (
(313,1069,o),
(274,1121,o),
(274,1181,cs),
(274,1240,o),
(313,1292,o),
(379,1292,cs),
(444,1292,o),
(483,1240,o),
(483,1181,cs),
(483,1121,o),
(444,1069,o),
(379,1069,cs)
);
}
);
width = 1515;
},
{
layerId = m003;
shapes = (
{
closed = 1;
nodes = (
(333,0,l),
(1162,1496,l),
(1162,1500,l),
(1132,1500,l),
(303,4,l),
(300,0,l)
);
},
{
closed = 1;
nodes = (
(1292,-18,o),
(1405,150,o),
(1405,318,cs),
(1405,486,o),
(1292,653,o),
(1084,653,cs),
(876,653,o),
(762,486,o),
(762,318,cs),
(762,150,o),
(876,-18,o),
(1084,-18,cs)
);
},
{
closed = 1;
nodes = (
(897,12,o),
(793,154,o),
(793,318,cs),
(793,481,o),
(896,623,o),
(1084,623,cs),
(1270,623,o),
(1374,481,o),
(1374,318,cs),
(1374,154,o),
(1270,12,o),
(1084,12,cs)
);
},
{
closed = 1;
nodes = (
(590,847,o),
(703,1015,o),
(703,1183,cs),
(703,1351,o),
(590,1518,o),
(382,1518,cs),
(174,1518,o),
(60,1351,o),
(60,1183,cs),
(60,1015,o),
(174,847,o),
(382,847,cs)
);
},
{
closed = 1;
nodes = (
(195,877,o),
(91,1019,o),
(91,1183,cs),
(91,1346,o),
(194,1488,o),
(382,1488,cs),
(568,1488,o),
(672,1346,o),
(672,1183,cs),
(672,1019,o),
(568,877,o),
(382,877,cs)
);
}
);
width = 1465;
}
);
unicode = 37;
}
{
glyphname = ampersand;
layers = (
{
associatedMasterId = m01;
layerId = "25FEBBE2-E32E-4471-9D73-396D525D42C9";
name = "May 17, 24 at 22:27";
shapes = (
{
closed = 1;
nodes = (
(539,886,ls),
(454,986,o),
(373,1082,o),
(373,1181,cs),
(373,1282,o),
(482,1330,o),
(575,1332,cs),
(775,1336,o),
(798,1332,o),
(930,1332,c),
(983,1500,l),
(603,1500,ls),
(316,1500,o),
(186,1410,o),
(186,1197,cs),
(186,1044,o),
(311,889,o),
(409,772,cs),
(1061,0,l),
(1191,114,l)
);
},
{
closed = 1;
nodes = (
(1277,0,l),
(1277,12,l),
(1191,114,l),
(1061,0,l)
);
},
{
closed = 1;
nodes = (
(77,507,o),
(-32,300,o),
(44,137,cs),
(89,40,o),
(137,0,o),
(443,0,cs),
(767,0,l),
(1187,489,l),
(1054,601,l),
(687,168,l),
(584,167,o),
(579,170,o),
(419,168,cs),
(320,167,o),
(255,179,o),
(224,250,cs),
(179,353,o),
(310,485,o),
(456,648,cs),
(1115,1382,l),
(983,1500,l),
(238,684,ls)
);
}
);
width = 1400;
},
{
associatedMasterId = m01;
layerId = "43AB356C-E2BE-4DAE-AF68-5088F915A23F";
name = "May 17, 24 at 22:58";
shapes = (
{
closed = 1;
nodes = (
(583,886,ls),
(498,986,o),
(405,1075,o),
(405,1174,cs),
(405,1284,o),
(510,1332,o),
(626,1332,cs),
(978,1332,l),
(978,1500,l),
(629,1500,ls),
(376,1500,o),
(223,1372,o),
(223,1181,cs),
(223,1042,o),
(358,895,o),
(456,778,cs),
(1108,0,l),
(1324,0,l),
(1324,12,l)
);
},
{
closed = 1;
nodes = (
(454,892,l),
(145,561,o),
(74,426,o),
(74,292,cs),
(74,141,o),
(197,0,o),
(438,0,cs),
(784,0,l),
(729,168,l),
(435,168,ls),
(334,168,o),
(267,230,o),
(267,308,cs),
(267,401,o),
(352,520,o),
(565,759,c),
(1109,1391,l),
(978,1500,l)
);
},
{
closed = 1;
nodes = (
(783,0,l),
(1223,506,l),
(1092,620,l),
(661,124,l)
);
}
);
width = 1387;
},
{
associatedMasterId = m01;
layerId = "86AF0174-102B-498E-B9F1-F016B793EBD2";
name = "May 18, 24 at 11:28";
shapes = (
{
closed = 1;
nodes = (
(788,785,o),
(1041,943,o),
(1041,1166,cs),
(1041,1364,o),
(857,1524,o),
(633,1524,cs),
(409,1524,o),
(225,1364,o),
(225,1166,cs),
(225,943,o),
(483,785,o),
(633,660,c)
);
},
{
closed = 1;
nodes = (
(403,1279,o),
(507,1366,o),
(633,1366,cs),
(759,1366,o),
(863,1279,o),
(863,1174,cs),
(863,1030,o),
(724,931,o),
(633,852,c),
(547,931,o),
(403,1030,o),
(403,1174,cs)
);
},
{
closed = 1;
nodes = (
(1320,0,l),
(1149,307,o),
(928,620,o),
(633,854,c),
(457,711,o),
(112,446,o),
(112,241,cs),
(112,122,o),
(219,0,o),
(461,0,cs),
(689,0,ls),
(919,0,o),
(1141,314,o),
(1245,476,c),
(1116,598,l),
(1029,455,o),
(839,168,o),
(625,168,cs),
(453,168,ls),
(348,168,o),
(290,196,o),
(290,266,cs),
(290,361,o),
(520,566,o),
(633,662,c),
(849,464,o),
(1020,209,o),
(1122,0,c)
);
}
);
width = 1400;
},
{
associatedMasterId = m01;
layerId = "C23FA047-F26E-400F-9D93-E6D6041EFA63";
name = "＆";
shapes = (
{
closed = 1;
nodes = (
(941,346,l),
(835,204,o),
(723,168,o),
(545,168,cs),
(425,168,ls),
(320,168,o),
(282,196,o),
(282,266,cs),
(282,351,o),
(533,568,o),
(633,664,c)
);
},
{
closed = 1;
nodes = (
(403,1279,o),
(507,1366,o),
(633,1366,cs),
(759,1366,o),
(863,1279,o),
(863,1174,cs),
(863,1073,o),
(709,937,o),
(633,858,c),
(562,937,o),
(403,1073,o),
(403,1174,cs)
);
},
{
closed = 1;
nodes = (
(1320,0,l),
(1262,104,o),
(1210,238,o),
(1140,340,c),
(1186,400,o),
(1215,429,o),
(1245,476,c),
(1116,598,l),
(1092,559,o),
(1074,521,o),
(1036,469,c),
(758,755,l),
(873,864,o),
(1041,1024,o),
(1041,1171,cs),
(1041,1369,o),
(857,1524,o),
(633,1524,cs),
(409,1524,o),
(225,1369,o),
(225,1171,cs),
(225,1024,o),
(393,863,o),
(508,755,c),
(343,607,o),
(104,395,o),
(104,241,cs),
(104,122,o),
(191,0,o),
(433,0,cs),
(609,0,ls),
(797,0,o),
(913,82,o),
(1032,214,c),
(1071,151,o),
(1093,58,o),
(1122,0,c)
);
}
);
width = 1400;
},
{
associatedMasterId = m01;
layerId = "782FC09D-44A3-4F3B-B862-5A1318D9A814";
name = "May 18, 24 at 15:02";
shapes = (
{
closed = 1;
nodes = (
(1220,16,l),
(754,569,ls),
(609,741,o),
(361,1005,o),
(361,1156,cs),
(361,1281,o),
(458,1332,o),
(620,1332,cs),
(766,1332,o),
(828,1285,o),
(828,1208,cs),
(828,1108,o),
(602,954,o),
(432,812,cs),
(230,643,o),
(24,530,o),
(18,326,cs),
(12,120,o),
(183,-29,o),
(484,-20,cs),
(830,-10,o),
(976,248,o),
(1125,531,c),
(966,609,l),
(841,353,o),
(728,158,o),
(476,148,cs),
(346,143,o),
(196,170,o),
(196,322,cs),
(196,434,o),
(323,511,o),
(520,675,cs),
(692,819,o),
(1004,1008,o),
(1004,1214,cs),
(1004,1377,o),
(881,1499,o),
(628,1500,cs),
(318,1501,o),
(183,1358,o),
(183,1152,cs),
(183,939,o),
(415,725,o),
(557,551,cs),
(1006,4,l),
(1220,4,l)
);
}
);
width = 1309;
},
{
associatedMasterId = m01;
layerId = "6F76D021-C2F4-4445-A81B-9F37B6ABB9B2";
name = "May 18, 24 at 14:51";
shapes = (
{
closed = 1;
nodes = (
(543,865,ls),
(457,963,o),
(408,1044,o),
(408,1143,cs),
(408,1244,o),
(477,1332,o),
(650,1332,cs),
(916,1332,l),
(969,1488,l),
(969,1500,l),
(667,1500,ls),
(359,1500,o),
(225,1338,o),
(225,1144,cs),
(225,989,o),
(322,853,o),
(434,724,cs),
(1066,0,l),
(1295,0,l)
);
},
{
closed = 1;
nodes = (
(513,831,l),
(195,831,o),
(65,616,o),
(65,401,cs),
(65,203,o),
(203,0,o),
(525,0,cs),
(815,0,l),
(1247,488,l),
(1116,604,l),
(716,168,l),
(500,168,ls),
(324,168,o),
(248,302,o),
(248,403,cs),
(248,502,o),
(287,661,o),
(513,661,c)
);
}
);
width = 1400;
},
{
associatedMasterId = m01;
layerId = "1F9459D2-715B-44DF-9D1E-74EAE414B301";
name = "May 18, 24 at 15:43";
shapes = (
{
closed = 1;
nodes = (
(596,789,ls),
(488,904,o),
(404,1038,o),
(404,1153,cs),
(404,1254,o),
(478,1332,o),
(646,1332,cs),
(916,1332,l),
(969,1488,l),
(969,1500,l),
(667,1500,ls),
(336,1500,o),
(219,1353,o),
(219,1169,cs),
(219,980,o),
(364,790,o),
(466,683,cs),
(1116,0,l),
(1339,0,l)
);
},
{
closed = 1;
nodes = (
(487,830,l),
(302,690,o),
(70,465,o),
(70,300,cs),
(70,102,o),
(187,0,o),
(465,0,cs),
(772,0,l),
(1204,488,l),
(1073,604,l),
(673,168,l),
(480,168,ls),
(334,168,o),
(248,196,o),
(248,297,cs),
(248,391,o),
(408,545,o),
(603,704,c)
);
}
);
width = 1400;
},
{
associatedMasterId = m01;
layerId = "0195F756-DBA9-4CFE-8E99-1A40D3A91A17";
name = "May 18, 24 at 15:51";
shapes = (
{
closed = 1;
nodes = (
(498,865,ls),
(412,964,o),
(363,1044,o),
(363,1143,cs),
(363,1244,o),
(432,1332,o),
(605,1332,cs),
(691,1332,ls),
(773,1332,o),
(808,1283,o),
(808,1215,cs),
(808,1083,o),
(652,948,o),
(498,826,c),
(602,689,l),
(770,836,o),
(986,1005,o),
(986,1213,cs),
(986,1393,o),
(865,1500,o),
(731,1500,cs),
(622,1500,ls),
(319,1500,o),
(180,1345,o),
(180,1144,cs),
(180,989,o),
(277,853,o),
(389,724,cs),
(1021,0,l),
(1250,0,l)
);
},
{
closed = 1;
nodes = (
(436,788,l),
(194,603,o),
(13,440,o),
(13,266,cs),
(13,72,o),
(85,0,o),
(433,0,cs),
(805,0,l),
(805,12,l),
(752,168,l),
(436,168,ls),
(263,168,o),
(194,196,o),
(194,297,cs),
(194,394,o),
(399,522,o),
(544,652,c)
);
}
);
width = 1309;
},
{
layerId = m01;
name = Regular;
shapes = (
{
closed = 1;
nodes = (
(1265,0,l),
(1265,12,l),
(511,799,ls),
(377,938,o),
(313,1044,o),
(313,1142,cs),
(313,1260,o),
(405,1368,o),
(572,1368,cs),
(732,1368,o),
(823,1276,o),
(848,1159,c),
(1018,1159,l),
(993,1357,o),
(840,1524,o),
(572,1524,cs),
(303,1524,o),
(147,1348,o),
(147,1142,cs),
(147,1020,o),
(211,885,o),
(356,734,cs),
(1062,0,l)
);
},
{
closed = 1;
nodes = (
(903,-24,o),
(1090,239,o),
(1090,541,c),
(936,541,l),
(933,330,o),
(801,130,o),
(528,130,cs),
(325,130,o),
(206,250,o),
(206,385,cs),
(206,541,o),
(328,665,o),
(519,723,c),
(414,847,l),
(223,756,o),
(36,601,o),
(40,376,cs),
(44,150,o),
(225,-24,o),
(549,-24,cs)
);
}
);
width = 1279;
},
{
associatedMasterId = m01;
layerId = "17CA6837-1C5C-4007-AB6C-C90BFED24B0B";
name = "May 18, 24 at 20:03";
shapes = (
{
closed = 1;
nodes = (
(817,597,ls),
(690,753,o),
(397,1000,o),
(397,1155,cs),
(397,1279,o),
(482,1366,o),
(621,1366,cs),
(747,1366,o),
(871,1289,o),
(871,1155,cs),
(871,1038,o),
(660,947,o),
(472,816,cs),
(266,672,o),
(58,557,o),
(52,358,cs),
(46,152,o),
(217,-33,o),
(518,-24,cs),
(864,-14,o),
(1010,244,o),
(1159,527,c),
(1000,605,l),
(882,389,o),
(762,164,o),
(510,154,cs),
(380,149,o),
(234,215,o),
(234,368,cs),
(234,480,o),
(400,559,o),
(582,691,cs),
(786,839,o),
(1043,964,o),
(1043,1155,cs),
(1043,1397,o),
(817,1523,o),
(633,1524,cs),
(387,1525,o),
(221,1381,o),
(221,1155,cs),
(221,965,o),
(481,731,o),
(623,561,cs),
(1090,0,l),
(1304,0,l)
);
}
);
width = 1400;
},
{
associatedMasterId = m01;
layerId = "00502B8B-F2F2-43F7-ACF5-52363FF69C99";
name = "May 19, 24 at 11:46";
shapes = (
{
closed = 1;
nodes = (
(549,705,l),
(292,705,o),
(88,878,o),
(88,1110,cs),
(88,1328,o),
(256,1524,o),
(548,1524,cs),
(819,1524,o),
(980,1357,o),
(1005,1159,c),
(827,1159,l),
(803,1266,o),
(709,1360,o),
(548,1360,cs),
(363,1360,o),
(268,1234,o),
(268,1102,cs),
(268,969,o),
(368,847,o),
(548,847,c)
);
},
{
closed = 1;
nodes = (
(729,703,l),
(548,703,l),
(365,703,o),
(228,583,o),
(228,421,cs),
(228,272,o),
(340,140,o),
(548,140,cs),
(756,140,o),
(874,272,o),
(878,421,c),
(1045,421,l),
(1045,198,o),
(883,-24,o),
(548,-24,cs),
(213,-24,o),
(48,190,o),
(48,411,cs),
(48,684,o),
(283,847,o),
(548,847,c),
(729,847,l)
);
},
{
closed = 1;
nodes = (
(1223,521,l),
(1223,355,l),
(878,355,l),
(878,521,l)
);
}
);
width = 1263;
},
{
associatedMasterId = m01;
layerId = "9E507DF1-C29D-4D5C-AE07-1C594BBED2AD";
name = "May 19, 24 at 12:03";
shapes = (
{
closed = 1;
nodes = (
(1088,0,l),
(338,735,ls),
(181,888,o),
(127,1037,o),
(127,1142,cs),
(127,1348,o),
(286,1524,o),
(558,1524,cs),
(829,1524,o),
(980,1357,o),
(1005,1159,c),
(827,1159,l),
(803,1266,o),
(719,1360,o),
(558,1360,cs),
(393,1360,o),
(304,1256,o),
(304,1146,cs),
(304,1035,o),
(385,912,o),
(515,786,cs),
(1308,12,l),
(1308,0,l)
);
},
{
closed = 1;
nodes = (
(508,713,l),
(320,653,o),
(204,542,o),
(204,386,cs),
(204,253,o),
(322,140,o),
(521,140,cs),
(778,140,o),
(912,336,o),
(916,521,c),
(1078,521,l),
(1078,239,o),
(877,-24,o),
(531,-24,cs),
(210,-24,o),
(30,145,o),
(26,385,cs),
(22,614,o),
(216,779,o),
(398,852,c)
);
}
);
width = 1263;
},
{
associatedMasterId = m01;
layerId = "0F9C5553-4B4A-4F07-9A19-C3BF3AFDB896";
name = "May 21, 24 at 14:59";
shapes = (
{
closed = 1;
nodes = (
(1078,0,l),
(340,734,ls),
(185,889,o),
(127,1034,o),
(127,1142,cs),
(127,1348,o),
(286,1524,o),
(558,1524,cs),
(829,1524,o),
(980,1357,o),
(1005,1159,c),
(827,1159,l),
(803,1266,o),
(719,1360,o),
(558,1360,cs),
(393,1360,o),
(304,1256,o),
(304,1146,cs),
(304,1044,o),
(360,950,o),
(497,813,cs),
(1298,12,l),
(1298,0,l)
);
},
{
closed = 1;
nodes = (
(508,713,l),
(317,655,o),
(204,541,o),
(204,385,cs),
(204,250,o),
(309,140,o),
(514,140,cs),
(780,140,o),
(913,330,o),
(916,541,c),
(1078,541,l),
(1078,239,o),
(900,-24,o),
(524,-24,cs),
(202,-24,o),
(30,143,o),
(26,383,cs),
(22,620,o),
(209,772,o),
(400,847,c)
);
}
);
width = 1323;
},
{
layerId = m002;
name = Regular;
shapes = (
{
closed = 1;
nodes = (
(1384,0,l),
(1384,20,l),
(643,799,ls),
(510,939,o),
(434,1016,o),
(434,1111,cs),
(434,1217,o),
(520,1284,o),
(627,1284,cs),
(752,1284,o),
(817,1209,o),
(837,1133,c),
(1121,1133,l),
(1100,1303,o),
(993,1532,o),
(618,1532,cs),
(343,1532,o),
(134,1370,o),
(134,1142,cs),
(134,1008,o),
(194,881,o),
(333,734,cs),
(1029,0,l)
);
},
{
closed = 1;
nodes = (
(1031,-32,o),
(1197,299,o),
(1200,601,c),
(945,601,l),
(929,380,o),
(821,206,o),
(594,206,cs),
(443,206,o),
(321,278,o),
(321,413,cs),
(321,505,o),
(370,606,o),
(571,687,c),
(412,880,l),
(163,755,o),
(40,589,o),
(44,394,cs),
(49,150,o),
(241,-32,o),
(585,-32,cs)
);
}
);
width = 1404;
},
{
layerId = m003;
name = Regular;
shapes = (
{
closed = 1;
nodes = (
(1192,0,l),
(1192,4,l),
(430,799,ls),
(292,942,o),
(208,1034,o),
(208,1174,cs),
(208,1376,o),
(385,1488,o),
(572,1488,cs),
(808,1488,o),
(927,1332,o),
(952,1171,c),
(984,1171,l),
(959,1363,o),
(818,1518,o),
(572,1518,cs),
(321,1518,o),
(176,1354,o),
(176,1174,cs),
(176,1006,o),
(291,896,o),
(446,734,cs),
(1149,0,l)
);
},
{
closed = 1;
nodes = (
(847,-18,o),
(1071,200,o),
(1068,491,c),
(1036,491,l),
(1036,219,o),
(829,12,o),
(520,12,cs),
(302,12,o),
(97,131,o),
(97,350,cs),
(97,541,o),
(245,676,o),
(433,762,c),
(411,788,l),
(210,692,o),
(61,539,o),
(65,349,cs),
(69,154,o),
(222,-18,o),
(522,-18,cs)
);
}
);
width = 1249;
}
);
unicode = 38;
}
{
glyphname = quotesingle;
layers = (
{
layerId = m01;
shapes = (
{
closed = 1;
nodes = (
(274,960,l),
(328,1488,l),
(328,1500,l),
(120,1500,l),
(120,1488,l),
(174,960,l)
);
}
);
width = 448;
},
{
associatedMasterId = m01;
layerId = "22583D66-19AB-44EE-9D36-1312498E291C";
name = "May 17, 24 at 10:08";
shapes = (
{
closed = 1;
nodes = (
(143,1500,l),
(56,1136,l),
(56,1124,l),
(163,1124,l),
(355,1488,l),
(355,1500,l)
);
}
);
width = 451;
},
{
associatedMasterId = m01;
layerId = "B3D50777-D73B-4404-9EE6-436841384AE4";
name = "May 17, 24 at 16:35";
shapes = (
{
closed = 1;
nodes = (
(132,1500,l),
(35,996,l),
(35,984,l),
(138,984,l),
(350,1488,l),
(350,1500,l)
);
}
);
visible = 1;
width = 451;
},
{
associatedMasterId = m01;
layerId = "000D917D-5F44-4263-BF56-AACCC7B7F1F9";
name = "May 21, 24 at 14:53";
shapes = (
{
closed = 1;
nodes = (
(150,1500,l),
(150,1488,l),
(205,960,l),
(310,960,l),
(366,1488,l),
(366,1500,l)
);
}
);
width = 516;
},
{
layerId = m002;
shapes = (
{
closed = 1;
nodes = (
(307,870,l),
(364,1480,l),
(364,1500,l),
(100,1500,l),
(100,1480,l),
(157,870,l)
);
}
);
width = 464;
},
{
layerId = m003;
shapes = (
{
closed = 1;
nodes = (
(127,1150,l),
(136,1496,l),
(136,1500,l),
(90,1500,l),
(90,1496,l),
(99,1150,l)
);
}
);
width = 226;
}
);
unicode = 39;
}
{
glyphname = parenleft;
layers = (
{
associatedMasterId = m01;
layerId = "8EC188A5-0E3D-49FC-A6FD-A2B2CAF04F3E";
name = "May 19, 24 at 7:52";
shapes = (
{
closed = 1;
nodes = (
(28,1024,o),
(28,304,o),
(396,-236,c),
(606,-236,l),
(606,-224,l),
(211,334,o),
(211,994,o),
(606,1552,c),
(606,1564,l),
(396,1564,l)
);
}
);
width = 696;
},
{
associatedMasterId = m01;
layerId = "B0E26C8A-EBE8-4C2A-8CF2-4D2DF79F6BF1";
name = "May 19, 24 at 8:06";
shapes = (
{
closed = 1;
nodes = (
(565,1668,l),
(183,1430,o),
(31,1065,o),
(31,720,c),
(207,720,l),
(207,1006,o),
(341,1323,o),
(656,1524,c)
);
},
{
closed = 1;
nodes = (
(565,1668,l),
(183,1430,o),
(31,1065,o),
(31,720,c),
(207,720,l),
(207,1006,o),
(341,1323,o),
(656,1524,c)
);
},
{
closed = 1;
nodes = (
(341,117,o),
(207,434,o),
(207,720,c),
(31,720,l),
(31,375,o),
(183,10,o),
(565,-228,c),
(656,-84,l)
);
},
{
closed = 1;
nodes = (
(341,117,o),
(207,434,o),
(207,720,c),
(31,720,l),
(31,375,o),
(183,10,o),
(565,-228,c),
(656,-84,l)
);
}
);
width = 696;
},
{
layerId = m01;
name = Regular;
shapes = (
{
closed = 1;
nodes = (
(728,-91,l),
(408,110,o),
(274,448,o),
(274,728,cs),
(274,1008,o),
(408,1346,o),
(728,1547,c),
(650,1667,l),
(277,1428,o),
(120,1069,o),
(120,728,cs),
(120,387,o),
(277,29,o),
(650,-210,c)
);
}
);
width = 768;
},
{
associatedMasterId = m01;
layerId = "1A2C9CE3-7D61-4FEA-9F8B-C33A8FA65DA0";
name = "May 19, 24 at 10:44";
shapes = (
{
closed = 1;
nodes = (
(128,375,o),
(280,10,o),
(662,-228,c),
(753,-84,l),
(438,117,o),
(304,434,o),
(304,720,cs),
(304,1006,o),
(438,1323,o),
(753,1524,c),
(662,1668,l),
(280,1430,o),
(128,1065,o),
(128,720,cs)
);
}
);
width = 843;
},
{
associatedMasterId = m01;
layerId = "C82A0121-2BB6-4150-9B7C-9F49855859DC";
name = "May 19, 24 at 20:39";
shapes = (
{
ref = bracketleft;
}
);
width = 843;
},
{
associatedMasterId = m01;
layerId = "7B4805C3-E2EF-4404-946D-F82937C4E2D8";
name = "May 21, 24 at 10:34";
shapes = (
{
closed = 1;
nodes = (
(128,383,o),
(280,18,o),
(662,-220,c),
(747,-86,l),
(427,115,o),
(290,448,o),
(290,728,cs),
(290,1008,o),
(427,1341,o),
(747,1542,c),
(662,1676,l),
(280,1438,o),
(128,1073,o),
(128,728,cs)
);
}
);
width = 795;
},
{
layerId = m002;
name = Regular;
shapes = (
{
closed = 1;
nodes = (
(815,12,l),
(566,233,o),
(437,455,o),
(437,728,cs),
(437,1001,o),
(566,1223,o),
(815,1444,c),
(589,1669,l),
(245,1385,o),
(110,1082,o),
(110,728,cs),
(110,374,o),
(245,71,o),
(589,-213,c)
);
}
);
width = 875;
},
{
layerId = m003;
name = Regular;
shapes = (
{
closed = 1;
nodes = (
(606,-140,l),
(330,48,o),
(142,391,o),
(142,728,cs),
(142,1065,o),
(330,1408,o),
(606,1596,c),
(587,1623,l),
(293,1414,o),
(110,1070,o),
(110,728,cs),
(110,386,o),
(293,42,o),
(587,-167,c)
);
}
);
width = 686;
},
{
associatedMasterId = m002;
layerId = "55C9A0E7-BC73-40D3-9070-1F90A472AA2A";
name = "Jun 5, 24 at 13:38";
shapes = (
{
closed = 1;
nodes = (
(316,1097,o),
(521,1331,o),
(762,1513,c),
(628,1684,l),
(262,1444,o),
(94,1097,o),
(94,728,cs),
(94,359,o),
(262,12,o),
(628,-228,c),
(762,-57,l),
(521,125,o),
(316,359,o),
(316,728,cs)
);
}
);
width = 768;
},
{
associatedMasterId = m002;
layerId = "89A3228A-5A0B-40A1-8C55-1431F8345DC4";
name = "Jun 11, 24 at 13:58";
shapes = (
{
closed = 1;
nodes = (
(815,12,l),
(566,233,o),
(437,455,o),
(437,728,cs),
(437,1001,o),
(566,1223,o),
(815,1444,c),
(583,1674,l),
(239,1390,o),
(100,1082,o),
(100,728,cs),
(100,374,o),
(239,66,o),
(583,-218,c)
);
}
);
visible = 1;
width = 875;
}
);
unicode = 40;
}
{
glyphname = parenright;
layers = (
{
layerId = m01;
shapes = (
{
closed = 1;
nodes = (
(491,29,o),
(648,387,o),
(648,728,cs),
(648,1069,o),
(491,1428,o),
(118,1667,c),
(40,1547,l),
(360,1346,o),
(494,1008,o),
(494,728,cs),
(494,448,o),
(360,110,o),
(40,-91,c),
(118,-210,l)
);
}
);
width = 768;
},
{
associatedMasterId = m01;
layerId = "947A0555-5D57-4D2F-81BE-7A30E0F5230B";
name = "May 19, 24 at 9:57";
shapes = (
{
closed = 1;
nodes = (
(90,1564,l),
(90,1552,l),
(485,994,o),
(485,334,o),
(90,-224,c),
(90,-236,l),
(300,-236,l),
(668,304,o),
(668,1024,o),
(300,1564,c)
);
}
);
width = 696;
},
{
associatedMasterId = m01;
layerId = "63A8C4FF-F5F9-4F1C-8A34-C5EF82D20137";
name = "May 19, 24 at 10:45";
shapes = (
{
closed = 1;
nodes = (
(715,1065,o),
(563,1430,o),
(181,1668,c),
(90,1524,l),
(405,1323,o),
(539,1006,o),
(539,720,cs),
(539,434,o),
(405,117,o),
(90,-84,c),
(181,-228,l),
(563,10,o),
(715,375,o),
(715,720,cs)
);
}
);
width = 843;
},
{
associatedMasterId = m01;
layerId = "C188692F-13BA-4808-9A39-D98609CBA431";
name = "May 21, 24 at 14:29";
shapes = (
{
closed = 1;
nodes = (
(659,1073,o),
(507,1438,o),
(125,1676,c),
(40,1542,l),
(360,1341,o),
(497,1008,o),
(497,728,cs),
(497,448,o),
(360,115,o),
(40,-86,c),
(125,-220,l),
(507,18,o),
(659,383,o),
(659,728,cs)
);
}
);
width = 789;
},
{
layerId = m002;
shapes = (
{
closed = 1;
nodes = (
(630,71,o),
(765,374,o),
(765,728,cs),
(765,1082,o),
(630,1385,o),
(286,1669,c),
(60,1444,l),
(309,1223,o),
(438,1001,o),
(438,728,cs),
(438,455,o),
(309,233,o),
(60,12,c),
(286,-213,l)
);
}
);
width = 875;
},
{
layerId = m003;
shapes = (
{
closed = 1;
nodes = (
(393,42,o),
(576,386,o),
(576,728,cs),
(576,1070,o),
(393,1414,o),
(99,1623,c),
(80,1596,l),
(356,1408,o),
(544,1065,o),
(544,728,cs),
(544,391,o),
(356,48,o),
(80,-140,c),
(99,-167,l)
);
}
);
width = 686;
}
);
unicode = 41;
}
{
glyphname = asterisk;
layers = (
{
layerId = m01;
shapes = (
{
closed = 1;
nodes = (
(555,648,l),
(555,660,l),
(523,1004,l),
(804,804,l),
(814,798,l),
(887,924,l),
(877,930,l),
(562,1074,l),
(877,1218,l),
(887,1224,l),
(814,1350,l),
(804,1344,l),
(523,1144,l),
(555,1488,l),
(555,1500,l),
(409,1500,l),
(409,1488,l),
(441,1144,l),
(160,1344,l),
(150,1350,l),
(77,1224,l),
(87,1218,l),
(402,1074,l),
(87,930,l),
(77,924,l),
(150,798,l),
(160,804,l),
(441,1004,l),
(409,660,l),
(409,648,l)
);
}
);
width = 964;
},
{
associatedMasterId = m01;
layerId = "3159579E-FBF5-44A3-847A-69126431B8DC";
name = "May 18, 24 at 18:53";
shapes = (
{
closed = 1;
nodes = (
(415,652,l),
(555,652,l),
(543,972,l),
(813,800,l),
(883,922,l),
(599,1070,l),
(883,1218,l),
(813,1342,l),
(543,1170,l),
(555,1490,l),
(415,1490,l),
(427,1170,l),
(157,1342,l),
(87,1218,l),
(371,1070,l),
(87,922,l),
(157,800,l),
(427,972,l)
);
}
);
width = 970;
},
{
associatedMasterId = m01;
layerId = "38064B77-C13A-41CD-975A-3FC366BD9BE1";
name = "May 21, 24 at 8:52";
shapes = (
{
closed = 1;
nodes = (
(579,654,l),
(536,1078,l),
(453,1078,l),
(411,654,l),
(411,642,l),
(579,642,l)
);
},
{
closed = 1;
nodes = (
(411,1500,l),
(411,1488,l),
(453,1064,l),
(536,1064,l),
(579,1488,l),
(579,1500,l)
);
},
{
closed = 1;
nodes = (
(824,1357,l),
(814,1351,l),
(467,1103,l),
(509,1031,l),
(898,1206,l),
(908,1212,l)
);
},
{
closed = 1;
nodes = (
(907,928,l),
(897,934,l),
(508,1110,l),
(467,1038,l),
(813,789,l),
(823,783,l)
);
},
{
closed = 1;
nodes = (
(175,789,l),
(521,1038,l),
(480,1110,l),
(91,934,l),
(81,928,l),
(165,783,l)
);
},
{
closed = 1;
nodes = (
(90,1206,l),
(479,1031,l),
(521,1103,l),
(174,1351,l),
(164,1357,l),
(80,1212,l)
);
}
);
width = 988;
},
{
associatedMasterId = m01;
layerId = "C0A5CA4E-BEB3-484E-AA07-A7834D4CCAA5";
name = "May 21, 24 at 8:58";
shapes = (
{
closed = 1;
nodes = (
(77,986,l),
(501,1029,l),
(501,1112,l),
(77,1154,l),
(65,1154,l),
(65,986,l)
);
},
{
closed = 1;
nodes = (
(923,1154,l),
(911,1154,l),
(487,1112,l),
(487,1029,l),
(911,986,l),
(923,986,l)
);
},
{
closed = 1;
nodes = (
(780,741,l),
(774,751,l),
(526,1098,l),
(454,1056,l),
(629,667,l),
(635,657,l)
);
},
{
closed = 1;
nodes = (
(351,658,l),
(357,668,l),
(533,1057,l),
(461,1098,l),
(212,752,l),
(206,742,l)
);
},
{
closed = 1;
nodes = (
(212,1390,l),
(461,1044,l),
(533,1085,l),
(357,1474,l),
(351,1484,l),
(206,1400,l)
);
},
{
closed = 1;
nodes = (
(629,1475,l),
(454,1086,l),
(526,1044,l),
(774,1391,l),
(780,1401,l),
(635,1485,l)
);
}
);
width = 988;
},
{
associatedMasterId = m01;
layerId = "654206F8-0DEE-4389-A633-D7F4CE84659E";
name = "May 21, 24 at 9:03";
shapes = (
{
closed = 1;
nodes = (
(415,1500,l),
(415,1488,l),
(456,1064,l),
(532,1064,l),
(573,1488,l),
(573,1500,l)
);
},
{
closed = 1;
nodes = (
(573,646,l),
(532,1070,l),
(456,1070,l),
(415,646,l),
(415,634,l),
(573,634,l)
);
},
{
closed = 1;
nodes = (
(830,1352,l),
(819,1346,l),
(472,1098,l),
(510,1033,l),
(898,1209,l),
(909,1215,l)
);
},
{
closed = 1;
nodes = (
(909,919,l),
(898,925,l),
(510,1102,l),
(473,1036,l),
(819,788,l),
(830,782,l)
);
},
{
closed = 1;
nodes = (
(169,788,l),
(515,1036,l),
(478,1102,l),
(90,925,l),
(79,919,l),
(158,782,l)
);
},
{
closed = 1;
nodes = (
(79,1215,l),
(90,1209,l),
(478,1032,l),
(515,1098,l),
(169,1346,l),
(158,1352,l)
);
}
);
width = 989;
},
{
associatedMasterId = m01;
layerId = "01BFBBE0-8056-4CC0-B3EE-547929DAE392";
name = "May 21, 24 at 9:04";
shapes = (
{
closed = 1;
nodes = (
(421,1500,l),
(421,1488,l),
(460,1064,l),
(528,1064,l),
(567,1488,l),
(567,1500,l)
);
},
{
closed = 1;
nodes = (
(833,1347,l),
(822,1341,l),
(474,1095,l),
(508,1036,l),
(895,1214,l),
(906,1220,l)
);
},
{
closed = 1;
nodes = (
(906,913,l),
(895,920,l),
(508,1098,l),
(474,1039,l),
(822,793,l),
(833,787,l)
);
},
{
closed = 1;
nodes = (
(567,633,l),
(567,646,l),
(528,1070,l),
(460,1070,l),
(421,646,l),
(421,633,l)
);
},
{
closed = 1;
nodes = (
(155,787,l),
(166,793,l),
(514,1039,l),
(480,1098,l),
(93,920,l),
(82,913,l)
);
},
{
closed = 1;
nodes = (
(82,1221,l),
(93,1214,l),
(480,1036,l),
(514,1095,l),
(166,1341,l),
(155,1347,l)
);
}
);
width = 989;
},
{
layerId = m002;
shapes = (
{
closed = 1;
nodes = (
(617,648,l),
(617,668,l),
(564,955,l),
(784,764,l),
(801,755,l),
(925,968,l),
(907,978,l),
(633,1074,l),
(907,1170,l),
(924,1180,l),
(801,1394,l),
(784,1384,l),
(564,1193,l),
(617,1480,l),
(617,1500,l),
(371,1500,l),
(371,1480,l),
(424,1193,l),
(204,1384,l),
(187,1393,l),
(63,1180,l),
(81,1170,l),
(355,1074,l),
(81,978,l),
(64,968,l),
(187,754,l),
(204,764,l),
(424,955,l),
(371,668,l),
(371,648,l)
);
}
);
width = 988;
},
{
layerId = m003;
shapes = (
{
closed = 1;
nodes = (
(479,648,l),
(479,652,l),
(475,1053,l),
(820,849,l),
(824,847,l),
(840,875,l),
(836,877,l),
(487,1074,l),
(836,1271,l),
(840,1273,l),
(824,1301,l),
(820,1299,l),
(475,1095,l),
(479,1496,l),
(479,1500,l),
(447,1500,l),
(447,1496,l),
(451,1095,l),
(106,1299,l),
(102,1301,l),
(86,1273,l),
(90,1271,l),
(439,1074,l),
(90,877,l),
(86,875,l),
(102,847,l),
(106,849,l),
(451,1053,l),
(447,652,l),
(447,648,l)
);
}
);
width = 926;
},
{
associatedMasterId = m003;
layerId = "F37ED65E-FCF8-45A9-80B0-CEF2F9859C2D";
name = "May 29, 24 at 19:47";
shapes = (
{
closed = 1;
nodes = (
(855,1271,l),
(859,1273,l),
(843,1301,l),
(839,1299,l),
(476,1084,l),
(488,1064,l)
);
},
{
closed = 1;
nodes = (
(125,849,l),
(488,1064,l),
(476,1084,l),
(109,877,l),
(105,875,l),
(121,847,l)
);
},
{
closed = 1;
nodes = (
(498,648,l),
(498,652,l),
(494,1074,l),
(470,1074,l),
(466,652,l),
(466,648,l)
);
},
{
closed = 1;
nodes = (
(488,1084,l),
(125,1299,l),
(121,1301,l),
(105,1273,l),
(109,1271,l),
(476,1064,l)
);
},
{
closed = 1;
nodes = (
(859,875,l),
(855,877,l),
(488,1084,l),
(476,1064,l),
(839,849,l),
(843,847,l)
);
},
{
closed = 1;
nodes = (
(494,1074,l),
(498,1496,l),
(498,1500,l),
(466,1500,l),
(466,1496,l),
(470,1074,l)
);
}
);
width = 964;
},
{
associatedMasterId = m002;
layerId = "8F8502C4-1CA2-4D1F-9635-9BA8F6608A54";
name = "May 29, 24 at 19:48";
shapes = (
{
closed = 1;
nodes = (
(516,1132,l),
(196,1390,l),
(178,1400,l),
(48,1173,l),
(65,1164,l),
(449,1016,l)
);
},
{
closed = 1;
nodes = (
(196,758,l),
(516,1016,l),
(449,1132,l),
(65,984,l),
(48,974,l),
(179,748,l)
);
},
{
closed = 1;
nodes = (
(613,649,l),
(613,668,l),
(549,1074,l),
(415,1074,l),
(351,668,l),
(352,648,l)
);
},
{
closed = 1;
nodes = (
(916,975,l),
(899,984,l),
(516,1132,l),
(449,1016,l),
(768,758,l),
(786,748,l)
);
},
{
closed = 1;
nodes = (
(549,1074,l),
(613,1480,l),
(613,1500,l),
(351,1500,l),
(351,1480,l),
(415,1074,l)
);
},
{
closed = 1;
nodes = (
(899,1164,l),
(916,1174,l),
(785,1400,l),
(768,1390,l),
(449,1132,l),
(516,1016,l)
);
}
);
width = 964;
},
{
associatedMasterId = m002;
layerId = "61C3332B-2364-411E-B83F-46DB5D65DBEE";
name = "Jun 7, 24 at 22:00";
shapes = (
{
closed = 1;
nodes = (
(911,1164,l),
(929,1174,l),
(798,1401,l),
(780,1391,l),
(461,1132,l),
(528,1016,l)
);
},
{
closed = 1;
nodes = (
(208,758,l),
(528,1016,l),
(461,1132,l),
(77,984,l),
(60,975,l),
(190,748,l)
);
},
{
closed = 1;
nodes = (
(625,668,l),
(561,1074,l),
(427,1074,l),
(363,668,l),
(363,649,l),
(624,648,l)
);
},
{
closed = 1;
nodes = (
(528,1132,l),
(209,1390,l),
(192,1400,l),
(61,1174,l),
(78,1164,l),
(461,1016,l)
);
},
{
closed = 1;
nodes = (
(929,974,l),
(912,984,l),
(528,1132,l),
(461,1016,l),
(781,758,l),
(798,748,l)
);
},
{
closed = 1;
nodes = (
(561,1074,l),
(625,1480,l),
(625,1499,l),
(363,1499,l),
(364,1479,l),
(428,1074,l)
);
}
);
width = 988;
},
{
associatedMasterId = m01;
layerId = "0DDA552F-ED40-4745-8D4E-0DF06298CB1A";
name = "Jun 7, 24 at 22:00";
shapes = (
{
closed = 1;
nodes = (
(877,1218,l),
(887,1224,l),
(814,1350,l),
(804,1344,l),
(465,1103,l),
(499,1045,l)
);
},
{
closed = 1;
nodes = (
(160,804,l),
(499,1045,l),
(465,1103,l),
(87,930,l),
(77,924,l),
(150,798,l)
);
},
{
closed = 1;
nodes = (
(555,648,l),
(555,660,l),
(516,1074,l),
(448,1074,l),
(409,660,l),
(409,648,l)
);
},
{
closed = 1;
nodes = (
(499,1103,l),
(160,1344,l),
(150,1350,l),
(77,1224,l),
(87,1218,l),
(465,1045,l)
);
},
{
closed = 1;
nodes = (
(887,924,l),
(877,930,l),
(499,1103,l),
(465,1045,l),
(804,804,l),
(814,798,l)
);
},
{
closed = 1;
nodes = (
(516,1074,l),
(555,1488,l),
(555,1500,l),
(409,1500,l),
(409,1488,l),
(448,1074,l)
);
}
);
width = 964;
},
{
associatedMasterId = m003;
layerId = "2D401DC3-E9B1-4C3E-8351-F7BEAD004CA8";
name = "Jun 7, 24 at 22:00";
shapes = (
{
closed = 1;
nodes = (
(836,1271,l),
(840,1273,l),
(824,1301,l),
(820,1299,l),
(457,1084,l),
(469,1064,l)
);
},
{
closed = 1;
nodes = (
(106,849,l),
(469,1064,l),
(457,1084,l),
(90,877,l),
(86,875,l),
(102,847,l)
);
},
{
closed = 1;
nodes = (
(479,648,l),
(479,652,l),
(475,1074,l),
(451,1074,l),
(447,652,l),
(447,648,l)
);
},
{
closed = 1;
nodes = (
(469,1084,l),
(106,1299,l),
(102,1301,l),
(86,1273,l),
(90,1271,l),
(457,1064,l)
);
},
{
closed = 1;
nodes = (
(840,875,l),
(836,877,l),
(469,1084,l),
(457,1064,l),
(820,849,l),
(824,847,l)
);
},
{
closed = 1;
nodes = (
(475,1074,l),
(479,1496,l),
(479,1500,l),
(447,1500,l),
(447,1496,l),
(451,1074,l)
);
}
);
width = 926;
},
{
associatedMasterId = m002;
layerId = "A4D03F7E-E5C7-49A3-B633-1368A21F5DA0";
name = "Jun 7, 24 at 22:01";
shapes = (
{
closed = 1;
nodes = (
(625,668,l),
(586,915,l),
(781,758,l),
(798,748,l),
(929,974,l),
(912,984,l),
(678,1074,l),
(911,1164,l),
(929,1174,l),
(798,1401,l),
(780,1391,l),
(586,1234,l),
(625,1480,l),
(625,1499,l),
(363,1499,l),
(364,1479,l),
(403,1233,l),
(209,1390,l),
(192,1400,l),
(61,1174,l),
(78,1164,l),
(311,1074,l),
(77,984,l),
(60,975,l),
(190,748,l),
(208,758,l),
(402,914,l),
(363,668,l),
(363,649,l),
(624,648,l)
);
}
);
width = 988;
},
{
associatedMasterId = m002;
layerId = "29C5B7B4-D1E4-4244-8365-6BE2DA493EA1";
name = "Jun 11, 24 at 14:03";
shapes = (
{
closed = 1;
nodes = (
(617,648,l),
(617,668,l),
(571,942,l),
(784,764,l),
(801,755,l),
(925,968,l),
(907,978,l),
(647,1074,l),
(907,1170,l),
(924,1180,l),
(801,1394,l),
(784,1384,l),
(571,1206,l),
(617,1480,l),
(617,1500,l),
(371,1500,l),
(371,1480,l),
(417,1206,l),
(204,1384,l),
(187,1393,l),
(63,1180,l),
(81,1170,l),
(341,1074,l),
(81,978,l),
(64,968,l),
(187,754,l),
(204,764,l),
(417,942,l),
(371,668,l),
(371,648,l)
);
}
);
visible = 1;
width = 988;
}
);
unicode = 42;
}
{
glyphname = plus;
layers = (
{
layerId = m01;
shapes = (
{
closed = 1;
nodes = (
(633,1074,l),
(467,1074,l),
(467,126,l),
(633,126,l)
);
},
{
closed = 1;
nodes = (
(110,678,l),
(110,522,l),
(990,522,l),
(990,678,l)
);
}
);
width = 1100;
},
{
layerId = m002;
shapes = (
{
closed = 1;
nodes = (
(765,1114,l),
(435,1114,l),
(435,86,l),
(765,86,l)
);
},
{
closed = 1;
nodes = (
(110,755,l),
(110,445,l),
(1090,445,l),
(1090,755,l)
);
}
);
width = 1200;
},
{
layerId = m003;
shapes = (
{
closed = 1;
nodes = (
(556,1064,l),
(524,1064,l),
(524,136,l),
(556,136,l)
);
},
{
closed = 1;
nodes = (
(110,615,l),
(110,585,l),
(970,585,l),
(970,615,l)
);
}
);
width = 1080;
}
);
unicode = 43;
}
{
glyphname = comma;
layers = (
{
associatedMasterId = m01;
layerId = "D7A1B53C-DB4B-429E-979C-A8A606F3B1BD";
name = "May 16, 24 at 21:20";
shapes = (
{
ref = period;
}
);
width = 420;
},
{
associatedMasterId = m01;
layerId = "EF7DA7D8-90F5-46A9-92F8-A7DE7DBC90D6";
name = "May 19, 24 at 11:45";
shapes = (
{
closed = 1;
nodes = (
(143,196,l),
(36,-308,l),
(36,-320,l),
(139,-320,l),
(353,184,l),
(353,196,l)
);
}
);
width = 463;
},
{
layerId = m01;
name = Regular;
shapes = (
{
closed = 1;
nodes = (
(123,-318,l),
(347,212,l),
(347,224,l),
(131,224,l),
(10,-306,l),
(10,-318,l)
);
}
);
width = 461;
},
{
layerId = m002;
name = Regular;
shapes = (
{
closed = 1;
nodes = (
(195,-338,l),
(448,276,l),
(448,296,l),
(157,296,l),
(30,-318,l),
(30,-338,l)
);
}
);
width = 568;
},
{
layerId = m003;
name = Regular;
shapes = (
{
closed = 1;
nodes = (
(52,-280,l),
(195,69,l),
(195,73,l),
(109,73,l),
(8,-276,l),
(8,-280,l)
);
}
);
width = 305;
}
);
unicode = 44;
}
{
glyphname = hyphen;
layers = (
{
layerId = m01;
shapes = (
{
closed = 1;
nodes = (
(816,540,l),
(816,700,l),
(138,700,l),
(138,540,l)
);
}
);
width = 954;
},
{
layerId = m002;
shapes = (
{
closed = 1;
nodes = (
(914,448,l),
(914,798,l),
(100,798,l),
(100,448,l)
);
}
);
width = 1014;
},
{
layerId = m003;
shapes = (
{
closed = 1;
nodes = (
(682,605,l),
(682,635,l),
(112,635,l),
(112,605,l)
);
}
);
width = 794;
}
);
unicode = 45;
}
{
glyphname = period;
layers = (
{
associatedMasterId = m01;
layerId = "494DF8B4-FE9F-4C2D-8469-F2B3B4DCACF0";
name = "May 19, 24 at 11:45";
shapes = (
{
closed = 1;
nodes = (
(304,-24,o),
(356,27,o),
(356,98,cs),
(356,169,o),
(304,220,o),
(233,220,cs),
(162,220,o),
(110,169,o),
(110,98,cs),
(110,27,o),
(162,-24,o),
(233,-24,cs)
);
}
);
width = 466;
},
{
layerId = m01;
name = Regular;
shapes = (
{
closed = 1;
nodes = (
(340,0,l),
(340,224,l),
(114,224,l),
(114,0,l)
);
}
);
width = 454;
},
{
layerId = m002;
name = Regular;
shapes = (
{
closed = 1;
nodes = (
(416,0,l),
(416,296,l),
(120,296,l),
(120,0,l)
);
}
);
width = 536;
},
{
layerId = m003;
name = Regular;
shapes = (
{
closed = 1;
nodes = (
(182,0,l),
(182,73,l),
(110,73,l),
(110,0,l)
);
}
);
width = 292;
}
);
unicode = 46;
}
{
glyphname = slash;
layers = (
{
layerId = m01;
shapes = (
{
closed = 1;
nodes = (
(70,-107,l),
(70,-119,l),
(228,-119,l),
(686,1618,l),
(686,1630,l),
(528,1630,l)
);
}
);
width = 746;
},
{
associatedMasterId = m01;
layerId = "D9B312AB-AB83-4217-9CF9-C3BF3A0609B8";
name = "May 18, 24 at 19:45";
shapes = (
{
closed = 1;
nodes = (
(58,-130,l),
(238,-130,l),
(698,1630,l),
(518,1630,l)
);
}
);
width = 740;
},
{
associatedMasterId = m01;
layerId = "C0E4C216-934D-4E4A-AC95-E0A2BA1A3F88";
name = "May 21, 24 at 10:21";
shapes = (
{
closed = 1;
nodes = (
(100,-107,l),
(100,-119,l),
(278,-119,l),
(736,1618,l),
(736,1630,l),
(558,1630,l)
);
}
);
width = 816;
},
{
layerId = m002;
shapes = (
{
closed = 1;
nodes = (
(80,-99,l),
(80,-119,l),
(390,-119,l),
(848,1610,l),
(848,1630,l),
(538,1630,l)
);
}
);
width = 918;
},
{
layerId = m003;
shapes = (
{
closed = 1;
nodes = (
(90,-115,l),
(90,-119,l),
(124,-119,l),
(582,1628,l),
(582,1630,l),
(548,1630,l)
);
}
);
width = 662;
}
);
unicode = 47;
}
{
glyphname = two;
layers = (
{
layerId = m01;
shapes = (
{
closed = 1;
nodes = (
(1030,0,l),
(1030,164,l),
(328,164,l),
(816,724,ls),
(928,853,o),
(1019,995,o),
(1019,1150,cs),
(1019,1344,o),
(903,1500,o),
(583,1500,cs),
(111,1500,l),
(111,1488,l),
(166,1338,l),
(600,1338,ls),
(783,1338,o),
(843,1250,o),
(843,1149,cs),
(843,1050,o),
(799,959,o),
(713,860,cs),
(60,109,l),
(184,0,l)
);
}
);
width = 1134;
},
{
associatedMasterId = m01;
layerId = "A6E942E1-966B-4AF0-85AB-A2873B71F9B8";
name = "May 14, 24 at 22:21";
shapes = (
{
closed = 1;
nodes = (
(495,124,l),
(793,455,ls),
(970,651,o),
(1181,868,o),
(1171,1125,cs),
(1163,1337,o),
(1006,1514,o),
(720,1514,cs),
(367,1514,o),
(226,1272,o),
(226,1054,c),
(419,1054,l),
(419,1232,o),
(557,1350,o),
(712,1350,cs),
(884,1350,o),
(988,1256,o),
(988,1095,cs),
(988,903,o),
(768,680,o),
(613,512,cs),
(255,124,l)
);
},
{
closed = 1;
nodes = (
(364,168,l),
(255,124,l),
(255,0,l),
(1187,0,l),
(1187,168,l)
);
}
);
width = 1400;
},
{
associatedMasterId = m01;
layerId = "D74DA95B-5503-4672-8B5C-63FF04CF6F1C";
name = "May 14, 24 at 23:18";
shapes = (
{
closed = 1;
nodes = (
(385,0,l),
(1038,751,l),
(908,865,l),
(255,114,l)
);
},
{
closed = 1;
nodes = (
(385,166,l),
(385,0,l),
(1229,0,l),
(1229,166,l)
);
},
{
closed = 1;
nodes = (
(1038,751,l),
(1139,911,o),
(1228,1014,o),
(1228,1150,cs),
(1228,1327,o),
(1088,1500,o),
(734,1500,cs),
(324,1500,l),
(324,1488,l),
(377,1332,l),
(509,1332,o),
(641,1334,o),
(773,1332,cs),
(929,1330,o),
(1041,1249,o),
(1046,1153,cs),
(1053,1018,o),
(999,1013,o),
(908,865,c)
);
}
);
width = 1400;
},
{
associatedMasterId = m01;
layerId = "78744E8F-B11B-42B6-A8A3-ED2DD57DC59E";
name = "May 15, 24 at 16:10";
shapes = (
{
closed = 1;
nodes = (
(200,0,l),
(853,751,ls),
(962,876,o),
(1061,1007,o),
(1061,1150,cs),
(1061,1384,o),
(894,1500,o),
(609,1500,cs),
(139,1500,l),
(139,1488,l),
(192,1332,l),
(324,1332,o),
(438,1334,o),
(638,1332,cs),
(809,1330,o),
(876,1250,o),
(876,1149,cs),
(876,1054,o),
(817,973,o),
(723,865,cs),
(70,114,l)
);
},
{
closed = 1;
nodes = (
(200,168,l),
(200,0,l),
(1044,0,l),
(1044,168,l)
);
}
);
width = 1179;
},
{
associatedMasterId = m01;
layerId = "1A3AA029-4D22-48F9-A868-40D5CB074BF3";
name = "May 20, 24 at 23:25";
shapes = (
{
closed = 1;
nodes = (
(170,0,l),
(802,724,ls),
(914,853,o),
(1011,989,o),
(1011,1144,cs),
(1011,1338,o),
(877,1500,o),
(569,1500,cs),
(97,1500,l),
(97,1488,l),
(150,1332,l),
(282,1332,o),
(386,1334,o),
(586,1332,cs),
(759,1330,o),
(828,1244,o),
(828,1143,cs),
(828,1044,o),
(779,964,o),
(693,865,cs),
(40,114,l)
);
},
{
closed = 1;
nodes = (
(170,167,l),
(170,0,l),
(995,0,l),
(995,167,l)
);
}
);
width = 1087;
},
{
associatedMasterId = m01;
layerId = "BF50347F-45F5-4DAF-8790-6604E600EB40";
name = "May 20, 24 at 23:25";
shapes = (
{
closed = 1;
nodes = (
(140,1488,l),
(195,1338,l),
(327,1338,o),
(481,1340,o),
(613,1338,cs),
(775,1336,o),
(847,1264,o),
(852,1168,cs),
(859,1035,o),
(684,944,o),
(477,804,cs),
(230,637,o),
(74,529,o),
(74,342,cs),
(74,149,o),
(197,0,o),
(475,0,cs),
(994,0,l),
(994,162,l),
(828,162,o),
(658,160,o),
(492,162,cs),
(326,164,o),
(247,239,o),
(250,351,cs),
(253,476,o),
(426,569,o),
(614,697,cs),
(793,819,o),
(1028,935,o),
(1028,1171,cs),
(1028,1340,o),
(927,1500,o),
(574,1500,cs),
(140,1500,l)
);
}
);
width = 1134;
},
{
layerId = m002;
shapes = (
{
closed = 1;
nodes = (
(1154,0,l),
(1154,381,l),
(707,381,l),
(940,667,ls),
(1074,832,o),
(1156,974,o),
(1156,1126,cs),
(1156,1368,o),
(966,1500,o),
(664,1500,cs),
(75,1500,l),
(75,1480,l),
(169,1110,l),
(541,1110,ls),
(629,1110,o),
(722,1112,o),
(722,1051,cs),
(722,1002,o),
(684,955,o),
(625,882,cs),
(36,155,l),
(220,0,l)
);
}
);
width = 1250;
},
{
layerId = m003;
shapes = (
{
closed = 1;
nodes = (
(985,0,l),
(985,30,l),
(106,30,l),
(725,744,ls),
(833,869,o),
(977,1012,o),
(977,1199,cs),
(977,1351,o),
(876,1500,o),
(556,1500,cs),
(113,1500,l),
(113,1496,l),
(123,1470,l),
(561,1470,ls),
(846,1470,o),
(945,1340,o),
(945,1199,cs),
(945,1020,o),
(814,893,o),
(698,759,cs),
(58,19,l),
(80,0,l)
);
}
);
width = 1099;
},
{
associatedMasterId = m002;
layerId = "334B127A-BA95-4B75-983D-FB01D2B9DA94";
name = "Jun 2, 24 at 23:22";
shapes = (
{
closed = 1;
nodes = (
(471,134,l),
(922,651,ls),
(1084,836,o),
(1163,970,o),
(1163,1122,cs),
(1163,1364,o),
(979,1500,o),
(677,1500,cs),
(39,1500,l),
(39,1480,l),
(133,1110,l),
(240,1110,o),
(347,1110,o),
(454,1110,cs),
(642,1110,o),
(730,1119,o),
(730,1058,cs),
(730,1005,o),
(661,936,o),
(609,877,cs),
(-5,171,l),
(191,0,l)
);
},
{
closed = 1;
nodes = (
(1165,0,l),
(1165,391,l),
(191,391,l),
(191,0,l)
);
}
);
width = 1169;
},
{
associatedMasterId = m002;
layerId = "A0574961-9649-4A61-9A38-90B762BD7293";
name = "Jun 6, 24 at 21:45";
shapes = (
{
closed = 1;
nodes = (
(551,135,l),
(984,667,ls),
(1118,832,o),
(1200,974,o),
(1200,1126,cs),
(1200,1368,o),
(1010,1500,o),
(708,1500,cs),
(93,1500,l),
(93,1480,l),
(187,1110,l),
(491,1110,ls),
(646,1110,o),
(742,1114,o),
(762,1067,cs),
(782,1020,o),
(722,955,o),
(663,882,cs),
(74,155,l),
(258,0,l)
);
},
{
closed = 1;
nodes = (
(1232,0,l),
(1232,391,l),
(258,391,l),
(258,0,l)
);
}
);
width = 1372;
},
{
associatedMasterId = m002;
layerId = "F8822DA8-F655-4924-8B96-BE2250BBDE6E";
name = "Jun 7, 24 at 22:03";
shapes = (
{
closed = 1;
nodes = (
(541,135,l),
(974,667,ls),
(1108,832,o),
(1184,974,o),
(1184,1126,cs),
(1184,1368,o),
(994,1500,o),
(692,1500,cs),
(103,1500,l),
(103,1480,l),
(197,1110,l),
(481,1110,ls),
(636,1110,o),
(726,1114,o),
(746,1067,cs),
(766,1020,o),
(712,955,o),
(653,882,cs),
(64,155,l),
(248,0,l)
);
},
{
closed = 1;
nodes = (
(1182,0,l),
(1182,381,l),
(248,381,l),
(248,0,l)
);
}
);
width = 1296;
},
{
associatedMasterId = m01;
layerId = "9CEE3AE2-7128-4F98-8AE9-54FB294C33EB";
name = "Jun 7, 24 at 22:03";
shapes = (
{
closed = 1;
nodes = (
(260,75,l),
(826,724,ls),
(938,853,o),
(1029,995,o),
(1029,1150,cs),
(1029,1344,o),
(913,1500,o),
(593,1500,cs),
(121,1500,l),
(121,1488,l),
(176,1338,l),
(610,1338,ls),
(793,1338,o),
(853,1250,o),
(853,1149,cs),
(853,1050,o),
(809,959,o),
(723,860,cs),
(70,109,l),
(194,0,l)
);
},
{
closed = 1;
nodes = (
(1039,0,l),
(1039,164,l),
(194,164,l),
(194,0,l)
);
}
);
width = 1169;
},
{
associatedMasterId = m003;
layerId = "2F7210D8-A733-40DB-BB17-D5FF8B86C74E";
name = "Jun 7, 24 at 22:03";
shapes = (
{
closed = 1;
nodes = (
(116,9,l),
(753,744,ls),
(861,869,o),
(1005,1012,o),
(1005,1199,cs),
(1005,1351,o),
(904,1500,o),
(584,1500,cs),
(141,1500,l),
(141,1496,l),
(151,1470,l),
(589,1470,ls),
(874,1470,o),
(973,1340,o),
(973,1199,cs),
(973,1020,o),
(842,893,o),
(726,759,cs),
(86,19,l),
(108,0,l)
);
},
{
closed = 1;
nodes = (
(1013,0,l),
(1013,30,l),
(108,30,l),
(108,0,l)
);
}
);
width = 1139;
},
{
associatedMasterId = m002;
layerId = "C2B33B8A-F760-47C1-AE05-960C35C56201";
name = "Jun 7, 24 at 22:04";
shapes = (
{
closed = 1;
nodes = (
(1182,0,l),
(1182,381,l),
(741,381,l),
(974,667,ls),
(1108,832,o),
(1184,974,o),
(1184,1126,cs),
(1184,1368,o),
(994,1500,o),
(692,1500,cs),
(103,1500,l),
(103,1480,l),
(197,1110,l),
(481,1110,ls),
(636,1110,o),
(726,1114,o),
(746,1067,cs),
(766,1020,o),
(712,955,o),
(653,882,cs),
(64,155,l),
(248,0,l)
);
}
);
visible = 1;
width = 1296;
}
);
unicode = 50;
}
{
glyphname = four;
layers = (
{
associatedMasterId = m01;
layerId = "19DD1A0B-C99B-47EA-B481-BFBB65D22447";
name = "May 14, 24 at 23:35";
shapes = (
{
closed = 1;
nodes = (
(804,0,l),
(986,0,l),
(986,1500,l),
(804,1500,l)
);
},
{
closed = 1;
nodes = (
(153,551,l),
(153,383,l),
(1217,383,l),
(1217,551,l)
);
},
{
closed = 1;
nodes = (
(928,1500,l),
(724,1500,l),
(153,551,l),
(313,461,l)
);
}
);
width = 1400;
},
{
associatedMasterId = m01;
layerId = "A72C6DF9-08EC-4FB5-910B-6716100D18DE";
name = "May 14, 24 at 23:37";
shapes = (
{
closed = 1;
nodes = (
(804,0,l),
(986,0,l),
(986,1500,l),
(804,1500,l)
);
},
{
closed = 1;
nodes = (
(153,551,l),
(153,383,l),
(1217,383,l),
(1217,551,l)
);
},
{
closed = 1;
nodes = (
(258,383,l),
(929,1455,l),
(782,1547,l),
(112,474,l)
);
}
);
width = 1400;
},
{
associatedMasterId = m01;
layerId = "0A355275-D024-45B3-9AE5-0D7FB8F79164";
name = "May 14, 24 at 23:39";
shapes = (
{
closed = 1;
nodes = (
(766,1435,l),
(766,0,l),
(948,0,l),
(948,1500,l),
(752,1500,l)
);
},
{
closed = 1;
nodes = (
(258,551,l),
(258,383,l),
(1177,383,l),
(1177,551,l)
);
},
{
closed = 1;
nodes = (
(258,383,l),
(900,1408,l),
(753,1500,l),
(112,474,l)
);
}
);
width = 1400;
},
{
associatedMasterId = m01;
layerId = "3DD24C0C-34AE-47A9-A121-7B5ED8ADB801";
name = "4";
shapes = (
{
closed = 1;
nodes = (
(766,1435,l),
(766,0,l),
(948,0,l),
(948,1500,l),
(752,1500,l)
);
},
{
closed = 1;
nodes = (
(258,551,l),
(258,383,l),
(1177,383,l),
(1177,551,l)
);
},
{
closed = 1;
nodes = (
(258,383,l),
(900,1408,l),
(753,1500,l),
(112,474,l)
);
}
);
width = 1400;
},
{
associatedMasterId = m01;
layerId = "1C3ED584-E3BD-4F48-91FF-B02F2BB7E4BD";
name = "4";
shapes = (
{
closed = 1;
nodes = (
(653,1014,l),
(653,0,l),
(835,0,l),
(835,1014,l)
);
},
{
closed = 1;
nodes = (
(174,545,l),
(174,377,l),
(1064,377,l),
(1064,545,l)
);
},
{
closed = 1;
nodes = (
(174,377,l),
(752,1416,l),
(600,1500,l),
(24,460,l)
);
}
);
width = 1172;
},
{
layerId = m01;
name = Regular;
shapes = (
{
closed = 1;
nodes = (
(1126,429,l),
(1126,591,l),
(194,591,l),
(220,550,l),
(668,1512,l),
(668,1524,l),
(490,1524,l),
(12,499,l),
(164,429,l)
);
},
{
closed = 1;
nodes = (
(887,0,l),
(887,1134,l),
(714,1134,l),
(714,0,l)
);
}
);
width = 1186;
},
{
associatedMasterId = m01;
layerId = "313B6E18-8E3C-499F-B46C-391E82F2CD00";
name = "4";
shapes = (
{
closed = 1;
nodes = (
(651,1014,l),
(651,0,l),
(833,0,l),
(833,1014,l)
);
},
{
closed = 1;
nodes = (
(142,551,l),
(142,383,l),
(1112,383,l),
(1112,551,l)
);
},
{
closed = 1;
nodes = (
(142,383,l),
(785,1408,l),
(638,1500,l),
(-3,474,l)
);
}
);
width = 1180;
},
{
associatedMasterId = m01;
layerId = "09A058AA-5986-4201-8A46-F7F80EBE8561";
name = "May 15, 24 at 13:32";
shapes = (
{
closed = 1;
nodes = (
(639,1500,l),
(639,0,l),
(821,0,l),
(821,1500,l)
);
},
{
closed = 1;
nodes = (
(105,635,l),
(105,467,l),
(1009,467,l),
(1009,635,l)
);
},
{
closed = 1;
nodes = (
(562,1500,l),
(-36,572,l),
(105,467,l),
(757,1488,l),
(757,1500,l)
);
}
);
width = 1161;
},
{
associatedMasterId = m01;
layerId = "9E5C5EBF-F766-40DF-BFA3-120142142E0D";
name = "May 15, 24 at 13:34";
shapes = (
{
closed = 1;
nodes = (
(541,1100,l),
(541,0,l),
(723,0,l),
(723,1100,l)
);
},
{
closed = 1;
nodes = (
(82,595,l),
(82,427,l),
(919,427,l),
(919,595,l)
);
},
{
closed = 1;
nodes = (
(353,1500,l),
(-86,508,l),
(82,427,l),
(533,1488,l),
(533,1500,l)
);
}
);
width = 1161;
},
{
associatedMasterId = m01;
layerId = "222DC435-7DA0-4A7E-95B0-4F68A5BB20D6";
name = "May 15, 24 at 13:36";
shapes = (
{
closed = 1;
nodes = (
(541,1100,l),
(541,0,l),
(723,0,l),
(723,1100,l)
);
},
{
closed = 1;
nodes = (
(82,595,l),
(82,427,l),
(919,427,l),
(919,595,l)
);
},
{
closed = 1;
nodes = (
(353,1500,l),
(-86,508,l),
(82,427,l),
(533,1488,l),
(533,1500,l)
);
}
);
width = 1161;
},
{
associatedMasterId = m01;
layerId = "509936F5-EA72-4369-937A-8A2316DCEB14";
name = "4";
shapes = (
{
closed = 1;
nodes = (
(702,1101,l),
(702,0,l),
(884,0,l),
(884,1101,l)
);
},
{
closed = 1;
nodes = (
(180,595,l),
(180,427,l),
(1084,427,l),
(1084,595,l)
);
},
{
closed = 1;
nodes = (
(180,427,l),
(785,1512,l),
(785,1524,l),
(591,1524,l),
(30,509,l)
);
}
);
width = 1200;
},
{
associatedMasterId = m01;
layerId = "6CA8B8AE-5454-4B50-9ABF-23C6BA8D8192";
name = "May 22, 24 at 12:40";
shapes = (
{
closed = 1;
nodes = (
(669,1101,l),
(669,0,l),
(841,0,l),
(841,1101,l)
);
},
{
closed = 1;
nodes = (
(181,591,l),
(181,429,l),
(1075,429,l),
(1075,591,l)
);
},
{
closed = 1;
nodes = (
(181,429,l),
(640,1512,l),
(640,1524,l),
(470,1524,l),
(32,492,l)
);
}
);
width = 1165;
},
{
associatedMasterId = m01;
layerId = "364778AF-E86F-42CD-B04C-24EDC5CFD041";
name = "May 22, 24 at 12:48";
shapes = (
{
closed = 1;
nodes = (
(739,1524,l),
(739,0,l),
(911,0,l),
(911,1524,l)
);
},
{
closed = 1;
nodes = (
(183,593,l),
(183,429,l),
(1144,429,l),
(1144,593,l)
);
},
{
closed = 1;
nodes = (
(183,429,l),
(661,1451,l),
(503,1524,l),
(25,502,l)
);
},
{
closed = 1;
nodes = (
(503,1524,l),
(503,1360,l),
(895,1360,l),
(895,1524,l)
);
}
);
width = 1220;
},
{
associatedMasterId = m01;
layerId = "39F4B0EB-0856-455A-9DBB-824C0021D5F8";
name = "May 22, 24 at 12:58";
shapes = (
{
closed = 1;
nodes = (
(739,1134,l),
(739,0,l),
(912,0,l),
(912,1134,l)
);
},
{
closed = 1;
nodes = (
(183,591,l),
(183,429,l),
(1144,429,l),
(1144,591,l)
);
},
{
closed = 1;
nodes = (
(183,429,l),
(689,1512,l),
(689,1524,l),
(503,1524,l),
(25,502,l)
);
}
);
width = 1220;
},
{
associatedMasterId = m01;
layerId = "F399859E-7C30-44B9-8FF1-216DD45F6FDE";
name = "May 22, 24 at 14:50";
shapes = (
{
closed = 1;
nodes = (
(731,1134,l),
(731,0,l),
(904,0,l),
(904,1134,l)
);
},
{
closed = 1;
nodes = (
(186,591,l),
(186,429,l),
(1127,429,l),
(1127,591,l)
);
},
{
closed = 1;
nodes = (
(460,1500,l),
(32,496,l),
(186,429,l),
(638,1488,l),
(638,1500,l)
);
}
);
width = 1213;
},
{
layerId = m003;
name = Regular;
shapes = (
{
closed = 1;
nodes = (
(1031,495,l),
(1031,525,l),
(68,525,l),
(82,502,l),
(545,1496,l),
(545,1500,l),
(512,1500,l),
(50,509,l),
(79,495,l)
);
},
{
closed = 1;
nodes = (
(753,0,l),
(753,1134,l),
(721,1134,l),
(721,0,l)
);
}
);
width = 1091;
},
{
associatedMasterId = m002;
layerId = "036919DA-5906-4593-9512-D9CACD07C8A3";
name = "Jun 3, 24 at 10:07";
shapes = (
{
closed = 1;
nodes = (
(386,327,l),
(803,1488,l),
(803,1500,l),
(443,1500,l),
(27,396,l),
(215,327,l)
);
},
{
closed = 1;
nodes = (
(1282,327,l),
(1282,677,l),
(215,677,l),
(215,327,l)
);
},
{
closed = 1;
nodes = (
(1096,0,l),
(1096,1120,l),
(747,1120,l),
(747,0,l)
);
}
);
width = 1371;
},
{
associatedMasterId = m002;
layerId = "EF740059-D2A5-44A2-BF10-2DC1E4041092";
name = "Jun 6, 24 at 15:50";
shapes = (
{
closed = 1;
nodes = (
(377,327,l),
(839,1488,l),
(839,1500,l),
(465,1500,l),
(26,410,l),
(231,327,l)
);
},
{
closed = 1;
nodes = (
(1286,327,l),
(1286,677,l),
(231,677,l),
(231,327,l)
);
},
{
closed = 1;
nodes = (
(1100,0,l),
(1100,1120,l),
(766,1120,l),
(766,0,l)
);
}
);
width = 1385;
},
{
associatedMasterId = m002;
layerId = "A59D5D2B-05C7-41E6-848B-E2D94E7FDC07";
name = "Jun 6, 24 at 15:51";
shapes = (
{
closed = 1;
nodes = (
(377,327,l),
(839,1488,l),
(839,1500,l),
(465,1500,l),
(26,410,l),
(231,327,l)
);
},
{
closed = 1;
nodes = (
(1286,327,l),
(1286,677,l),
(231,677,l),
(231,327,l)
);
},
{
closed = 1;
nodes = (
(1100,0,l),
(1100,1120,l),
(766,1120,l),
(766,0,l)
);
},
{
closed = 1;
nodes = (
(9,416,l),
(382,265,l),
(876,1490,l),
(876,1500,l),
(446,1500,l)
);
}
);
width = 1385;
},
{
associatedMasterId = m002;
layerId = "6BC2BB7C-439F-4C2A-B5F4-7ADA438F4117";
name = "Jun 6, 24 at 22:15";
shapes = (
{
closed = 1;
nodes = (
(403,337,l),
(851,1480,l),
(851,1500,l),
(491,1500,l),
(37,424,l),
(240,337,l)
);
},
{
closed = 1;
nodes = (
(1291,337,l),
(1291,687,l),
(240,687,l),
(240,337,l)
);
},
{
closed = 1;
nodes = (
(1085,0,l),
(1085,1117,l),
(736,1117,l),
(736,0,l)
);
}
);
width = 1369;
},
{
layerId = m002;
name = Ultra;
shapes = (
{
closed = 1;
nodes = (
(1268,338,l),
(1268,677,l),
(471,677,l),
(498,636,l),
(855,1480,l),
(855,1500,l),
(484,1500,l),
(14,442,l),
(248,338,l)
);
},
{
closed = 1;
nodes = (
(1071,0,l),
(1071,1117,l),
(727,1117,l),
(727,0,l)
);
}
);
width = 1342;
},
{
associatedMasterId = m002;
layerId = "A2292D7E-8F77-4C58-A1F4-7A9198757F45";
name = "Jun 7, 24 at 22:47";
shapes = (
{
closed = 1;
nodes = (
(379,338,l),
(861,1480,l),
(861,1500,l),
(490,1500,l),
(20,442,l),
(254,338,l)
);
},
{
closed = 1;
nodes = (
(1274,338,l),
(1274,677,l),
(244,677,l),
(255,338,l)
);
},
{
closed = 1;
nodes = (
(1077,0,l),
(1077,1117,l),
(733,1117,l),
(733,0,l)
);
}
);
width = 1352;
},
{
associatedMasterId = m01;
layerId = "6D9D40AA-5C41-426A-8AEF-553DDA1411A0";
name = "Jun 7, 24 at 22:48";
shapes = (
{
closed = 1;
nodes = (
(203,457,l),
(694,1512,l),
(694,1524,l),
(516,1524,l),
(38,499,l),
(190,429,l)
);
},
{
closed = 1;
nodes = (
(1151,429,l),
(1151,591,l),
(190,591,l),
(190,429,l)
);
},
{
closed = 1;
nodes = (
(913,0,l),
(913,1134,l),
(740,1134,l),
(740,0,l)
);
}
);
width = 1239;
},
{
associatedMasterId = m003;
layerId = "47D7C67C-BB1B-4DB2-90D4-2B3D338D6962";
name = "Jun 7, 24 at 22:48";
shapes = (
{
closed = 1;
nodes = (
(115,508,l),
(575,1496,l),
(575,1500,l),
(542,1500,l),
(80,509,l),
(109,495,l)
);
},
{
closed = 1;
nodes = (
(1061,495,l),
(1061,525,l),
(109,525,l),
(109,495,l)
);
},
{
closed = 1;
nodes = (
(783,0,l),
(783,1134,l),
(751,1134,l),
(751,0,l)
);
}
);
width = 1135;
}
);
unicode = 52;
}
{
glyphname = five;
layers = (
{
layerId = m01;
shapes = (
{
closed = 1;
nodes = (
(484,0,ls),
(828,0,o),
(978,191,o),
(978,426,cs),
(978,656,o),
(805,852,o),
(471,852,cs),
(239,852,l),
(284,807,l),
(284,1383,l),
(239,1338,l),
(837,1338,l),
(892,1488,l),
(892,1500,l),
(112,1500,l),
(112,690,l),
(462,690,ls),
(691,690,o),
(806,591,o),
(806,426,cs),
(806,261,o),
(691,162,o),
(462,162,cs),
(92,162,l),
(92,0,l)
);
}
);
width = 1042;
},
{
associatedMasterId = m01;
layerId = "F330B81C-3BB6-4172-984F-4BB1DB85428F";
name = "May 15, 24 at 12:20";
shapes = (
{
closed = 1;
nodes = (
(295,674,l),
(465,674,l),
(517,1490,l),
(335,1490,l)
);
},
{
closed = 1;
nodes = (
(335,1490,l),
(335,1322,l),
(1084,1322,l),
(1084,1490,l)
);
},
{
closed = 1;
nodes = (
(344,37,o),
(487,-24,o),
(679,-24,cs),
(892,-24,o),
(1046,68,o),
(1127,201,cs),
(1227,365,o),
(1220,592,o),
(1097,750,cs),
(968,915,o),
(679,963,o),
(473,809,c),
(465,674,l),
(657,808,o),
(856,763,o),
(955,632,cs),
(1026,538,o),
(1031,390,o),
(971,293,cs),
(919,210,o),
(818,155,o),
(679,155,cs),
(539,155,o),
(423,220,o),
(367,296,c),
(228,176,l)
);
}
);
width = 1400;
},
{
layerId = m002;
shapes = (
{
closed = 1;
nodes = (
(563,0,ls),
(870,0,o),
(1103,159,o),
(1103,478,cs),
(1103,801,o),
(870,956,o),
(563,956,cs),
(435,956,l),
(480,911,l),
(480,1155,l),
(435,1110,l),
(940,1110,l),
(1034,1480,l),
(1034,1500,l),
(100,1500,l),
(100,606,l),
(506,606,ls),
(621,606,o),
(721,578,o),
(721,478,cs),
(721,376,o),
(621,350,o),
(506,350,cs),
(100,350,l),
(100,0,l)
);
}
);
width = 1167;
},
{
layerId = m003;
shapes = (
{
closed = 1;
nodes = (
(443,0,ls),
(748,0,o),
(913,170,o),
(913,397,cs),
(913,624,o),
(748,795,o),
(443,795,cs),
(131,795,l),
(156,770,l),
(156,1495,l),
(131,1470,l),
(830,1470,l),
(840,1496,l),
(840,1500,l),
(124,1500,l),
(124,765,l),
(445,765,ls),
(751,765,o),
(881,581,o),
(881,397,cs),
(881,213,o),
(751,29,o),
(445,29,cs),
(116,29,l),
(116,0,l)
);
}
);
width = 1008;
},
{
associatedMasterId = m002;
layerId = "14E21E0A-DC9E-4C41-AE24-7F63902D073C";
name = "Jun 6, 24 at 21:48";
shapes = (
{
closed = 1;
nodes = (
(617,0,ls),
(915,0,o),
(1133,179,o),
(1133,478,cs),
(1133,781,o),
(915,956,o),
(617,956,cs),
(114,956,l),
(114,606,l),
(520,606,ls),
(635,606,o),
(735,578,o),
(735,478,cs),
(735,376,o),
(635,350,o),
(520,350,cs),
(114,350,l),
(114,0,l)
);
},
{
closed = 1;
nodes = (
(514,606,l),
(514,1500,l),
(114,1500,l),
(114,606,l)
);
},
{
closed = 1;
nodes = (
(960,1110,l),
(1054,1480,l),
(1054,1500,l),
(114,1500,l),
(114,1110,l)
);
}
);
width = 1201;
},
{
associatedMasterId = m002;
layerId = "43471663-558A-4FD3-94E5-A18EFCD5CB7C";
name = "Jun 7, 24 at 22:48";
shapes = (
{
closed = 1;
nodes = (
(581,0,ls),
(888,0,o),
(1121,159,o),
(1121,478,cs),
(1121,801,o),
(888,956,o),
(581,956,cs),
(118,956,l),
(118,606,l),
(524,606,ls),
(639,606,o),
(739,578,o),
(739,478,cs),
(739,376,o),
(639,350,o),
(524,350,cs),
(118,350,l),
(118,0,l)
);
},
{
closed = 1;
nodes = (
(498,606,l),
(498,1500,l),
(118,1500,l),
(118,606,l)
);
},
{
closed = 1;
nodes = (
(958,1110,l),
(1052,1480,l),
(1052,1500,l),
(118,1500,l),
(118,1110,l)
);
}
);
width = 1211;
},
{
associatedMasterId = m01;
layerId = "130E0467-E246-4389-B0D7-DDB5288C1F43";
name = "Jun 7, 24 at 22:48";
shapes = (
{
closed = 1;
nodes = (
(520,0,ls),
(864,0,o),
(1014,191,o),
(1014,426,cs),
(1014,656,o),
(841,852,o),
(507,852,cs),
(148,852,l),
(148,690,l),
(498,690,ls),
(727,690,o),
(842,591,o),
(842,426,cs),
(842,261,o),
(727,162,o),
(498,162,cs),
(128,162,l),
(128,0,l)
);
},
{
closed = 1;
nodes = (
(320,690,l),
(320,1500,l),
(148,1500,l),
(148,690,l)
);
},
{
closed = 1;
nodes = (
(873,1338,l),
(928,1488,l),
(928,1500,l),
(148,1500,l),
(148,1338,l)
);
}
);
width = 1114;
},
{
associatedMasterId = m003;
layerId = "54C3BCB1-EF92-46F1-BA8B-BD5144FD8832";
name = "Jun 7, 24 at 22:48";
shapes = (
{
closed = 1;
nodes = (
(459,0,ls),
(759,0,o),
(924,170,o),
(924,397,cs),
(924,624,o),
(759,795,o),
(459,795,cs),
(140,795,l),
(140,765,l),
(461,765,ls),
(762,765,o),
(892,581,o),
(892,397,cs),
(892,213,o),
(762,29,o),
(461,29,cs),
(132,29,l),
(132,0,l)
);
},
{
closed = 1;
nodes = (
(172,765,l),
(172,1500,l),
(140,1500,l),
(140,765,l)
);
},
{
closed = 1;
nodes = (
(826,1470,l),
(836,1496,l),
(836,1500,l),
(140,1500,l),
(140,1470,l)
);
}
);
width = 1024;
}
);
unicode = 53;
}
{
glyphname = six;
layers = (
{
associatedMasterId = m01;
layerId = "BC2425BA-3331-462B-B12E-7EED0A911A55";
name = "May 15, 24 at 12:53";
shapes = (
{
closed = 1;
nodes = (
(989,-24,o),
(1148,230,o),
(1148,487,cs),
(1148,749,o),
(989,998,o),
(694,998,cs),
(384,998,o),
(240,749,o),
(240,487,cs),
(240,230,o),
(384,-24,o),
(694,-24,cs)
);
},
{
closed = 1;
nodes = (
(497,141,o),
(418,308,o),
(418,487,cs),
(418,671,o),
(497,833,o),
(694,833,cs),
(881,833,o),
(970,671,o),
(970,487,cs),
(970,308,o),
(881,141,o),
(694,141,cs)
);
},
{
closed = 1;
nodes = (
(638,1500,l),
(290,739,l),
(465,739,l),
(827,1488,l),
(827,1500,l)
);
}
);
width = 1400;
},
{
associatedMasterId = m01;
layerId = "8FB33B38-DA19-4129-ACE2-2AD7AFA29B63";
name = "May 15, 24 at 13:18";
shapes = (
{
closed = 1;
nodes = (
(1206,1105,l),
(1179,1354,o),
(1014,1514,o),
(743,1514,cs),
(546,1514,o),
(420,1435,o),
(323,1287,cs),
(141,1010,o),
(118,422,o),
(317,164,cs),
(420,30,o),
(586,-24,o),
(717,-24,cs),
(1021,-24,o),
(1212,200,o),
(1212,476,cs),
(1212,750,o),
(1026,962,o),
(744,962,cs),
(578,962,o),
(438,891,o),
(358,765,c),
(346,1006,o),
(469,1350,o),
(731,1350,cs),
(902,1350,o),
(1009,1256,o),
(1038,1105,c)
);
},
{
closed = 1;
nodes = (
(397,669,o),
(545,798,o),
(731,799,cs),
(927,800,o),
(1042,652,o),
(1041,474,cs),
(1040,289,o),
(917,140,o),
(725,140,cs),
(511,140,o),
(397,293,o),
(397,462,cs)
);
}
);
width = 1400;
},
{
associatedMasterId = m01;
layerId = "97F31BCD-9C75-4C1A-843A-7EE3E6A932BE";
name = "6";
shapes = (
{
closed = 1;
nodes = (
(650,1500,ls),
(451,1500,o),
(295,1355,o),
(212,1157,cs),
(86,856,o),
(100,443,o),
(250,216,c),
(428,216,l),
(252,536,o),
(269,853,o),
(394,1129,cs),
(447,1245,o),
(543,1332,o),
(659,1332,cs),
(896,1332,l),
(949,1488,l),
(949,1500,l)
);
},
{
closed = 1;
nodes = (
(909,-24,o),
(1068,199,o),
(1068,413,cs),
(1068,627,o),
(909,850,o),
(637,850,cs),
(365,850,o),
(206,627,o),
(206,413,cs),
(206,199,o),
(365,-24,o),
(637,-24,cs)
);
},
{
closed = 1;
nodes = (
(470,141,o),
(384,268,o),
(384,413,cs),
(384,558,o),
(470,685,o),
(637,685,cs),
(804,685,o),
(890,558,o),
(890,413,cs),
(890,268,o),
(804,141,o),
(637,141,cs)
);
}
);
width = 1199;
},
{
associatedMasterId = m01;
layerId = "C61FEFB6-4FE0-4F97-B7A7-A268A4CC7617";
name = "May 15, 24 at 13:57";
shapes = (
{
closed = 1;
nodes = (
(490,1500,ls),
(291,1500,o),
(142,1371,o),
(142,1157,cs),
(142,295,ls),
(142,130,o),
(235,0,o),
(415,0,cs),
(617,0,ls),
(969,0,o),
(1111,191,o),
(1111,426,cs),
(1111,656,o),
(946,852,o),
(604,852,cs),
(324,852,l),
(324,1129,ls),
(324,1257,o),
(383,1332,o),
(499,1332,cs),
(896,1332,l),
(949,1488,l),
(949,1500,l)
);
},
{
closed = 1;
nodes = (
(372,168,o),
(324,220,o),
(324,339,cs),
(324,684,l),
(595,684,ls),
(823,684,o),
(929,584,o),
(929,426,cs),
(929,268,o),
(823,168,o),
(595,168,cs),
(487,168,ls)
);
}
);
width = 1199;
},
{
associatedMasterId = m01;
layerId = "E24DE58B-5AB4-459F-9F25-09F63B84A342";
name = "May 15, 24 at 14:03";
shapes = (
{
closed = 1;
nodes = (
(729,1500,ls),
(493,1500,o),
(355,1387,o),
(256,1191,cs),
(109,900,o),
(88,458,o),
(222,223,cs),
(298,90,o),
(450,-24,o),
(637,-24,cs),
(909,-24,o),
(1068,199,o),
(1068,413,cs),
(1068,627,o),
(909,850,o),
(637,850,cs),
(487,850,o),
(386,780,o),
(310,674,c),
(307,820,o),
(351,991,o),
(421,1125,cs),
(494,1265,o),
(585,1332,o),
(744,1332,cs),
(926,1332,l),
(979,1488,l),
(979,1500,l)
);
},
{
closed = 1;
nodes = (
(460,141,o),
(364,268,o),
(364,413,cs),
(364,558,o),
(460,685,o),
(627,685,cs),
(794,685,o),
(890,558,o),
(890,413,cs),
(890,268,o),
(794,141,o),
(627,141,cs)
);
}
);
width = 1199;
},
{
associatedMasterId = m01;
layerId = "2CC8CA97-DE9B-4F62-BE3B-241B99F211D4";
name = "May 15, 24 at 21:14";
shapes = (
{
closed = 1;
nodes = (
(650,1500,ls),
(248,1500,o),
(74,1254,o),
(74,680,cs),
(74,248,o),
(239,-24,o),
(580,-24,cs),
(880,-24,o),
(1049,197,o),
(1049,433,cs),
(1049,685,o),
(878,896,o),
(593,896,cs),
(441,896,o),
(314,806,o),
(252,713,c),
(252,1123,o),
(345,1327,o),
(645,1332,cs),
(760,1334,o),
(804,1332,o),
(869,1332,c),
(922,1488,l),
(922,1500,l)
);
},
{
closed = 1;
nodes = (
(397,144,o),
(291,287,o),
(291,436,cs),
(291,585,o),
(397,728,o),
(579,728,cs),
(761,728,o),
(867,585,o),
(867,436,cs),
(867,287,o),
(761,144,o),
(579,144,cs)
);
}
);
width = 1117;
},
{
associatedMasterId = m01;
layerId = "765F445D-34A5-4995-A9D6-A87F0EC6C667";
name = "May 15, 24 at 21:19";
shapes = (
{
closed = 1;
nodes = (
(650,1500,ls),
(237,1500,o),
(74,1247,o),
(74,673,cs),
(74,207,o),
(255,-24,o),
(574,-24,cs),
(874,-24,o),
(1049,197,o),
(1049,433,cs),
(1049,685,o),
(878,896,o),
(593,896,cs),
(440,896,o),
(313,806,o),
(251,713,c),
(251,1116,o),
(345,1327,o),
(645,1332,cs),
(760,1334,o),
(804,1332,o),
(869,1332,c),
(922,1488,l),
(922,1500,l)
);
},
{
closed = 1;
nodes = (
(397,144,o),
(291,287,o),
(291,436,cs),
(291,585,o),
(397,728,o),
(579,728,cs),
(761,728,o),
(867,585,o),
(867,436,cs),
(867,287,o),
(761,144,o),
(579,144,cs)
);
}
);
width = 1109;
},
{
layerId = m01;
name = Regular;
shapes = (
{
closed = 1;
nodes = (
(898,-24,o),
(1062,175,o),
(1062,443,cs),
(1062,716,o),
(899,910,o),
(573,910,cs),
(446,910,o),
(335,873,o),
(255,802,c),
(255,956,ls),
(255,1135,o),
(358,1338,o),
(615,1338,cs),
(900,1338,l),
(955,1488,l),
(955,1500,l),
(615,1500,ls),
(244,1500,o),
(80,1207,o),
(80,926,cs),
(80,443,ls),
(80,175,o),
(244,-24,o),
(571,-24,cs)
);
},
{
closed = 1;
nodes = (
(369,143,o),
(254,242,o),
(254,443,cs),
(254,644,o),
(370,743,o),
(567,743,cs),
(765,743,o),
(888,644,o),
(888,443,cs),
(888,242,o),
(765,143,o),
(567,143,cs)
);
}
);
width = 1124;
},
{
associatedMasterId = m01;
layerId = "24CA1520-6E7F-4B99-8804-E78CC5598F63";
name = "May 22, 24 at 11:38";
shapes = (
{
closed = 1;
nodes = (
(659,1500,ls),
(447,1500,o),
(287,1425,o),
(186,1235,cs),
(73,1023,o),
(50,500,o),
(173,238,cs),
(255,63,o),
(412,-24,o),
(587,-24,cs),
(883,-24,o),
(1058,201,o),
(1058,437,cs),
(1058,689,o),
(887,904,o),
(602,904,cs),
(456,904,o),
(323,816,o),
(262,703,c),
(264,912,o),
(284,1092,o),
(365,1207,cs),
(424,1291,o),
(536,1336,o),
(659,1338,cs),
(782,1340,o),
(819,1338,o),
(884,1338,c),
(939,1488,l),
(939,1500,l)
);
},
{
closed = 1;
nodes = (
(400,138,o),
(296,288,o),
(294,440,cs),
(292,592,o),
(400,742,o),
(588,742,cs),
(776,742,o),
(882,592,o),
(882,440,cs),
(882,288,o),
(776,138,o),
(588,138,cs)
);
}
);
width = 1148;
},
{
associatedMasterId = m01;
layerId = "404DB689-AC51-4514-9F29-CAD6AFCAB0A1";
name = "May 22, 24 at 11:38";
shapes = (
{
closed = 1;
nodes = (
(990,1417,l),
(903,1483,o),
(787,1524,o),
(641,1524,cs),
(270,1524,o),
(94,1261,o),
(94,980,cs),
(94,827,o),
(94,673,o),
(94,520,cs),
(94,239,o),
(270,-24,o),
(641,-24,cs),
(1012,-24,o),
(1188,239,o),
(1188,520,cs),
(1188,673,o),
(1188,827,o),
(1188,980,cs),
(1188,1150,o),
(1123,1314,o),
(990,1417,c),
(875,1281,l),
(968,1206,o),
(1013,1088,o),
(1013,980,cs),
(1013,827,o),
(1013,673,o),
(1013,520,cs),
(1013,344,o),
(895,143,o),
(641,143,cs),
(387,143,o),
(269,344,o),
(269,520,cs),
(269,673,o),
(269,827,o),
(269,980,cs),
(269,1156,o),
(387,1357,o),
(641,1357,cs),
(739,1357,o),
(816,1327,o),
(875,1281,c)
);
}
);
width = 1282;
},
{
associatedMasterId = m01;
layerId = "E7270A8F-6466-4AD4-99EB-6EE3B4BE0FF7";
name = "May 22, 24 at 11:42";
shapes = (
{
closed = 1;
nodes = (
(1110,738,o),
(878,897,o),
(707,897,cs),
(496,897,ls),
(325,897,o),
(96,738,o),
(96,454,cs),
(96,184,o),
(259,-24,o),
(603,-24,cs),
(940,-24,o),
(1110,177,o),
(1110,454,cs)
);
},
{
closed = 1;
nodes = (
(397,143,o),
(270,253,o),
(270,454,cs),
(270,655,o),
(398,763,o),
(602,763,cs),
(803,763,o),
(936,655,o),
(936,454,cs),
(936,253,o),
(802,143,o),
(599,143,cs)
);
}
);
width = 1282;
},
{
associatedMasterId = m01;
layerId = "2BAFAA6C-CD2A-4849-BBB2-0CA92DDB5CF3";
name = "May 22, 24 at 11:51";
shapes = (
{
closed = 1;
nodes = (
(270,1524,o),
(94,1261,o),
(94,980,cs),
(94,827,o),
(94,601,o),
(94,448,c),
(268,448,l),
(265,601,o),
(266,827,o),
(269,980,cs),
(272,1159,o),
(384,1358,o),
(641,1362,cs),
(784,1364,o),
(891,1362,o),
(956,1362,c),
(1011,1512,l),
(1011,1524,l),
(641,1524,ls)
);
},
{
closed = 1;
nodes = (
(1096,725,o),
(932,920,o),
(595,920,cs),
(251,920,o),
(94,718,o),
(94,448,cs),
(94,178,o),
(251,-24,o),
(595,-24,cs),
(932,-24,o),
(1096,171,o),
(1096,448,cs)
);
},
{
closed = 1;
nodes = (
(268,649,o),
(389,753,o),
(591,753,cs),
(794,753,o),
(922,649,o),
(922,448,cs),
(922,247,o),
(794,143,o),
(591,143,cs),
(389,143,o),
(268,247,o),
(268,448,cs)
);
}
);
width = 1282;
},
{
associatedMasterId = m01;
layerId = "707C07CE-6EAE-49E6-A2D1-7F69D147BD3B";
name = "May 22, 24 at 11:52";
shapes = (
{
closed = 1;
nodes = (
(258,1524,o),
(94,1261,o),
(94,980,cs),
(94,827,o),
(94,596,o),
(94,443,c),
(268,443,l),
(265,596,o),
(266,827,o),
(269,980,cs),
(272,1159,o),
(372,1358,o),
(629,1362,cs),
(752,1364,o),
(849,1362,o),
(914,1362,c),
(969,1512,l),
(969,1524,l),
(629,1524,ls)
);
},
{
closed = 1;
nodes = (
(1076,715,o),
(912,910,o),
(585,910,cs),
(251,910,o),
(94,708,o),
(94,443,cs),
(94,178,o),
(251,-24,o),
(585,-24,cs),
(912,-24,o),
(1076,171,o),
(1076,443,cs)
);
},
{
closed = 1;
nodes = (
(268,644,o),
(384,743,o),
(581,743,cs),
(779,743,o),
(902,644,o),
(902,443,cs),
(902,242,o),
(779,143,o),
(581,143,cs),
(384,143,o),
(268,242,o),
(268,443,cs)
);
}
);
width = 1282;
},
{
layerId = m002;
name = Regular;
shapes = (
{
closed = 1;
nodes = (
(943,-24,o),
(1140,177,o),
(1147,458,cs),
(1155,764,o),
(979,950,o),
(686,950,cs),
(562,950,o),
(482,910,o),
(428,869,c),
(428,944,ls),
(428,1073,o),
(511,1118,o),
(639,1118,cs),
(970,1118,l),
(1064,1488,l),
(1064,1508,l),
(617,1508,ls),
(246,1508,o),
(58,1325,o),
(58,934,cs),
(58,464,ls),
(58,172,o),
(274,-24,o),
(615,-24,cs)
);
},
{
closed = 1;
nodes = (
(503,325,o),
(445,375,o),
(445,476,cs),
(445,577,o),
(504,627,o),
(603,627,cs),
(703,627,o),
(765,577,o),
(765,476,cs),
(765,375,o),
(703,325,o),
(603,325,cs)
);
}
);
width = 1222;
},
{
layerId = m003;
name = Regular;
shapes = (
{
closed = 1;
nodes = (
(818,-18,o),
(992,136,o),
(992,404,cs),
(992,672,o),
(818,826,o),
(545,826,cs),
(380,826,o),
(209,768,o),
(140,592,c),
(140,1040,ls),
(140,1285,o),
(278,1470,o),
(561,1470,cs),
(873,1470,l),
(883,1496,l),
(883,1500,l),
(561,1500,ls),
(254,1500,o),
(108,1309,o),
(108,1036,cs),
(108,404,ls),
(108,136,o),
(271,-18,o),
(545,-18,cs)
);
},
{
closed = 1;
nodes = (
(293,15,o),
(140,158,o),
(140,404,cs),
(140,650,o),
(294,793,o),
(545,793,cs),
(797,793,o),
(960,650,o),
(960,404,cs),
(960,158,o),
(797,15,o),
(545,15,cs)
);
}
);
width = 1082;
},
{
associatedMasterId = m01;
layerId = "ED2D09CD-F9E9-444B-84AD-BB9001CD28D5";
name = "Jun 3, 24 at 16:44";
shapes = (
{
closed = 1;
nodes = (
(302,1500,o),
(138,1237,o),
(138,956,cs),
(138,803,o),
(138,596,o),
(138,443,c),
(312,443,l),
(309,596,o),
(310,803,o),
(313,956,cs),
(316,1135,o),
(416,1334,o),
(673,1338,cs),
(796,1340,o),
(893,1338,o),
(958,1338,c),
(1013,1488,l),
(1013,1500,l),
(673,1500,ls)
);
},
{
closed = 1;
nodes = (
(1120,716,o),
(956,910,o),
(629,910,cs),
(356,910,o),
(178,718,o),
(178,443,c),
(138,443,l),
(138,175,o),
(302,-24,o),
(629,-24,cs),
(956,-24,o),
(1120,175,o),
(1120,443,cs)
);
},
{
closed = 1;
nodes = (
(312,644,o),
(428,743,o),
(625,743,cs),
(823,743,o),
(946,644,o),
(946,443,cs),
(946,242,o),
(823,143,o),
(625,143,cs),
(427,143,o),
(312,242,o),
(312,443,cs)
);
}
);
width = 1216;
},
{
associatedMasterId = m003;
layerId = "CC415152-8C9A-458B-995D-EB35C9CF0947";
name = "Jun 4, 24 at 21:56";
shapes = (
{
closed = 1;
nodes = (
(243,422,l),
(243,635,o),
(243,847,o),
(243,1060,cs),
(243,1305,o),
(375,1470,o),
(658,1470,cs),
(757,1470,o),
(857,1470,o),
(956,1470,c),
(966,1496,l),
(966,1500,l),
(658,1500,ls),
(351,1500,o),
(211,1329,o),
(211,1056,cs),
(211,845,o),
(211,633,o),
(211,422,c)
);
},
{
closed = 1;
nodes = (
(905,0,o),
(1075,150,o),
(1075,422,cs),
(1075,694,o),
(905,844,o),
(638,844,cs),
(372,844,o),
(213,696,o),
(211,426,c),
(211,422,l),
(211,150,o),
(370,0,o),
(638,0,cs)
);
},
{
closed = 1;
nodes = (
(392,33,o),
(243,172,o),
(243,422,cs),
(243,672,o),
(393,811,o),
(638,811,cs),
(884,811,o),
(1043,672,o),
(1043,422,cs),
(1043,172,o),
(884,33,o),
(638,33,cs)
);
}
);
width = 1216;
},
{
associatedMasterId = m002;
layerId = "906057DA-7E2D-4B45-9C61-ADFD939C3C66";
name = "Jun 4, 24 at 22:01";
shapes = (
{
closed = 1;
nodes = (
(916,-24,o),
(1148,167,o),
(1148,463,cs),
(1148,777,o),
(909,950,o),
(621,950,cs),
(327,950,o),
(148,757,o),
(148,468,c),
(12,468,l),
(12,135,o),
(273,-24,o),
(600,-24,cs)
);
},
{
closed = 1;
nodes = (
(451,264,o),
(372,343,o),
(372,468,cs),
(372,593,o),
(451,672,o),
(589,672,cs),
(727,672,o),
(806,593,o),
(806,468,cs),
(806,343,o),
(727,264,o),
(589,264,cs)
);
},
{
closed = 1;
nodes = (
(372,468,l),
(372,621,o),
(372,711,o),
(372,864,cs),
(372,1039,o),
(413,1110,o),
(596,1110,cs),
(719,1110,o),
(909,1110,o),
(974,1110,c),
(1068,1480,l),
(1068,1500,l),
(633,1500,ls),
(180,1500,o),
(12,1274,o),
(12,893,cs),
(12,740,o),
(12,621,o),
(12,468,c)
);
}
);
width = 1216;
},
{
associatedMasterId = m002;
layerId = "542EDE8D-EBA1-43C8-A83C-A122D87EBDD2";
name = "Jun 5, 24 at 11:44";
shapes = (
{
closed = 1;
nodes = (
(908,-32,o),
(1126,165,o),
(1126,461,cs),
(1126,781,o),
(901,950,o),
(613,950,cs),
(319,950,o),
(142,750,o),
(142,461,c),
(30,461,l),
(30,128,o),
(265,-32,o),
(592,-32,cs)
);
},
{
closed = 1;
nodes = (
(448,265,o),
(377,342,o),
(377,461,cs),
(377,580,o),
(448,657,o),
(581,657,cs),
(714,657,o),
(785,580,o),
(785,461,cs),
(785,342,o),
(714,265,o),
(581,265,cs)
);
},
{
closed = 1;
nodes = (
(211,461,l),
(401,639,l),
(401,856,ls),
(401,1031,o),
(428,1110,o),
(616,1110,cs),
(739,1110,o),
(898,1110,o),
(963,1110,c),
(1057,1480,l),
(1057,1500,l),
(632,1500,ls),
(179,1500,o),
(29,1274,o),
(29,893,cs),
(29,740,o),
(29,614,o),
(29,461,c)
);
}
);
width = 1216;
},
{
associatedMasterId = m003;
layerId = "178D4D2A-7588-4438-BFAE-0CA9A011F425";
name = "Jun 5, 24 at 11:57";
shapes = (
{
closed = 1;
nodes = (
(227,404,l),
(243,524,l),
(243,1060,ls),
(243,1305,o),
(375,1470,o),
(658,1470,cs),
(757,1470,o),
(857,1470,o),
(956,1470,c),
(966,1496,l),
(966,1500,l),
(658,1500,ls),
(351,1500,o),
(211,1329,o),
(211,1056,cs),
(211,404,l)
);
},
{
closed = 1;
nodes = (
(905,-18,o),
(1075,132,o),
(1075,404,cs),
(1075,676,o),
(905,826,o),
(638,826,cs),
(430,826,o),
(211,733,o),
(211,404,c),
(243,404,l),
(243,654,o),
(393,793,o),
(638,793,cs),
(884,793,o),
(1043,654,o),
(1043,404,cs),
(1043,154,o),
(884,15,o),
(638,15,cs),
(392,15,o),
(243,154,o),
(243,404,c),
(211,404,l),
(211,132,o),
(370,-18,o),
(638,-18,cs)
);
}
);
width = 1216;
},
{
associatedMasterId = m002;
layerId = "F58DCCD6-5928-458D-A1DB-7D9D12DC6EB7";
name = "Jun 5, 24 at 12:06";
shapes = (
{
closed = 1;
nodes = (
(912,-36,o),
(1129,162,o),
(1129,457,cs),
(1129,777,o),
(904,946,o),
(616,946,cs),
(352,946,o),
(115,802,o),
(126,457,c),
(380,457,l),
(380,576,o),
(451,653,o),
(584,653,cs),
(717,653,o),
(788,576,o),
(788,457,cs),
(788,338,o),
(717,261,o),
(584,261,cs),
(451,261,o),
(380,338,o),
(380,457,c),
(32,457,l),
(33,124,o),
(268,-36,o),
(595,-36,cs)
);
},
{
closed = 1;
nodes = (
(214,457,l),
(380,635,l),
(380,852,ls),
(380,1027,o),
(431,1106,o),
(619,1106,cs),
(742,1106,o),
(901,1106,o),
(966,1106,c),
(1060,1476,l),
(1060,1496,l),
(635,1496,ls),
(182,1496,o),
(32,1270,o),
(32,889,cs),
(32,457,l)
);
}
);
width = 1216;
},
{
associatedMasterId = m002;
layerId = "148B4B37-B183-4B7E-9A64-F987899E9181";
name = "Jun 5, 24 at 12:12";
shapes = (
{
closed = 1;
nodes = (
(912,-32,o),
(1129,166,o),
(1129,461,cs),
(1129,781,o),
(904,950,o),
(616,950,cs),
(352,950,o),
(115,806,o),
(126,461,c),
(380,461,l),
(380,580,o),
(451,657,o),
(584,657,cs),
(717,657,o),
(788,580,o),
(788,461,cs),
(788,342,o),
(717,265,o),
(584,265,cs),
(451,265,o),
(380,342,o),
(380,461,c),
(32,461,l),
(33,128,o),
(268,-32,o),
(595,-32,cs)
);
},
{
closed = 1;
nodes = (
(214,461,l),
(380,639,l),
(380,856,ls),
(380,1031,o),
(431,1110,o),
(619,1110,cs),
(742,1110,o),
(901,1110,o),
(966,1110,c),
(1060,1480,l),
(1060,1500,l),
(635,1500,ls),
(182,1500,o),
(32,1274,o),
(32,893,cs),
(32,461,l)
);
}
);
width = 1216;
},
{
associatedMasterId = m002;
layerId = "6FE7BD8C-A12F-4274-9B1D-E489A22A5088";
name = "Jun 6, 24 at 21:43";
shapes = (
{
closed = 1;
nodes = (
(299,456,l),
(486,613,l),
(486,859,ls),
(486,1042,o),
(534,1110,o),
(721,1110,cs),
(1022,1110,l),
(1116,1480,l),
(1116,1500,l),
(696,1500,ls),
(212,1500,o),
(110,1257,o),
(110,876,cs),
(110,456,l)
);
},
{
closed = 1;
nodes = (
(984,-32,o),
(1201,136,o),
(1201,456,cs),
(1201,794,o),
(949,936,o),
(679,936,cs),
(368,936,o),
(240,730,o),
(248,456,c),
(464,456,l),
(464,569,o),
(537,638,o),
(659,638,cs),
(781,638,o),
(854,569,o),
(854,456,cs),
(854,343,o),
(781,274,o),
(659,274,cs),
(537,274,o),
(464,343,o),
(464,456,c),
(110,456,l),
(110,185,o),
(301,-32,o),
(660,-32,cs)
);
}
);
width = 1281;
},
{
associatedMasterId = m01;
layerId = "4136FF06-6998-411A-99D4-CBD035C0C02D";
name = "Jun 7, 24 at 21:49";
shapes = (
{
closed = 1;
nodes = (
(255,443,l),
(303,553,l),
(303,956,ls),
(303,1135,o),
(406,1338,o),
(663,1338,cs),
(948,1338,l),
(1003,1488,l),
(1003,1500,l),
(663,1500,ls),
(292,1500,o),
(128,1237,o),
(128,956,cs),
(128,443,l)
);
},
{
closed = 1;
nodes = (
(946,-24,o),
(1110,175,o),
(1110,443,cs),
(1110,716,o),
(947,910,o),
(621,910,cs),
(356,910,o),
(160,750,o),
(168,443,c),
(302,443,l),
(302,644,o),
(418,743,o),
(615,743,cs),
(813,743,o),
(936,644,o),
(936,443,cs),
(936,242,o),
(813,143,o),
(615,143,cs),
(417,143,o),
(302,242,o),
(302,443,c),
(128,443,l),
(128,175,o),
(292,-24,o),
(619,-24,cs)
);
}
);
width = 1200;
},
{
associatedMasterId = m003;
layerId = "838DCBE5-B0CE-4032-8E86-955E28CD609E";
name = "Jun 7, 24 at 21:50";
shapes = (
{
closed = 1;
nodes = (
(148,404,l),
(164,524,l),
(164,1040,ls),
(164,1285,o),
(302,1470,o),
(585,1470,cs),
(907,1470,l),
(917,1496,l),
(917,1500,l),
(585,1500,ls),
(278,1500,o),
(132,1309,o),
(132,1036,cs),
(132,404,l)
);
},
{
closed = 1;
nodes = (
(842,-18,o),
(1016,136,o),
(1016,404,cs),
(1016,672,o),
(842,826,o),
(569,826,cs),
(355,826,o),
(132,729,o),
(132,404,c),
(164,404,l),
(164,650,o),
(318,793,o),
(569,793,cs),
(821,793,o),
(984,650,o),
(984,404,cs),
(984,158,o),
(821,15,o),
(569,15,cs),
(317,15,o),
(164,158,o),
(164,404,c),
(132,404,l),
(132,136,o),
(295,-18,o),
(569,-18,cs)
);
}
);
width = 1112;
},
{
associatedMasterId = m002;
layerId = "F780EBC0-B324-4E14-88FC-077953BFA297";
name = "Jun 7, 24 at 21:51";
shapes = (
{
closed = 1;
nodes = (
(403,459,l),
(480,609,l),
(480,859,ls),
(480,1042,o),
(530,1110,o),
(717,1110,cs),
(1016,1110,l),
(1110,1480,l),
(1110,1500,l),
(690,1500,ls),
(206,1500,o),
(104,1253,o),
(104,872,cs),
(104,459,l)
);
},
{
closed = 1;
nodes = (
(1000,-32,o),
(1196,190,o),
(1196,451,cs),
(1196,734,o),
(1025,934,o),
(672,934,cs),
(409,934,o),
(166,726,o),
(174,459,c),
(486,459,l),
(486,545,o),
(536,615,o),
(654,615,cs),
(772,615,o),
(822,537,o),
(822,459,cs),
(822,381,o),
(772,303,o),
(654,303,cs),
(536,303,o),
(486,373,o),
(486,459,c),
(104,459,l),
(104,207,o),
(288,-32,o),
(650,-32,cs)
);
}
);
width = 1274;
},
{
associatedMasterId = m003;
layerId = "63BEBF95-39F9-4CE9-B593-59481DB87423";
name = "Jun 7, 24 at 21:53";
shapes = (
{
closed = 1;
nodes = (
(842,-18,o),
(1016,136,o),
(1016,404,cs),
(1016,672,o),
(842,826,o),
(569,826,cs),
(404,826,o),
(233,768,o),
(164,592,c),
(164,1040,ls),
(164,1285,o),
(302,1470,o),
(585,1470,cs),
(907,1470,l),
(917,1496,l),
(917,1500,l),
(585,1500,ls),
(278,1500,o),
(132,1309,o),
(132,1036,cs),
(132,404,ls),
(132,136,o),
(295,-18,o),
(569,-18,cs)
);
},
{
closed = 1;
nodes = (
(317,15,o),
(164,158,o),
(164,404,cs),
(164,650,o),
(318,793,o),
(569,793,cs),
(821,793,o),
(984,650,o),
(984,404,cs),
(984,158,o),
(821,15,o),
(569,15,cs)
);
}
);
width = 1112;
},
{
associatedMasterId = m002;
layerId = "A01CBA8F-D673-4617-B2F9-4B3FC44E4EC9";
name = "Jun 7, 24 at 21:53";
shapes = (
{
closed = 1;
nodes = (
(1000,-32,o),
(1196,190,o),
(1196,451,cs),
(1196,734,o),
(1025,934,o),
(672,934,cs),
(606,934,o),
(541,921,o),
(481,897,c),
(488,1051,o),
(543,1110,o),
(717,1110,cs),
(1016,1110,l),
(1110,1480,l),
(1110,1500,l),
(690,1500,ls),
(206,1500,o),
(104,1253,o),
(104,872,cs),
(104,459,ls),
(104,207,o),
(288,-32,o),
(650,-32,cs)
);
},
{
closed = 1;
nodes = (
(536,303,o),
(486,373,o),
(486,459,cs),
(486,545,o),
(536,615,o),
(654,615,cs),
(772,615,o),
(822,537,o),
(822,459,cs),
(822,381,o),
(772,303,o),
(654,303,cs)
);
}
);
width = 1274;
},
{
associatedMasterId = m002;
layerId = "155A4144-4D7E-4BC3-9643-857F98485FC6";
name = "Jun 16, 24 at 21:47";
shapes = (
{
closed = 1;
nodes = (
(960,-32,o),
(1168,179,o),
(1168,447,cs),
(1168,723,o),
(1006,936,o),
(650,936,cs),
(559,936,o),
(481,910,o),
(454,897,c),
(454,936,ls),
(454,1065,o),
(537,1110,o),
(657,1110,cs),
(988,1110,l),
(1082,1480,l),
(1082,1500,l),
(635,1500,ls),
(264,1500,o),
(76,1317,o),
(76,926,cs),
(76,456,ls),
(76,174,o),
(292,-32,o),
(633,-32,cs)
);
},
{
closed = 1;
nodes = (
(522,306,o),
(463,357,o),
(463,460,cs),
(463,563,o),
(523,614,o),
(624,614,cs),
(726,614,o),
(789,563,o),
(789,460,cs),
(789,357,o),
(726,306,o),
(624,306,cs)
);
}
);
width = 1222;
},
{
associatedMasterId = m003;
layerId = "A94CDD05-135E-442D-B14F-4B3C1A72192F";
name = "Jun 16, 24 at 22:04";
shapes = (
{
closed = 1;
nodes = (
(818,-18,o),
(992,136,o),
(992,404,cs),
(992,672,o),
(818,826,o),
(545,826,cs),
(380,826,o),
(209,768,o),
(140,592,c),
(140,1040,ls),
(140,1285,o),
(278,1470,o),
(561,1470,cs),
(883,1470,l),
(893,1496,l),
(893,1500,l),
(561,1500,ls),
(254,1500,o),
(108,1309,o),
(108,1036,cs),
(108,404,ls),
(108,136,o),
(271,-18,o),
(545,-18,cs)
);
},
{
closed = 1;
nodes = (
(293,15,o),
(140,158,o),
(140,404,cs),
(140,650,o),
(294,793,o),
(545,793,cs),
(797,793,o),
(960,650,o),
(960,404,cs),
(960,158,o),
(797,15,o),
(545,15,cs)
);
}
);
width = 1082;
}
);
unicode = 54;
}
{
glyphname = seven;
layers = (
{
layerId = m01;
shapes = (
{
closed = 1;
nodes = (
(480,0,l),
(1092,1435,l),
(937,1500,l),
(64,1500,l),
(64,1488,l),
(119,1338,l),
(913,1338,l),
(886,1379,l),
(302,12,l),
(302,0,l)
);
}
);
width = 1138;
},
{
associatedMasterId = m01;
layerId = "B6D9D95E-D23E-4A21-BC89-FB907D99AFC6";
name = "May 15, 24 at 12:59";
shapes = (
{
closed = 1;
nodes = (
(209,1490,l),
(209,1322,l),
(1105,1322,l),
(1175,1340,l),
(1175,1490,l)
);
},
{
closed = 1;
nodes = (
(753,933,o),
(553,457,o),
(553,0,c),
(735,0,l),
(735,457,o),
(945,933,o),
(1175,1340,c),
(983,1340,l)
);
}
);
width = 1400;
},
{
layerId = m002;
shapes = (
{
closed = 1;
nodes = (
(705,0,l),
(1265,1417,l),
(1049,1500,l),
(60,1500,l),
(60,1480,l),
(154,1110,l),
(790,1110,l),
(752,1152,l),
(268,20,l),
(268,0,l)
);
}
);
width = 1300;
},
{
layerId = m003;
shapes = (
{
closed = 1;
nodes = (
(332,1,l),
(967,1488,l),
(938,1500,l),
(36,1500,l),
(36,1496,l),
(46,1470,l),
(954,1470,l),
(936,1495,l),
(299,4,l),
(299,0,l)
);
}
);
width = 1053;
},
{
associatedMasterId = m002;
layerId = "84DE3DDA-8202-4065-A94D-82BBE8B91F50";
name = "Jun 7, 24 at 21:59";
shapes = (
{
closed = 1;
nodes = (
(719,0,l),
(1279,1417,l),
(1063,1500,l),
(919,1500,l),
(312,20,l),
(312,0,l)
);
},
{
closed = 1;
nodes = (
(1063,1110,l),
(1063,1500,l),
(74,1500,l),
(74,1480,l),
(168,1110,l)
);
}
);
width = 1353;
},
{
associatedMasterId = m01;
layerId = "97B02FB6-27EE-4B12-A3DC-E63F7C8038C0";
name = "Jun 7, 24 at 21:59";
shapes = (
{
closed = 1;
nodes = (
(322,0,l),
(500,0,l),
(1112,1435,l),
(957,1500,l),
(934,1446,l),
(322,12,l)
);
},
{
closed = 1;
nodes = (
(957,1338,l),
(957,1500,l),
(84,1500,l),
(84,1488,l),
(139,1338,l)
);
}
);
width = 1174;
},
{
associatedMasterId = m003;
layerId = "DB0B09BB-D927-4578-A6B3-410772248519";
name = "Jun 7, 24 at 21:59";
shapes = (
{
closed = 1;
nodes = (
(394,1,l),
(1029,1488,l),
(1000,1500,l),
(991,1479,l),
(361,4,l),
(361,0,l)
);
},
{
closed = 1;
nodes = (
(1000,1470,l),
(1000,1500,l),
(98,1500,l),
(98,1496,l),
(108,1470,l)
);
}
);
width = 1115;
}
);
unicode = 55;
}
{
glyphname = eight;
layers = (
{
layerId = m01;
shapes = (
{
closed = 1;
nodes = (
(888,-24,o),
(1060,157,o),
(1060,416,cs),
(1060,599,o),
(953,726,o),
(836,786,c),
(936,845,o),
(1022,957,o),
(1022,1116,cs),
(1022,1356,o),
(863,1524,o),
(556,1524,cs),
(243,1524,o),
(90,1350,o),
(90,1116,cs),
(90,957,o),
(175,845,o),
(274,786,c),
(158,726,o),
(52,599,o),
(52,416,cs),
(52,163,o),
(218,-24,o),
(556,-24,cs)
);
},
{
closed = 1;
nodes = (
(354,128,o),
(221,219,o),
(221,416,cs),
(221,613,o),
(355,704,o),
(555,704,cs),
(753,704,o),
(891,613,o),
(891,416,cs),
(891,219,o),
(752,128,o),
(553,128,cs)
);
},
{
closed = 1;
nodes = (
(377,858,o),
(259,941,o),
(259,1116,cs),
(259,1291,o),
(376,1374,o),
(553,1374,cs),
(730,1374,o),
(853,1291,o),
(853,1116,cs),
(853,941,o),
(731,858,o),
(555,858,cs)
);
}
);
width = 1112;
},
{
associatedMasterId = m01;
layerId = "B8AD239D-4F8A-4564-80D6-FE72360651B3";
name = "May 22, 24 at 11:25";
shapes = (
{
closed = 1;
nodes = (
(754,846,o),
(856,968,o),
(855,1102,cs),
(854,1235,o),
(759,1363,o),
(570,1363,cs),
(381,1363,o),
(285,1235,o),
(285,1102,cs),
(285,968,o),
(386,846,o),
(570,846,cs)
);
},
{
closed = 1;
nodes = (
(314,705,o),
(110,878,o),
(110,1110,cs),
(110,1328,o),
(278,1524,o),
(570,1524,cs),
(862,1524,o),
(1028,1328,o),
(1030,1110,cs),
(1032,878,o),
(828,705,o),
(571,705,cs)
);
},
{
closed = 1;
nodes = (
(782,137,o),
(895,271,o),
(895,421,cs),
(895,585,o),
(757,706,o),
(570,706,cs),
(383,706,o),
(245,585,o),
(245,421,cs),
(245,271,o),
(358,137,o),
(570,137,cs)
);
},
{
closed = 1;
nodes = (
(235,-24,o),
(70,190,o),
(70,411,cs),
(70,684,o),
(305,847,o),
(570,847,cs),
(835,847,o),
(1070,677,o),
(1070,411,cs),
(1070,190,o),
(905,-24,o),
(570,-24,cs)
);
}
);
width = 1140;
},
{
associatedMasterId = m01;
layerId = "6C39B5B5-D185-4782-BC1D-73B13D290093";
name = "May 22, 24 at 11:28";
shapes = (
{
closed = 1;
nodes = (
(439,1500,ls),
(307,1500,o),
(102,1344,o),
(102,1104,cs),
(102,864,o),
(307,708,o),
(439,708,cs),
(701,708,ls),
(833,708,o),
(1038,864,o),
(1038,1104,cs),
(1038,1344,o),
(833,1500,o),
(701,1500,cs)
);
},
{
closed = 1;
nodes = (
(737,1356,o),
(868,1257,o),
(868,1104,cs),
(868,951,o),
(737,852,o),
(653,852,cs),
(487,852,ls),
(403,852,o),
(272,951,o),
(272,1104,cs),
(272,1257,o),
(403,1356,o),
(487,1356,cs),
(653,1356,ls)
);
}
);
width = 1140;
},
{
associatedMasterId = m01;
layerId = "6C6BF93D-41E5-445E-AD30-57DDA4CB27AE";
name = "May 22, 24 at 11:36";
shapes = (
{
closed = 1;
nodes = (
(1036,1354,o),
(877,1524,o),
(570,1524,cs),
(257,1524,o),
(104,1348,o),
(104,1116,cs),
(104,876,o),
(305,738,o),
(449,738,cs),
(689,738,ls),
(833,738,o),
(1036,876,o),
(1036,1116,cs)
);
},
{
closed = 1;
nodes = (
(744,1374,o),
(867,1287,o),
(867,1116,cs),
(867,945,o),
(745,858,o),
(569,858,cs),
(391,858,o),
(273,945,o),
(273,1116,cs),
(273,1287,o),
(390,1374,o),
(567,1374,cs)
);
},
{
closed = 1;
nodes = (
(1074,675,o),
(854,826,o),
(699,826,cs),
(439,826,ls),
(284,826,o),
(66,675,o),
(66,416,cs),
(66,165,o),
(232,-24,o),
(570,-24,cs),
(902,-24,o),
(1074,159,o),
(1074,416,cs)
);
},
{
closed = 1;
nodes = (
(368,128,o),
(235,223,o),
(235,416,cs),
(235,609,o),
(369,704,o),
(569,704,cs),
(767,704,o),
(905,609,o),
(905,416,cs),
(905,223,o),
(766,128,o),
(567,128,cs)
);
}
);
width = 1140;
},
{
layerId = m002;
shapes = (
{
closed = 1;
nodes = (
(976,-32,o),
(1156,175,o),
(1156,416,cs),
(1156,597,o),
(1058,724,o),
(929,785,c),
(1039,843,o),
(1118,953,o),
(1118,1116,cs),
(1118,1335,o),
(947,1532,o),
(599,1532,cs),
(245,1532,o),
(80,1329,o),
(80,1116,cs),
(80,953,o),
(159,843,o),
(267,785,c),
(139,724,o),
(42,597,o),
(42,416,cs),
(42,181,o),
(216,-32,o),
(599,-32,cs)
);
},
{
closed = 1;
nodes = (
(495,290,o),
(422,336,o),
(422,435,cs),
(422,534,o),
(496,580,o),
(598,580,cs),
(700,580,o),
(770,534,o),
(770,435,cs),
(770,336,o),
(700,290,o),
(597,290,cs)
);
},
{
closed = 1;
nodes = (
(507,964,o),
(441,1007,o),
(441,1096,cs),
(441,1185,o),
(506,1228,o),
(597,1228,cs),
(689,1228,o),
(751,1185,o),
(751,1096,cs),
(751,1007,o),
(690,964,o),
(598,964,cs)
);
}
);
width = 1198;
},
{
layerId = m003;
shapes = (
{
closed = 1;
nodes = (
(875,-18,o),
(1004,188,o),
(1004,397,cs),
(1004,605,o),
(849,756,o),
(673,779,c),
(826,800,o),
(981,928,o),
(981,1130,cs),
(981,1348,o),
(823,1518,o),
(532,1518,cs),
(235,1518,o),
(83,1342,o),
(83,1130,cs),
(83,928,o),
(238,800,o),
(391,779,c),
(215,756,o),
(60,605,o),
(60,397,cs),
(60,182,o),
(195,-18,o),
(532,-18,cs)
);
},
{
closed = 1;
nodes = (
(240,12,o),
(92,177,o),
(92,397,cs),
(92,610,o),
(247,766,o),
(532,766,cs),
(817,766,o),
(972,610,o),
(972,397,cs),
(972,177,o),
(824,12,o),
(532,12,cs)
);
},
{
closed = 1;
nodes = (
(279,792,o),
(115,919,o),
(115,1130,cs),
(115,1353,o),
(284,1488,o),
(534,1488,cs),
(784,1488,o),
(949,1353,o),
(949,1130,cs),
(949,919,o),
(785,792,o),
(532,792,cs)
);
}
);
width = 1064;
},
{
associatedMasterId = m003;
layerId = "923D7355-19DF-4E68-B22A-D31DD497BC89";
name = "Jun 5, 24 at 12:48";
shapes = (
{
closed = 1;
nodes = (
(1040,1353,o),
(887,1518,o),
(580,1518,cs),
(267,1518,o),
(120,1347,o),
(120,1113,cs),
(120,869,o),
(315,738,o),
(459,738,cs),
(699,738,ls),
(843,738,o),
(1040,869,o),
(1040,1113,cs)
);
},
{
closed = 1;
nodes = (
(824,1478,o),
(997,1361,o),
(997,1116,cs),
(997,871,o),
(825,754,o),
(579,754,cs),
(329,754,o),
(163,871,o),
(163,1116,cs),
(163,1361,o),
(328,1478,o),
(576,1478,cs)
);
},
{
closed = 1;
nodes = (
(1078,682,o),
(864,826,o),
(709,826,cs),
(449,826,ls),
(294,826,o),
(82,682,o),
(82,419,cs),
(82,166,o),
(242,-18,o),
(580,-18,cs),
(912,-18,o),
(1078,160,o),
(1078,419,cs)
);
},
{
closed = 1;
nodes = (
(305,24,o),
(124,148,o),
(124,416,cs),
(124,684,o),
(306,808,o),
(579,808,cs),
(848,808,o),
(1036,684,o),
(1036,416,cs),
(1036,148,o),
(847,24,o),
(576,24,cs)
);
}
);
width = 1160;
},
{
associatedMasterId = m002;
layerId = "22069517-183C-4AC9-893B-4D976D20FE4D";
name = "Jun 6, 24 at 15:53";
shapes = (
{
closed = 1;
nodes = (
(970,-32,o),
(1150,157,o),
(1150,412,cs),
(1150,667,o),
(935,826,o),
(762,826,cs),
(462,826,ls),
(289,826,o),
(76,667,o),
(76,412,cs),
(76,163,o),
(250,-32,o),
(613,-32,cs)
);
},
{
closed = 1;
nodes = (
(510,290,o),
(437,336,o),
(437,436,cs),
(437,536,o),
(511,582,o),
(612,582,cs),
(713,582,o),
(783,536,o),
(783,436,cs),
(783,336,o),
(713,290,o),
(611,290,cs)
);
},
{
closed = 1;
nodes = (
(752,738,ls),
(914,738,o),
(1112,884,o),
(1112,1120,cs),
(1112,1354,o),
(941,1532,o),
(613,1532,cs),
(279,1532,o),
(114,1348,o),
(114,1120,cs),
(114,884,o),
(310,738,o),
(472,738,cs)
);
},
{
closed = 1;
nodes = (
(522,963,o),
(455,1006,o),
(455,1096,cs),
(455,1186,o),
(521,1229,o),
(611,1229,cs),
(702,1229,o),
(765,1186,o),
(765,1096,cs),
(765,1006,o),
(703,963,o),
(612,963,cs)
);
}
);
width = 1226;
},
{
associatedMasterId = m002;
layerId = "61281168-E800-4EEC-A20E-BE9F8D128309";
name = "Jun 7, 24 at 21:59";
shapes = (
{
closed = 1;
nodes = (
(990,-32,o),
(1170,175,o),
(1170,416,cs),
(1170,678,o),
(965,826,o),
(759,826,cs),
(465,826,ls),
(259,826,o),
(56,678,o),
(56,416,cs),
(56,181,o),
(230,-32,o),
(613,-32,cs)
);
},
{
closed = 1;
nodes = (
(506,286,o),
(431,333,o),
(431,435,cs),
(431,537,o),
(507,584,o),
(612,584,cs),
(717,584,o),
(789,537,o),
(789,435,cs),
(789,333,o),
(717,286,o),
(611,286,cs)
);
},
{
closed = 1;
nodes = (
(749,738,ls),
(944,738,o),
(1132,866,o),
(1132,1116,cs),
(1132,1335,o),
(961,1532,o),
(613,1532,cs),
(259,1532,o),
(94,1329,o),
(94,1116,cs),
(94,866,o),
(280,738,o),
(475,738,cs)
);
},
{
closed = 1;
nodes = (
(518,960,o),
(450,1004,o),
(450,1096,cs),
(450,1188,o),
(517,1232,o),
(611,1232,cs),
(706,1232,o),
(770,1188,o),
(770,1096,cs),
(770,1004,o),
(707,960,o),
(612,960,cs)
);
}
);
width = 1226;
},
{
associatedMasterId = m01;
layerId = "E9412796-BA10-4247-8ACE-434752ED0E25";
name = "Jun 7, 24 at 21:59";
shapes = (
{
closed = 1;
nodes = (
(912,-24,o),
(1084,157,o),
(1084,416,cs),
(1084,679,o),
(864,826,o),
(709,826,cs),
(449,826,ls),
(294,826,o),
(76,679,o),
(76,416,cs),
(76,163,o),
(242,-24,o),
(580,-24,cs)
);
},
{
closed = 1;
nodes = (
(378,128,o),
(245,219,o),
(245,416,cs),
(245,613,o),
(379,704,o),
(579,704,cs),
(777,704,o),
(915,613,o),
(915,416,cs),
(915,219,o),
(776,128,o),
(577,128,cs)
);
},
{
closed = 1;
nodes = (
(699,738,ls),
(843,738,o),
(1046,872,o),
(1046,1116,cs),
(1046,1356,o),
(887,1524,o),
(580,1524,cs),
(267,1524,o),
(114,1350,o),
(114,1116,cs),
(114,872,o),
(315,738,o),
(459,738,cs)
);
},
{
closed = 1;
nodes = (
(401,858,o),
(283,941,o),
(283,1116,cs),
(283,1291,o),
(400,1374,o),
(577,1374,cs),
(754,1374,o),
(877,1291,o),
(877,1116,cs),
(877,941,o),
(755,858,o),
(579,858,cs)
);
}
);
width = 1160;
},
{
associatedMasterId = m003;
layerId = "C3E709C9-23E7-4BFD-9E56-9A93F50C82BC";
name = "Jun 7, 24 at 21:59";
shapes = (
{
closed = 1;
nodes = (
(881,-18,o),
(1020,188,o),
(1020,397,cs),
(1020,623,o),
(826,782,o),
(646,782,cs),
(450,782,ls),
(270,782,o),
(76,623,o),
(76,397,cs),
(76,182,o),
(221,-18,o),
(548,-18,cs)
);
},
{
closed = 1;
nodes = (
(266,12,o),
(108,177,o),
(108,397,cs),
(108,610,o),
(273,766,o),
(548,766,cs),
(823,766,o),
(988,610,o),
(988,397,cs),
(988,177,o),
(830,12,o),
(548,12,cs)
);
},
{
closed = 1;
nodes = (
(648,776,ls),
(798,776,o),
(997,908,o),
(997,1130,cs),
(997,1348,o),
(829,1518,o),
(548,1518,cs),
(261,1518,o),
(99,1342,o),
(99,1130,cs),
(99,908,o),
(298,776,o),
(448,776,cs)
);
},
{
closed = 1;
nodes = (
(305,792,o),
(131,919,o),
(131,1130,cs),
(131,1353,o),
(310,1488,o),
(550,1488,cs),
(790,1488,o),
(965,1353,o),
(965,1130,cs),
(965,919,o),
(791,792,o),
(548,792,cs)
);
}
);
width = 1096;
},
{
associatedMasterId = m003;
layerId = "A85CF7B4-657A-4C5E-9B24-40E500AEBEEE";
name = "Jun 16, 24 at 22:04";
shapes = (
{
closed = 1;
nodes = (
(865,-18,o),
(1004,188,o),
(1004,397,cs),
(1004,605,o),
(839,756,o),
(673,779,c),
(816,800,o),
(981,928,o),
(981,1130,cs),
(981,1348,o),
(813,1518,o),
(532,1518,cs),
(245,1518,o),
(83,1342,o),
(83,1130,cs),
(83,928,o),
(248,800,o),
(391,779,c),
(225,756,o),
(60,605,o),
(60,397,cs),
(60,182,o),
(205,-18,o),
(532,-18,cs)
);
},
{
closed = 1;
nodes = (
(250,12,o),
(92,177,o),
(92,397,cs),
(92,610,o),
(257,766,o),
(532,766,cs),
(807,766,o),
(972,610,o),
(972,397,cs),
(972,177,o),
(814,12,o),
(532,12,cs)
);
},
{
closed = 1;
nodes = (
(289,792,o),
(115,919,o),
(115,1130,cs),
(115,1353,o),
(294,1488,o),
(534,1488,cs),
(774,1488,o),
(949,1353,o),
(949,1130,cs),
(949,919,o),
(775,792,o),
(532,792,cs)
);
}
);
width = 1064;
}
);
unicode = 56;
}
{
glyphname = colon;
layers = (
{
associatedMasterId = m01;
layerId = "2B8929B8-6324-4265-A34A-F63399FA2A61";
name = "May 19, 24 at 11:45";
shapes = (
{
closed = 1;
nodes = (
(304,-24,o),
(356,27,o),
(356,98,cs),
(356,169,o),
(304,220,o),
(233,220,cs),
(162,220,o),
(110,169,o),
(110,98,cs),
(110,27,o),
(162,-24,o),
(233,-24,cs)
);
},
{
closed = 1;
nodes = (
(304,830,o),
(356,881,o),
(356,952,cs),
(356,1023,o),
(304,1074,o),
(233,1074,cs),
(162,1074,o),
(110,1023,o),
(110,952,cs),
(110,881,o),
(162,830,o),
(233,830,cs)
);
}
);
width = 466;
},
{
layerId = m01;
name = Regular;
shapes = (
{
closed = 1;
nodes = (
(370,826,l),
(370,1050,l),
(144,1050,l),
(144,826,l)
);
},
{
closed = 1;
nodes = (
(370,0,l),
(370,224,l),
(144,224,l),
(144,0,l)
);
}
);
width = 514;
},
{
associatedMasterId = m002;
layerId = "DF01201F-FD9D-4CAB-9912-0EE982912F5B";
name = "May 19, 24 at 11:45";
shapes = (
{
closed = 1;
nodes = (
(304,-24,o),
(356,27,o),
(356,98,cs),
(356,169,o),
(304,220,o),
(233,220,cs),
(162,220,o),
(110,169,o),
(110,98,cs),
(110,27,o),
(162,-24,o),
(233,-24,cs)
);
},
{
closed = 1;
nodes = (
(304,830,o),
(356,881,o),
(356,952,cs),
(356,1023,o),
(304,1074,o),
(233,1074,cs),
(162,1074,o),
(110,1023,o),
(110,952,cs),
(110,881,o),
(162,830,o),
(233,830,cs)
);
}
);
width = 466;
},
{
layerId = m002;
name = Regular;
shapes = (
{
closed = 1;
nodes = (
(436,754,l),
(436,1050,l),
(140,1050,l),
(140,754,l)
);
},
{
closed = 1;
nodes = (
(436,0,l),
(436,296,l),
(140,296,l),
(140,0,l)
);
}
);
width = 576;
},
{
associatedMasterId = m003;
layerId = "B0D40B7B-0F9A-419A-929D-DE1A247CAF0D";
name = "May 19, 24 at 11:45";
shapes = (
{
closed = 1;
nodes = (
(304,-24,o),
(356,27,o),
(356,98,cs),
(356,169,o),
(304,220,o),
(233,220,cs),
(162,220,o),
(110,169,o),
(110,98,cs),
(110,27,o),
(162,-24,o),
(233,-24,cs)
);
},
{
closed = 1;
nodes = (
(304,830,o),
(356,881,o),
(356,952,cs),
(356,1023,o),
(304,1074,o),
(233,1074,cs),
(162,1074,o),
(110,1023,o),
(110,952,cs),
(110,881,o),
(162,830,o),
(233,830,cs)
);
}
);
width = 466;
},
{
layerId = m003;
name = Regular;
shapes = (
{
closed = 1;
nodes = (
(204,977,l),
(204,1050,l),
(132,1050,l),
(132,977,l)
);
},
{
closed = 1;
nodes = (
(204,0,l),
(204,73,l),
(132,73,l),
(132,0,l)
);
}
);
width = 336;
}
);
unicode = 58;
}
{
glyphname = semicolon;
layers = (
{
associatedMasterId = m01;
layerId = "BC98B324-FEE9-4D12-8A1E-EFF0C29B561B";
name = "May 17, 24 at 16:27";
shapes = (
{
closed = 1;
nodes = (
(290,-24,o),
(342,27,o),
(342,98,cs),
(342,169,o),
(290,220,o),
(219,220,cs),
(148,220,o),
(96,169,o),
(96,98,cs),
(96,27,o),
(148,-24,o),
(219,-24,cs)
);
},
{
closed = 1;
nodes = (
(290,830,o),
(342,881,o),
(342,952,cs),
(342,1023,o),
(290,1074,o),
(219,1074,cs),
(148,1074,o),
(96,1023,o),
(96,952,cs),
(96,881,o),
(148,830,o),
(219,830,cs)
);
}
);
width = 438;
},
{
associatedMasterId = m01;
layerId = "7B46650A-4D99-45EC-A146-74DDE877682C";
name = "May 17, 24 at 16:28";
shapes = (
{
closed = 1;
nodes = (
(290,830,o),
(342,881,o),
(342,952,cs),
(342,1023,o),
(290,1074,o),
(219,1074,cs),
(148,1074,o),
(96,1023,o),
(96,952,cs),
(96,881,o),
(148,830,o),
(219,830,cs)
);
},
{
closed = 1;
nodes = (
(136,196,l),
(39,-308,l),
(39,-320,l),
(142,-320,l),
(346,184,l),
(346,196,l)
);
}
);
width = 438;
},
{
associatedMasterId = m01;
layerId = "A690F24B-E239-4128-99A9-ED1C5C1D7A8C";
name = "May 19, 24 at 11:45";
shapes = (
{
closed = 1;
nodes = (
(314,830,o),
(366,881,o),
(366,952,cs),
(366,1023,o),
(314,1074,o),
(243,1074,cs),
(172,1074,o),
(120,1023,o),
(120,952,cs),
(120,881,o),
(172,830,o),
(243,830,cs)
);
},
{
closed = 1;
nodes = (
(143,195,l),
(36,-309,l),
(36,-321,l),
(139,-321,l),
(353,183,l),
(353,195,l)
);
}
);
width = 476;
},
{
layerId = m01;
name = Regular;
shapes = (
{
closed = 1;
nodes = (
(141,-318,l),
(365,212,l),
(365,224,l),
(149,224,l),
(28,-306,l),
(28,-318,l)
);
},
{
closed = 1;
nodes = (
(370,826,l),
(370,1050,l),
(144,1050,l),
(144,826,l)
);
}
);
width = 514;
},
{
associatedMasterId = m01;
layerId = "6674F63D-6978-4668-B6C3-F171AE697302";
name = "May 19, 24 at 13:04";
shapes = (
{
ref = colon;
}
);
width = 466;
},
{
associatedMasterId = m01;
layerId = "BCD6EBD8-569D-403B-BD37-014D2AB6B8F3";
name = "May 21, 24 at 8:35";
shapes = (
{
closed = 1;
nodes = (
(150,222,l),
(60,-308,l),
(60,-320,l),
(173,-320,l),
(364,210,l),
(364,222,l)
);
},
{
closed = 1;
nodes = (
(370,828,l),
(370,1050,l),
(144,1050,l),
(144,828,l)
);
}
);
width = 490;
},
{
layerId = m002;
name = Regular;
shapes = (
{
closed = 1;
nodes = (
(181,-338,l),
(434,276,l),
(434,296,l),
(143,296,l),
(16,-318,l),
(16,-338,l)
);
},
{
closed = 1;
nodes = (
(436,754,l),
(436,1050,l),
(140,1050,l),
(140,754,l)
);
}
);
width = 576;
},
{
layerId = m003;
name = Regular;
shapes = (
{
closed = 1;
nodes = (
(68,-280,l),
(211,69,l),
(211,73,l),
(125,73,l),
(24,-276,l),
(24,-280,l)
);
},
{
closed = 1;
nodes = (
(204,977,l),
(204,1050,l),
(132,1050,l),
(132,977,l)
);
}
);
width = 343;
}
);
unicode = 59;
}
{
glyphname = less;
layers = (
{
layerId = m01;
shapes = (
{
closed = 1;
nodes = (
(964,99,l),
(964,279,l),
(234,619,l),
(234,581,l),
(964,929,l),
(964,1109,l),
(952,1109,l),
(124,689,l),
(124,519,l),
(952,99,l)
);
}
);
width = 1084;
},
{
layerId = m002;
shapes = (
{
closed = 1;
nodes = (
(990,14,l),
(990,344,l),
(386,620,l),
(386,582,l),
(990,864,l),
(990,1194,l),
(970,1194,l),
(130,769,l),
(130,439,l),
(970,14,l)
);
}
);
width = 1128;
},
{
layerId = m003;
shapes = (
{
closed = 1;
nodes = (
(940,164,l),
(940,200,l),
(128,606,l),
(128,592,l),
(940,998,l),
(940,1034,l),
(936,1034,l),
(120,619,l),
(120,579,l),
(936,164,l)
);
}
);
width = 1070;
}
);
unicode = 60;
}
{
glyphname = equal;
layers = (
{
layerId = m01;
shapes = (
{
closed = 1;
nodes = (
(118,479,l),
(118,322,l),
(1028,322,l),
(1028,479,l)
);
},
{
closed = 1;
nodes = (
(118,882,l),
(118,725,l),
(1028,725,l),
(1028,882,l)
);
}
);
width = 1146;
},
{
associatedMasterId = m01;
layerId = "850CF0B4-B8D7-4AE4-9D7A-8F8A58FE0AA0";
name = "May 18, 24 at 20:01";
shapes = (
{
ref = plus;
}
);
visible = 1;
width = 1060;
},
{
layerId = m002;
shapes = (
{
closed = 1;
nodes = (
(124,506,l),
(124,192,l),
(1134,192,l),
(1134,506,l)
);
},
{
closed = 1;
nodes = (
(124,1012,l),
(124,698,l),
(1134,698,l),
(1134,1012,l)
);
}
);
width = 1258;
},
{
layerId = m003;
shapes = (
{
closed = 1;
nodes = (
(128,446,l),
(128,416,l),
(1018,416,l),
(1018,446,l)
);
},
{
closed = 1;
nodes = (
(128,789,l),
(128,759,l),
(1018,759,l),
(1018,789,l)
);
}
);
width = 1146;
}
);
unicode = 61;
}
{
glyphname = greater;
layers = (
{
layerId = m01;
shapes = (
{
closed = 1;
nodes = (
(132,99,l),
(960,519,l),
(960,689,l),
(132,1109,l),
(120,1109,l),
(120,929,l),
(850,581,l),
(850,619,l),
(120,279,l),
(120,99,l)
);
}
);
width = 1084;
},
{
layerId = m002;
shapes = (
{
closed = 1;
nodes = (
(158,14,l),
(998,439,l),
(998,769,l),
(158,1194,l),
(138,1194,l),
(138,864,l),
(742,582,l),
(742,620,l),
(138,344,l),
(138,14,l)
);
}
);
width = 1128;
},
{
layerId = m003;
shapes = (
{
closed = 1;
nodes = (
(134,164,l),
(950,579,l),
(950,619,l),
(134,1034,l),
(130,1034,l),
(130,998,l),
(942,592,l),
(942,606,l),
(130,200,l),
(130,164,l)
);
}
);
width = 1070;
},
{
associatedMasterId = m002;
layerId = "DA48DE7D-B11E-462E-97A7-04C22B884333";
name = "Jun 7, 24 at 22:54";
shapes = (
{
closed = 1;
nodes = (
(150,1194,l),
(130,1194,l),
(130,864,l),
(990,462,l),
(990,769,l)
);
},
{
closed = 1;
nodes = (
(990,736,l),
(130,344,l),
(130,14,l),
(150,14,l),
(990,439,l)
);
}
);
width = 1126;
},
{
associatedMasterId = m01;
layerId = "138EC58A-40A9-4EBC-8664-DE04E62B4DEF";
name = "Jun 7, 24 at 22:54";
shapes = (
{
closed = 1;
nodes = (
(132,1109,l),
(120,1109,l),
(120,929,l),
(960,528,l),
(960,689,l)
);
},
{
closed = 1;
nodes = (
(960,670,l),
(120,279,l),
(120,99,l),
(132,99,l),
(960,519,l)
);
}
);
width = 1084;
},
{
associatedMasterId = m003;
layerId = "5ABCD57F-DE0D-4108-AAC6-2E764A4E5600";
name = "Jun 7, 24 at 22:54";
shapes = (
{
closed = 1;
nodes = (
(124,1034,l),
(120,1034,l),
(120,998,l),
(940,588,l),
(940,619,l)
);
},
{
closed = 1;
nodes = (
(940,610,l),
(120,200,l),
(120,164,l),
(124,164,l),
(940,579,l)
);
}
);
width = 1062;
}
);
unicode = 62;
}
{
glyphname = question;
layers = (
{
layerId = m01;
shapes = (
{
closed = 1;
nodes = (
(501,420,l),
(502,512,ls),
(504,732,o),
(911,928,o),
(911,1194,cs),
(911,1390,o),
(758,1500,o),
(472,1500,cs),
(70,1500,l),
(70,1488,l),
(125,1338,l),
(257,1338,o),
(347,1340,o),
(487,1338,cs),
(646,1336,o),
(736,1293,o),
(736,1175,cs),
(736,997,o),
(325,809,o),
(325,498,cs),
(325,420,l)
);
},
{
closed = 1;
nodes = (
(516,0,l),
(516,210,l),
(310,210,l),
(310,0,l)
);
}
);
width = 991;
},
{
associatedMasterId = m01;
layerId = "75D3EADD-0D37-43CF-90E7-6513CF16F6AB";
name = "May 22, 24 at 10:46";
shapes = (
{
closed = 1;
nodes = (
(484,-24,o),
(536,27,o),
(536,98,cs),
(536,169,o),
(484,220,o),
(413,220,cs),
(342,220,o),
(290,169,o),
(290,98,cs),
(290,27,o),
(342,-24,o),
(413,-24,cs)
);
},
{
closed = 1;
nodes = (
(325,803,o),
(736,997,o),
(736,1175,cs),
(736,1293,o),
(646,1336,o),
(487,1338,cs),
(347,1340,o),
(257,1338,o),
(125,1338,c),
(70,1488,l),
(70,1500,l),
(472,1500,ls),
(764,1500,o),
(911,1385,o),
(911,1179,cs),
(911,926,o),
(501,751,o),
(501,517,cs),
(501,420,l),
(325,420,l),
(325,498,ls)
);
}
);
width = 1003;
},
{
layerId = m002;
shapes = (
{
closed = 1;
nodes = (
(688,455,l),
(689,521,ls),
(692,690,o),
(1078,850,o),
(1078,1170,cs),
(1078,1390,o),
(908,1500,o),
(657,1500,cs),
(70,1500,l),
(70,1480,l),
(166,1100,l),
(246,1100,o),
(371,1100,o),
(451,1100,cs),
(576,1100,o),
(685,1108,o),
(685,1058,cs),
(685,986,o),
(366,797,o),
(366,527,cs),
(366,455,l)
);
},
{
closed = 1;
nodes = (
(688,0,l),
(688,314,l),
(366,314,l),
(366,0,l)
);
}
);
width = 1132;
},
{
associatedMasterId = m002;
layerId = "A97E547E-643D-4E6E-97FF-C196A3E29EC1";
name = "May 22, 24 at 10:46";
shapes = (
{
closed = 1;
nodes = (
(484,-24,o),
(536,27,o),
(536,98,cs),
(536,169,o),
(484,220,o),
(413,220,cs),
(342,220,o),
(290,169,o),
(290,98,cs),
(290,27,o),
(342,-24,o),
(413,-24,cs)
);
},
{
closed = 1;
nodes = (
(325,803,o),
(736,997,o),
(736,1175,cs),
(736,1293,o),
(646,1336,o),
(487,1338,cs),
(347,1340,o),
(257,1338,o),
(125,1338,c),
(70,1488,l),
(70,1500,l),
(472,1500,ls),
(764,1500,o),
(911,1385,o),
(911,1179,cs),
(911,926,o),
(501,751,o),
(501,517,cs),
(501,420,l),
(325,420,l),
(325,498,ls)
);
}
);
width = 1003;
},
{
layerId = m003;
shapes = (
{
closed = 1;
nodes = (
(390,370,l),
(390,442,ls),
(390,802,o),
(846,957,o),
(846,1222,cs),
(846,1383,o),
(742,1500,o),
(459,1500,cs),
(60,1500,l),
(60,1496,l),
(70,1470,l),
(201,1470,o),
(333,1470,o),
(464,1470,cs),
(713,1470,o),
(814,1376,o),
(814,1229,cs),
(814,974,o),
(358,815,o),
(358,440,cs),
(358,370,l)
);
},
{
closed = 1;
nodes = (
(410,0,l),
(410,73,l),
(338,73,l),
(338,0,l)
);
}
);
width = 920;
},
{
associatedMasterId = m003;
layerId = "BD0376B9-3ADA-4BF7-BDF4-8DD2A3C4F1E3";
name = "May 22, 24 at 10:46";
shapes = (
{
closed = 1;
nodes = (
(484,-24,o),
(536,27,o),
(536,98,cs),
(536,169,o),
(484,220,o),
(413,220,cs),
(342,220,o),
(290,169,o),
(290,98,cs),
(290,27,o),
(342,-24,o),
(413,-24,cs)
);
},
{
closed = 1;
nodes = (
(325,803,o),
(736,997,o),
(736,1175,cs),
(736,1293,o),
(646,1336,o),
(487,1338,cs),
(347,1340,o),
(257,1338,o),
(125,1338,c),
(70,1488,l),
(70,1500,l),
(472,1500,ls),
(764,1500,o),
(911,1385,o),
(911,1179,cs),
(911,926,o),
(501,751,o),
(501,517,cs),
(501,420,l),
(325,420,l),
(325,498,ls)
);
}
);
width = 1003;
}
);
unicode = 63;
}
{
glyphname = at;
layers = (
{
layerId = m003;
shapes = (
{
closed = 1;
nodes = (
(1051,-316,o),
(1233,-263,o),
(1366,-156,c),
(1346,-130,l),
(1221,-225,o),
(1040,-291,o),
(861,-286,cs),
(376,-272,o),
(99,89,o),
(99,532,cs),
(99,1023,o),
(450,1341,o),
(887,1341,cs),
(1318,1341,o),
(1635,1025,o),
(1635,532,cs),
(1635,324,o),
(1560,105,o),
(1424,105,cs),
(1323,105,o),
(1273,201,o),
(1273,354,cs),
(1273,967,l),
(1241,967,l),
(1241,676,l),
(1201,837,o),
(1053,984,o),
(831,984,cs),
(549,984,o),
(390,746,o),
(390,518,cs),
(390,290,o),
(549,52,o),
(831,52,cs),
(1053,52,o),
(1201,199,o),
(1241,360,c),
(1241,149,o),
(1328,75,o),
(1426,75,cs),
(1556,75,o),
(1667,237,o),
(1667,532,cs),
(1667,1043,o),
(1338,1371,o),
(887,1371,cs),
(430,1371,o),
(67,1041,o),
(67,532,cs),
(67,26,o),
(404,-316,o),
(863,-316,cs)
);
},
{
closed = 1;
nodes = (
(568,82,o),
(422,299,o),
(422,518,cs),
(422,737,o),
(568,954,o),
(831,954,cs),
(1094,954,o),
(1241,737,o),
(1241,518,cs),
(1241,299,o),
(1094,82,o),
(831,82,cs)
);
}
);
width = 1745;
},
{
layerId = m01;
shapes = (
{
closed = 1;
nodes = (
(1181,-396,o),
(1371,-322,o),
(1501,-218,c),
(1406,-92,l),
(1300,-169,o),
(1162,-245,o),
(970,-240,cs),
(529,-229,o),
(264,99,o),
(264,532,cs),
(264,966,o),
(565,1291,o),
(981,1291,cs),
(1395,1291,o),
(1667,983,o),
(1667,532,cs),
(1667,324,o),
(1609,171,o),
(1501,171,cs),
(1403,171,o),
(1384,290,o),
(1384,431,cs),
(1384,972,l),
(1228,972,l),
(1228,863,l),
(1164,938,o),
(1064,994,o),
(926,994,cs),
(631,994,o),
(468,753,o),
(468,515,cs),
(468,275,o),
(629,35,o),
(926,35,cs),
(1069,35,o),
(1175,100,o),
(1254,202,c),
(1283,102,o),
(1365,11,o),
(1498,11,cs),
(1720,11,o),
(1835,237,o),
(1835,532,cs),
(1835,1050,o),
(1515,1447,o),
(981,1447,cs),
(455,1447,o),
(96,1052,o),
(96,532,cs),
(96,36,o),
(415,-396,o),
(970,-396,cs)
);
},
{
closed = 1;
nodes = (
(743,190,o),
(637,342,o),
(637,515,cs),
(637,687,o),
(743,839,o),
(931,839,cs),
(1119,839,o),
(1226,687,o),
(1226,515,cs),
(1226,342,o),
(1119,190,o),
(931,190,cs)
);
}
);
width = 1935;
},
{
associatedMasterId = m01;
layerId = "33F905D0-72E9-4167-A1B2-4BA8620E5061";
name = "May 17, 24 at 19:50";
shapes = (
{
closed = 1;
nodes = (
(1174,7,o),
(1343,181,o),
(1343,467,cs),
(1343,753,o),
(1174,927,o),
(949,927,cs),
(671,927,o),
(514,692,o),
(514,467,cs),
(514,242,o),
(671,7,o),
(949,7,cs)
);
},
{
closed = 1;
nodes = (
(768,158,o),
(671,305,o),
(671,467,cs),
(671,630,o),
(768,777,o),
(950,777,cs),
(1130,777,o),
(1227,630,o),
(1227,467,cs),
(1227,305,o),
(1130,158,o),
(950,158,cs)
);
},
{
closed = 1;
nodes = (
(1399,-149,l),
(1291,-220,o),
(1161,-284,o),
(1001,-284,cs),
(569,-284,o),
(292,42,o),
(292,492,cs),
(292,942,o),
(569,1267,o),
(989,1267,cs),
(1409,1267,o),
(1652,942,o),
(1652,492,cs),
(1652,284,o),
(1593,135,o),
(1499,135,cs),
(1407,135,o),
(1384,273,o),
(1384,387,cs),
(1384,907,l),
(1233,907,l),
(1233,717,l),
(1284,479,l),
(1248,301,ls),
(1226,191,o),
(1297,-25,o),
(1494,-25,cs),
(1696,-25,o),
(1827,211,o),
(1827,492,cs),
(1827,1004,o),
(1519,1427,o),
(989,1427,cs),
(459,1427,o),
(117,1004,o),
(117,492,cs),
(117,-20,o),
(459,-444,o),
(1001,-444,cs),
(1178,-444,o),
(1355,-375,o),
(1484,-284,c)
);
}
);
width = 1960;
},
{
associatedMasterId = m01;
layerId = "4D813E91-1A7F-4472-BB58-5F8F4BB82A5A";
name = "May 17, 24 at 19:53";
shapes = (
{
closed = 1;
nodes = (
(1487,-395,o),
(1795,67,o),
(1795,527,cs),
(1795,983,o),
(1487,1446,o),
(937,1446,cs),
(386,1446,o),
(78,983,o),
(78,527,cs),
(78,67,o),
(386,-395,o),
(937,-395,cs)
);
},
{
closed = 1;
nodes = (
(493,-245,o),
(253,112,o),
(253,528,cs),
(253,943,o),
(493,1297,o),
(937,1297,cs),
(1380,1297,o),
(1620,943,o),
(1620,528,cs),
(1620,112,o),
(1380,-245,o),
(937,-245,cs)
);
}
);
width = 1873;
},
{
associatedMasterId = m01;
layerId = "0AD59779-94E2-436B-8060-4414E3BBD40F";
name = "May 21, 24 at 14:54";
shapes = (
{
closed = 1;
nodes = (
(1131,54,o),
(1300,228,o),
(1300,514,cs),
(1300,800,o),
(1131,974,o),
(906,974,cs),
(623,974,o),
(466,739,o),
(466,514,cs),
(466,289,o),
(623,54,o),
(906,54,cs)
);
},
{
closed = 1;
nodes = (
(725,205,o),
(624,352,o),
(624,514,cs),
(624,677,o),
(725,824,o),
(907,824,cs),
(1087,824,o),
(1184,677,o),
(1184,514,cs),
(1184,352,o),
(1087,205,o),
(907,205,cs)
);
},
{
closed = 1;
nodes = (
(1378,-84,l),
(1275,-161,o),
(1129,-234,o),
(949,-230,cs),
(521,-220,o),
(255,104,o),
(255,532,cs),
(255,962,o),
(557,1283,o),
(959,1283,cs),
(1365,1283,o),
(1637,978,o),
(1637,532,cs),
(1637,324,o),
(1580,175,o),
(1479,175,cs),
(1366,175,o),
(1349,320,o),
(1349,434,cs),
(1349,954,l),
(1190,954,l),
(1190,764,l),
(1241,526,l),
(1203,348,ls),
(1180,238,o),
(1263,15,o),
(1474,15,cs),
(1684,15,o),
(1814,237,o),
(1814,532,cs),
(1814,1050,o),
(1497,1447,o),
(959,1447,cs),
(435,1447,o),
(78,1052,o),
(78,532,cs),
(78,36,o),
(398,-396,o),
(949,-396,cs),
(1160,-396,o),
(1350,-322,o),
(1479,-218,c)
);
}
);
width = 1892;
},
{
layerId = m002;
shapes = (
{
closed = 1;
nodes = (
(1214,-419,o),
(1402,-354,o),
(1549,-241,c),
(1402,-47,l),
(1298,-118,o),
(1161,-181,o),
(999,-181,cs),
(619,-181,o),
(338,105,o),
(338,532,cs),
(338,864,o),
(596,1225,o),
(1009,1225,cs),
(1359,1225,o),
(1639,948,o),
(1639,538,cs),
(1639,340,o),
(1599,226,o),
(1529,226,cs),
(1457,226,o),
(1440,318,o),
(1440,449,cs),
(1440,972,l),
(1142,972,l),
(1142,899,l),
(1109,948,o),
(1016,997,o),
(925,997,cs),
(655,997,o),
(493,769,o),
(493,513,cs),
(493,263,o),
(651,28,o),
(933,28,cs),
(1054,28,o),
(1172,98,o),
(1221,188,c),
(1259,94,o),
(1365,-14,o),
(1526,-14,cs),
(1792,-14,o),
(1895,237,o),
(1895,532,cs),
(1895,1052,o),
(1567,1467,o),
(1009,1467,cs),
(463,1467,o),
(78,1046,o),
(78,532,cs),
(78,43,o),
(389,-419,o),
(999,-419,cs)
);
},
{
closed = 1;
nodes = (
(880,356,o),
(825,421,o),
(825,513,cs),
(825,603,o),
(880,670,o),
(971,670,cs),
(1063,670,o),
(1118,603,o),
(1118,513,cs),
(1118,421,o),
(1063,356,o),
(971,356,cs)
);
}
);
width = 1973;
},
{
associatedMasterId = m002;
layerId = "939EDEEC-14E2-449E-885E-50D069F1948E";
name = "Jun 11, 24 at 14:05";
shapes = (
{
closed = 1;
nodes = (
(1214,-419,o),
(1402,-354,o),
(1549,-241,c),
(1402,-47,l),
(1298,-118,o),
(1161,-181,o),
(999,-181,cs),
(619,-181,o),
(338,105,o),
(338,532,cs),
(338,864,o),
(596,1225,o),
(1009,1225,cs),
(1359,1225,o),
(1639,948,o),
(1639,538,cs),
(1639,340,o),
(1599,226,o),
(1529,226,cs),
(1451,226,o),
(1427,319,o),
(1427,450,cs),
(1427,980,l),
(1161,980,l),
(1161,764,l),
(1211,526,l),
(1174,348,l),
(1164,238,o),
(1284,-5,o),
(1526,-5,cs),
(1792,-5,o),
(1895,237,o),
(1895,532,cs),
(1895,1052,o),
(1567,1467,o),
(1009,1467,cs),
(463,1467,o),
(78,1046,o),
(78,532,cs),
(78,43,o),
(389,-419,o),
(999,-419,cs)
);
},
{
closed = 1;
nodes = (
(1193,37,o),
(1373,214,o),
(1373,514,cs),
(1373,814,o),
(1189,991,o),
(957,991,cs),
(664,991,o),
(499,748,o),
(499,514,cs),
(499,280,o),
(664,37,o),
(957,37,cs)
);
},
{
closed = 1;
nodes = (
(854,331,o),
(796,419,o),
(796,516,cs),
(796,613,o),
(854,701,o),
(963,701,cs),
(1072,701,o),
(1130,613,o),
(1130,516,cs),
(1130,419,o),
(1072,331,o),
(963,331,cs)
);
}
);
width = 1973;
},
{
associatedMasterId = m01;
layerId = "71598558-4FC9-4A8E-8911-78BC754F4E1D";
name = "Jun 11, 24 at 14:09";
shapes = (
{
closed = 1;
nodes = (
(1182,-396,o),
(1371,-322,o),
(1501,-218,c),
(1406,-92,l),
(1300,-169,o),
(1163,-245,o),
(971,-240,cs),
(534,-229,o),
(268,99,o),
(268,532,cs),
(268,966,o),
(569,1291,o),
(981,1291,cs),
(1395,1291,o),
(1667,983,o),
(1667,532,cs),
(1667,324,o),
(1609,165,o),
(1501,165,cs),
(1390,165,o),
(1363,313,o),
(1363,434,cs),
(1363,954,l),
(1213,954,l),
(1213,764,l),
(1263,526,l),
(1226,348,l),
(1203,238,o),
(1296,15,o),
(1498,15,cs),
(1714,15,o),
(1835,237,o),
(1835,532,cs),
(1835,1050,o),
(1515,1447,o),
(981,1447,cs),
(459,1447,o),
(100,1052,o),
(100,532,cs),
(100,36,o),
(420,-396,o),
(971,-396,cs)
);
},
{
closed = 1;
nodes = (
(1151,56,o),
(1322,226,o),
(1322,514,cs),
(1322,802,o),
(1151,972,o),
(928,972,cs),
(647,972,o),
(488,739,o),
(488,514,cs),
(488,289,o),
(647,56,o),
(928,56,cs)
);
},
{
closed = 1;
nodes = (
(738,199,o),
(639,350,o),
(639,516,cs),
(639,682,o),
(738,833,o),
(924,833,cs),
(1110,833,o),
(1209,682,o),
(1209,516,cs),
(1209,350,o),
(1110,199,o),
(924,199,cs)
);
}
);
width = 1935;
},
{
associatedMasterId = m003;
layerId = "19D51792-059C-4934-8144-FADB39772E88";
name = "Jun 11, 24 at 14:14";
shapes = (
{
closed = 1;
nodes = (
(1058,-316,o),
(1235,-260,o),
(1366,-156,c),
(1347,-131,l),
(1234,-217,o),
(1067,-291,o),
(873,-286,cs),
(419,-274,o),
(110,99,o),
(110,532,cs),
(110,1023,o),
(461,1341,o),
(887,1341,cs),
(1318,1341,o),
(1638,1025,o),
(1638,532,cs),
(1638,324,o),
(1571,105,o),
(1413,105,cs),
(1305,105,o),
(1244,211,o),
(1244,354,cs),
(1244,939,l),
(1212,939,l),
(1212,764,l),
(1212,517,l),
(1212,348,l),
(1212,154,o),
(1315,75,o),
(1413,75,cs),
(1560,75,o),
(1667,237,o),
(1667,532,cs),
(1667,1043,o),
(1338,1371,o),
(887,1371,cs),
(441,1371,o),
(78,1041,o),
(78,532,cs),
(78,36,o),
(445,-316,o),
(873,-316,cs)
);
},
{
closed = 1;
nodes = (
(1063,56,o),
(1234,226,o),
(1234,514,cs),
(1234,802,o),
(1063,972,o),
(840,972,cs),
(559,972,o),
(401,739,o),
(401,514,cs),
(401,287,o),
(559,56,o),
(840,56,cs)
);
},
{
closed = 1;
nodes = (
(586,86,o),
(433,304,o),
(433,517,cs),
(433,728,o),
(586,942,o),
(839,942,cs),
(1082,942,o),
(1212,734,o),
(1212,517,cs),
(1212,300,o),
(1082,86,o),
(839,86,cs)
);
}
);
width = 1745;
}
);
unicode = 64;
}
{
glyphname = A;
kernLeft = A;
kernRight = A;
layers = (
{
anchors = (
{
name = bottom;
pos = (715,0);
},
{
name = top;
pos = (715,1500);
}
);
layerId = m01;
shapes = (
{
closed = 1;
nodes = (
(254,0,l),
(730,1370,l),
(700,1370,l),
(1176,0,l),
(1368,0,l),
(1368,12,l),
(817,1500,l),
(613,1500,l),
(62,12,l),
(62,0,l)
);
},
{
closed = 1;
nodes = (
(1064,374,l),
(1064,536,l),
(364,536,l),
(364,374,l)
);
}
);
width = 1430;
},
{
associatedMasterId = m01;
layerId = "93BE20FE-9219-4C61-B40F-A3F1846727FD";
name = "May 12, 24 at 16:06";
shapes = (
{
closed = 1;
nodes = (
(100,12,l),
(100,0,l),
(289,0,l),
(803,1500,l),
(619,1500,l)
);
},
{
closed = 1;
nodes = (
(669,1500,l),
(1182,0,l),
(1370,0,l),
(1370,12,l),
(851,1500,l)
);
},
{
closed = 1;
nodes = (
(385,539,l),
(385,373,l),
(1085,373,l),
(1085,539,l)
);
}
);
width = 1470;
},
{
associatedMasterId = m01;
layerId = "0C7EF4D5-873B-4830-BCA3-4B26285AC0BA";
name = "A!";
shapes = (
{
closed = 1;
nodes = (
(377,539,l),
(377,371,l),
(1077,371,l),
(1077,539,l)
);
},
{
closed = 1;
nodes = (
(72,12,l),
(72,0,l),
(286,0,l),
(801,1500,l),
(621,1500,l)
);
},
{
closed = 1;
nodes = (
(655,1500,l),
(1170,0,l),
(1384,0,l),
(1384,12,l),
(835,1500,l)
);
}
);
width = 1456;
},
{
anchors = (
{
name = bottom;
pos = (754,0);
},
{
name = top;
pos = (754,1500);
}
);
layerId = m002;
shapes = (
{
closed = 1;
nodes = (
(424,0,l),
(768,1059,l),
(740,1059,l),
(1084,0,l),
(1488,0,l),
(1488,20,l),
(958,1500,l),
(550,1500,l),
(20,20,l),
(20,0,l)
);
},
{
closed = 1;
nodes = (
(1104,217,l),
(1104,565,l),
(414,565,l),
(414,217,l)
);
}
);
width = 1508;
},
{
anchors = (
{
name = bottom;
pos = (648,0);
},
{
name = top;
pos = (648,1500);
}
);
layerId = m003;
shapes = (
{
closed = 1;
nodes = (
(116,0,l),
(657,1491,l),
(639,1491,l),
(1180,0,l),
(1216,0,l),
(1216,4,l),
(671,1500,l),
(625,1500,l),
(80,4,l),
(80,0,l)
);
},
{
closed = 1;
nodes = (
(1032,439,l),
(1032,469,l),
(264,469,l),
(264,439,l)
);
}
);
width = 1296;
},
{
anchors = (
{
name = bottom;
pos = (654,0);
},
{
name = ogonek;
pos = (1218,0);
},
{
name = top;
pos = (654,1500);
}
);
associatedMasterId = m003;
layerId = "1B51C025-1534-4F98-9E51-0AA23733E32B";
name = "May 28, 24 at 13:01";
shapes = (
{
closed = 1;
nodes = (
(1218,0,l),
(1218,4,l),
(677,1500,l),
(642,1500,l),
(1182,0,l)
);
},
{
closed = 1;
nodes = (
(1041,438,l),
(1041,468,l),
(265,468,l),
(265,438,l)
);
},
{
closed = 1;
nodes = (
(126,0,l),
(666,1500,l),
(631,1500,l),
(90,4,l),
(90,0,l)
);
}
);
visible = 1;
width = 1308;
},
{
anchors = (
{
name = bottom;
pos = (834,0);
},
{
name = ogonek;
pos = (1618,0);
},
{
name = top;
pos = (834,1500);
}
);
associatedMasterId = m002;
layerId = "14CC2426-0B48-4A87-8420-0547EB820B6A";
name = "May 28, 24 at 13:01";
shapes = (
{
closed = 1;
nodes = (
(1618,0,l),
(1618,30,l),
(1058,1500,l),
(664,1500,l),
(1184,0,l)
);
},
{
closed = 1;
nodes = (
(1245,248,l),
(1245,622,l),
(425,622,l),
(425,248,l)
);
},
{
closed = 1;
nodes = (
(484,0,l),
(1004,1500,l),
(610,1500,l),
(50,30,l),
(50,0,l)
);
}
);
width = 1668;
},
{
anchors = (
{
name = bottom;
pos = (801,0);
},
{
name = top;
pos = (801,1500);
}
);
associatedMasterId = m01;
layerId = "92E9BC22-9991-4F42-9C3D-03187A0A3147";
name = "May 28, 24 at 13:03";
shapes = (
{
closed = 1;
nodes = (
(1614,0,l),
(1614,30,l),
(1054,1500,l),
(660,1500,l),
(1180,0,l)
);
},
{
closed = 1;
nodes = (
(1241,248,l),
(1241,622,l),
(421,622,l),
(421,248,l)
);
},
{
closed = 1;
nodes = (
(480,0,l),
(1000,1500,l),
(606,1500,l),
(46,30,l),
(46,0,l)
);
}
);
visible = 1;
width = 1660;
}
);
unicode = 65;
}
{
glyphname = B;
kernLeft = H;
kernRight = B;
layers = (
{
associatedMasterId = m01;
layerId = "CB78293B-D171-4D98-AC08-7259E7E16C32";
name = "May 12, 24 at 16:07";
shapes = (
{
closed = 1;
nodes = (
(180,0,l),
(362,0,l),
(362,1490,l),
(180,1490,l)
);
},
{
closed = 1;
nodes = (
(621,698,ls),
(870,698,o),
(1175,824,o),
(1175,1096,cs),
(1175,1408,o),
(917,1490,o),
(627,1490,cs),
(282,1490,l),
(282,1322,l),
(628,1322,ls),
(852,1322,o),
(993,1274,o),
(993,1078,cs),
(993,900,o),
(842,836,o),
(618,836,cs),
(282,836,l),
(282,698,l)
);
},
{
closed = 1;
nodes = (
(695,0,ls),
(992,0,o),
(1245,103,o),
(1245,418,cs),
(1245,718,o),
(936,826,o),
(691,826,cs),
(282,826,l),
(282,688,l),
(695,688,ls),
(920,688,o),
(1063,624,o),
(1063,435,cs),
(1063,245,o),
(925,168,o),
(695,168,cs),
(282,168,l),
(282,0,l)
);
}
);
width = 1370;
},
{
associatedMasterId = m01;
layerId = "3EEE4731-3514-4772-84DC-5D7E56099DCF";
name = "May 12, 24 at 19:00";
shapes = (
{
closed = 1;
nodes = (
(180,0,l),
(362,0,l),
(362,1500,l),
(180,1500,l)
);
},
{
closed = 1;
nodes = (
(740,702,ls),
(954,702,o),
(1197,843,o),
(1197,1086,cs),
(1197,1362,o),
(962,1500,o),
(778,1500,cs),
(245,1500,l),
(245,1332,l),
(715,1332,ls),
(876,1332,o),
(1019,1255,o),
(1019,1084,cs),
(1019,913,o),
(876,836,o),
(715,836,cs),
(245,836,l),
(245,702,l)
);
},
{
closed = 1;
nodes = (
(295,668,l),
(765,668,ls),
(926,668,o),
(1069,589,o),
(1069,418,cs),
(1069,247,o),
(926,168,o),
(765,168,cs),
(295,168,l),
(295,0,l),
(828,0,ls),
(1012,0,o),
(1247,140,o),
(1247,416,cs),
(1247,659,o),
(1004,802,o),
(790,802,cs),
(295,802,l)
);
}
);
width = 1370;
},
{
associatedMasterId = m01;
layerId = "49B8AD04-B46D-4F40-9AAF-3443A00DF12C";
name = "May 12, 24 at 19:20";
shapes = (
{
closed = 1;
nodes = (
(180,0,l),
(362,0,l),
(362,1500,l),
(180,1500,l)
);
},
{
closed = 1;
nodes = (
(740,702,ls),
(954,702,o),
(1197,843,o),
(1197,1086,cs),
(1197,1362,o),
(972,1500,o),
(734,1500,cs),
(245,1500,l),
(245,1332,l),
(402,1332,o),
(558,1335,o),
(715,1332,cs),
(878,1329,o),
(1019,1255,o),
(1019,1084,cs),
(1019,913,o),
(878,839,o),
(715,836,cs),
(558,833,o),
(402,836,o),
(245,836,c),
(245,702,l)
);
},
{
closed = 1;
nodes = (
(295,668,l),
(452,668,o),
(608,671,o),
(765,668,cs),
(928,665,o),
(1069,589,o),
(1069,418,cs),
(1069,247,o),
(928,171,o),
(765,168,cs),
(608,165,o),
(452,168,o),
(295,168,c),
(295,0,l),
(775,0,ls),
(1026,0,o),
(1247,140,o),
(1247,416,cs),
(1247,659,o),
(1004,802,o),
(790,802,cs),
(295,802,l)
);
}
);
width = 1370;
},
{
associatedMasterId = m01;
layerId = "DD10CC39-0BB3-4878-9A3E-107818868B87";
name = "B!";
shapes = (
{
closed = 1;
nodes = (
(142,0,l),
(324,0,l),
(324,1500,l),
(142,1500,l)
);
},
{
closed = 1;
nodes = (
(702,708,ls),
(916,708,o),
(1159,846,o),
(1159,1089,cs),
(1159,1365,o),
(934,1500,o),
(696,1500,cs),
(207,1500,l),
(207,1332,l),
(364,1332,o),
(520,1335,o),
(677,1332,cs),
(840,1329,o),
(981,1258,o),
(981,1087,cs),
(981,916,o),
(840,845,o),
(677,842,cs),
(520,839,o),
(364,842,o),
(207,842,c),
(207,708,l)
);
},
{
closed = 1;
nodes = (
(257,674,l),
(414,674,o),
(570,677,o),
(727,674,cs),
(890,671,o),
(1031,592,o),
(1031,421,cs),
(1031,250,o),
(890,171,o),
(727,168,cs),
(570,165,o),
(414,168,o),
(257,168,c),
(257,0,l),
(737,0,ls),
(988,0,o),
(1209,143,o),
(1209,419,cs),
(1209,662,o),
(966,808,o),
(752,808,cs),
(257,808,l)
);
}
);
width = 1305;
},
{
anchors = (
{
name = bottom;
pos = (612,0);
},
{
name = top;
pos = (612,1500);
}
);
layerId = m01;
name = Regular;
shapes = (
{
closed = 1;
nodes = (
(741,0,ls),
(986,0,o),
(1207,140,o),
(1207,416,cs),
(1207,589,o),
(1083,712,o),
(937,768,c),
(1060,828,o),
(1157,939,o),
(1157,1092,cs),
(1157,1368,o),
(932,1500,o),
(700,1500,cs),
(148,1500,l),
(148,0,l)
);
},
{
closed = 1;
nodes = (
(322,721,l),
(291,676,l),
(439,676,o),
(615,677,o),
(731,675,cs),
(894,672,o),
(1035,590,o),
(1035,419,cs),
(1035,248,o),
(894,168,o),
(731,165,cs),
(615,163,o),
(439,164,o),
(291,164,c),
(322,119,l)
);
},
{
closed = 1;
nodes = (
(322,1381,l),
(291,1336,l),
(423,1336,o),
(568,1337,o),
(681,1335,cs),
(844,1332,o),
(985,1265,o),
(985,1089,cs),
(985,913,o),
(844,844,o),
(681,841,cs),
(568,839,o),
(423,840,o),
(291,840,c),
(322,795,l)
);
}
);
width = 1285;
},
{
anchors = (
{
name = bottom;
pos = (700,0);
},
{
name = top;
pos = (700,1500);
}
);
layerId = m002;
name = Regular;
shapes = (
{
closed = 1;
nodes = (
(782,0,ls),
(1149,0,o),
(1337,156,o),
(1337,436,cs),
(1337,586,o),
(1237,705,o),
(1095,774,c),
(1207,845,o),
(1287,953,o),
(1287,1094,cs),
(1287,1345,o),
(1107,1500,o),
(765,1500,cs),
(112,1500,l),
(112,0,l)
);
},
{
closed = 1;
nodes = (
(498,652,l),
(463,607,l),
(591,607,o),
(710,607,o),
(787,605,cs),
(906,602,o),
(937,534,o),
(937,477,cs),
(937,420,o),
(906,352,o),
(787,349,cs),
(710,347,o),
(591,347,o),
(463,347,c),
(498,302,l)
);
},
{
closed = 1;
nodes = (
(498,1198,l),
(463,1153,l),
(571,1153,o),
(665,1153,o),
(737,1151,cs),
(852,1148,o),
(887,1093,o),
(887,1031,cs),
(887,969,o),
(852,914,o),
(737,911,cs),
(665,909,o),
(571,909,o),
(463,909,c),
(498,864,l)
);
}
);
width = 1381;
},
{
anchors = (
{
name = bottom;
pos = (602,0);
},
{
name = top;
pos = (602,1500);
}
);
layerId = m003;
name = Regular;
shapes = (
{
closed = 1;
nodes = (
(680,0,ls),
(921,0,o),
(1120,122,o),
(1120,386,cs),
(1120,612,o),
(975,734,o),
(782,764,c),
(946,809,o),
(1070,922,o),
(1070,1121,cs),
(1070,1387,o),
(849,1500,o),
(604,1500,cs),
(164,1500,l),
(164,0,l)
);
},
{
closed = 1;
nodes = (
(196,767,l),
(171,742,l),
(341,742,o),
(510,742,o),
(680,742,cs),
(840,742,o),
(1088,678,o),
(1088,386,cs),
(1088,94,o),
(840,30,o),
(680,30,cs),
(510,30,o),
(341,30,o),
(171,30,c),
(196,5,l)
);
},
{
closed = 1;
nodes = (
(196,1495,l),
(171,1470,l),
(315,1470,o),
(460,1470,o),
(604,1470,cs),
(756,1470,o),
(1038,1415,o),
(1038,1121,cs),
(1038,827,o),
(756,772,o),
(604,772,cs),
(460,772,o),
(315,772,o),
(171,772,c),
(196,747,l)
);
}
);
width = 1198;
},
{
anchors = (
{
name = bottom;
pos = (594,0);
},
{
name = top;
pos = (594,1500);
}
);
associatedMasterId = m003;
layerId = "25975A49-D170-4767-BAB5-2A388E29E501";
name = "May 28, 24 at 12:25";
shapes = (
{
closed = 1;
nodes = (
(682,0,ls),
(925,0,o),
(1114,111,o),
(1114,387,cs),
(1114,634,o),
(895,773,o),
(619,773,cs),
(164,773,l),
(164,743,l),
(335,743,o),
(458,743,o),
(629,743,cs),
(805,743,o),
(1082,662,o),
(1082,390,cs),
(1082,86,o),
(843,30,o),
(672,30,cs),
(515,30,o),
(321,30,o),
(164,30,c),
(164,0,l)
);
},
{
closed = 1;
nodes = (
(196,0,l),
(196,1500,l),
(164,1500,l),
(164,0,l)
);
},
{
closed = 1;
nodes = (
(579,743,ls),
(880,743,o),
(1062,904,o),
(1062,1121,cs),
(1062,1376,o),
(860,1500,o),
(607,1500,cs),
(164,1500,l),
(164,1470,l),
(321,1470,o),
(451,1470,o),
(608,1470,cs),
(779,1470,o),
(1030,1401,o),
(1030,1118,cs),
(1030,878,o),
(782,773,o),
(599,773,cs),
(445,773,o),
(318,773,o),
(164,773,c),
(164,743,l)
);
}
);
width = 1194;
},
{
anchors = (
{
name = bottom;
pos = (594,0);
},
{
name = top;
pos = (594,1500);
}
);
associatedMasterId = m003;
layerId = "0AF3F956-AF01-42A0-B00B-3E611C26871D";
name = "May 28, 24 at 12:29";
shapes = (
{
closed = 1;
nodes = (
(1448,792,ls),
(1448,1033,o),
(1326,1225,o),
(1062,1225,cs),
(798,1225,o),
(676,1033,o),
(676,792,cs),
(676,275,l),
(706,275,l),
(706,446,o),
(706,621,o),
(706,792,cs),
(706,952,o),
(770,1193,o),
(1062,1193,cs),
(1354,1193,o),
(1418,952,o),
(1418,792,cs),
(1418,635,o),
(1418,432,o),
(1418,275,c),
(1448,275,l)
);
},
{
closed = 1;
nodes = (
(1389,307,l),
(-111,307,l),
(-111,275,l),
(1389,275,l)
);
},
{
closed = 1;
nodes = (
(646,690,ls),
(646,991,o),
(504,1173,o),
(268,1173,cs),
(13,1173,o),
(-111,981,o),
(-111,714,cs),
(-111,275,l),
(-81,275,l),
(-81,432,o),
(-81,558,o),
(-81,715,cs),
(-81,900,o),
(-12,1141,o),
(271,1141,cs),
(530,1141,o),
(616,893,o),
(616,710,cs),
(616,556,o),
(616,429,o),
(616,275,c),
(646,275,l)
);
}
);
width = 1374;
},
{
anchors = (
{
name = bottom;
pos = (594,0);
},
{
name = top;
pos = (594,1500);
}
);
associatedMasterId = m003;
layerId = "229B2DFB-3B09-47E6-898D-CFCD7C6D5C55";
name = "May 28, 24 at 12:31";
shapes = (
{
closed = 1;
nodes = (
(1389,792,ls),
(1389,1033,o),
(1267,1225,o),
(1003,1225,cs),
(739,1225,o),
(617,1033,o),
(617,792,cs),
(617,275,l),
(647,275,l),
(647,446,o),
(647,621,o),
(647,792,cs),
(647,952,o),
(711,1193,o),
(1003,1193,cs),
(1295,1193,o),
(1359,952,o),
(1359,792,cs),
(1359,635,o),
(1359,432,o),
(1359,275,c),
(1389,275,l)
);
},
{
closed = 1;
nodes = (
(1389,307,l),
(-111,307,l),
(-111,275,l),
(1389,275,l)
);
},
{
closed = 1;
nodes = (
(647,716,ls),
(647,961,o),
(534,1175,o),
(268,1175,cs),
(2,1175,o),
(-111,961,o),
(-111,716,cs),
(-111,275,l),
(-81,275,l),
(-81,446,o),
(-81,545,o),
(-81,716,cs),
(-81,868,o),
(-26,1143,o),
(268,1143,cs),
(562,1143,o),
(617,868,o),
(617,716,cs),
(617,559,o),
(617,432,o),
(617,275,c),
(647,275,l)
);
}
);
width = 1374;
},
{
anchors = (
{
name = bottom;
pos = (504,0);
},
{
name = top;
pos = (504,1500);
}
);
associatedMasterId = m003;
layerId = "0AF03E0C-839D-48D8-832A-5B35E2B29BC4";
name = "May 28, 24 at 15:54";
shapes = (
{
closed = 1;
nodes = (
(681,0,ls),
(922,0,o),
(1114,122,o),
(1114,386,cs),
(1114,650,o),
(922,772,o),
(681,772,cs),
(164,772,l),
(164,742,l),
(335,742,o),
(510,742,o),
(681,742,cs),
(841,742,o),
(1082,678,o),
(1082,386,cs),
(1082,94,o),
(841,30,o),
(681,30,cs),
(524,30,o),
(321,30,o),
(164,30,c),
(164,0,l)
);
},
{
closed = 1;
nodes = (
(196,0,l),
(196,1500,l),
(164,1500,l),
(164,0,l)
);
},
{
closed = 1;
nodes = (
(605,742,ls),
(850,742,o),
(1064,855,o),
(1064,1121,cs),
(1064,1387,o),
(850,1500,o),
(605,1500,cs),
(164,1500,l),
(164,1470,l),
(335,1470,o),
(434,1470,o),
(605,1470,cs),
(757,1470,o),
(1032,1415,o),
(1032,1121,cs),
(1032,827,o),
(757,772,o),
(605,772,cs),
(448,772,o),
(321,772,o),
(164,772,c),
(164,742,l)
);
}
);
width = 1194;
},
{
anchors = (
{
name = bottom;
pos = (696,0);
},
{
name = top;
pos = (696,1500);
}
);
associatedMasterId = m002;
layerId = "52FF8419-6A95-4E3F-8AA4-DB71F732F47B";
name = "May 30, 24 at 9:01";
shapes = (
{
closed = 1;
nodes = (
(804,0,ls),
(1141,0,o),
(1333,160,o),
(1333,436,cs),
(1333,689,o),
(1044,842,o),
(779,842,cs),
(122,842,l),
(122,599,l),
(279,599,o),
(630,603,o),
(787,599,cs),
(906,596,o),
(937,532,o),
(937,481,cs),
(937,430,o),
(906,366,o),
(787,363,cs),
(630,359,o),
(279,363,o),
(122,363,c),
(122,0,l)
);
},
{
closed = 1;
nodes = (
(524,0,l),
(524,1500,l),
(122,1500,l),
(122,0,l)
);
},
{
closed = 1;
nodes = (
(729,674,ls),
(942,674,o),
(1283,829,o),
(1283,1094,cs),
(1283,1347,o),
(1091,1500,o),
(763,1500,cs),
(122,1500,l),
(122,1137,l),
(279,1137,o),
(580,1141,o),
(737,1137,cs),
(852,1134,o),
(887,1083,o),
(887,1027,cs),
(887,971,o),
(852,920,o),
(737,917,cs),
(580,913,o),
(279,917,o),
(122,917,c),
(122,674,l)
);
}
);
width = 1403;
},
{
anchors = (
{
name = bottom;
pos = (696,0);
},
{
name = top;
pos = (696,1500);
}
);
associatedMasterId = m002;
layerId = "9EE8FD88-0331-4194-98DB-DAFD0DBF0BCF";
name = "May 30, 24 at 9:02";
shapes = (
{
closed = 1;
nodes = (
(804,0,ls),
(1141,0,o),
(1333,160,o),
(1333,436,cs),
(1333,689,o),
(1044,842,o),
(779,842,cs),
(108,842,l),
(108,599,l),
(265,599,o),
(630,603,o),
(787,599,cs),
(906,596,o),
(937,532,o),
(937,481,cs),
(937,430,o),
(906,366,o),
(787,363,cs),
(630,359,o),
(265,363,o),
(108,363,c),
(108,0,l)
);
},
{
closed = 1;
nodes = (
(488,0,l),
(488,1500,l),
(108,1500,l),
(108,0,l)
);
},
{
closed = 1;
nodes = (
(729,674,ls),
(942,674,o),
(1283,829,o),
(1283,1094,cs),
(1283,1347,o),
(1091,1500,o),
(763,1500,cs),
(108,1500,l),
(108,1137,l),
(265,1137,o),
(580,1141,o),
(737,1137,cs),
(852,1134,o),
(887,1083,o),
(887,1027,cs),
(887,971,o),
(852,920,o),
(737,917,cs),
(580,913,o),
(265,917,o),
(108,917,c),
(108,674,l)
);
}
);
width = 1403;
},
{
anchors = (
{
name = bottom;
pos = (710,0);
},
{
name = top;
pos = (710,1500);
}
);
associatedMasterId = m002;
layerId = "9F6574DB-F79C-4841-9B12-ECE1061686C1";
name = "May 30, 24 at 10:56";
shapes = (
{
closed = 1;
nodes = (
(792,0,ls),
(1159,0,o),
(1347,156,o),
(1347,436,cs),
(1347,681,o),
(1080,842,o),
(802,842,cs),
(122,842,l),
(122,599,l),
(279,599,o),
(644,603,o),
(801,599,cs),
(920,596,o),
(951,532,o),
(951,481,cs),
(951,430,o),
(920,366,o),
(801,363,cs),
(644,359,o),
(279,363,o),
(122,363,c),
(122,0,l)
);
},
{
closed = 1;
nodes = (
(502,0,l),
(502,1500,l),
(122,1500,l),
(122,0,l)
);
},
{
closed = 1;
nodes = (
(748,674,ls),
(1000,674,o),
(1297,822,o),
(1297,1094,cs),
(1297,1345,o),
(1117,1500,o),
(775,1500,cs),
(122,1500,l),
(122,1137,l),
(279,1137,o),
(594,1141,o),
(751,1137,cs),
(866,1134,o),
(901,1083,o),
(901,1027,cs),
(901,971,o),
(866,920,o),
(751,917,cs),
(594,913,o),
(279,917,o),
(122,917,c),
(122,674,l)
);
}
);
width = 1419;
},
{
anchors = (
{
name = bottom;
pos = (716,0);
},
{
name = top;
pos = (716,1500);
}
);
associatedMasterId = m002;
layerId = "108CB393-E4A2-4ED8-BF72-23BC4792743B";
name = "Jun 7, 24 at 19:43";
shapes = (
{
closed = 1;
nodes = (
(798,0,ls),
(1165,0,o),
(1353,156,o),
(1353,436,cs),
(1353,681,o),
(1086,842,o),
(808,842,cs),
(128,842,l),
(128,605,l),
(285,605,o),
(650,609,o),
(807,605,cs),
(926,602,o),
(957,534,o),
(957,477,cs),
(957,420,o),
(926,352,o),
(807,349,cs),
(650,345,o),
(285,349,o),
(128,349,c),
(128,0,l)
);
},
{
closed = 1;
nodes = (
(508,0,l),
(508,1500,l),
(128,1500,l),
(128,0,l)
);
},
{
closed = 1;
nodes = (
(754,674,ls),
(1006,674,o),
(1303,822,o),
(1303,1094,cs),
(1303,1345,o),
(1123,1500,o),
(781,1500,cs),
(128,1500,l),
(128,1151,l),
(285,1151,o),
(600,1155,o),
(757,1151,cs),
(872,1148,o),
(907,1093,o),
(907,1031,cs),
(907,969,o),
(872,914,o),
(757,911,cs),
(600,907,o),
(285,911,o),
(128,911,c),
(128,674,l)
);
}
);
width = 1413;
},
{
anchors = (
{
name = bottom;
pos = (612,0);
},
{
name = top;
pos = (612,1500);
}
);
associatedMasterId = m01;
layerId = "D1AA9663-B70F-4CE6-9982-D810FB1F001F";
name = "Jun 7, 24 at 19:50";
shapes = (
{
closed = 1;
nodes = (
(741,0,ls),
(986,0,o),
(1207,140,o),
(1207,416,cs),
(1207,659,o),
(964,802,o),
(756,802,cs),
(148,802,l),
(148,675,l),
(305,675,o),
(574,678,o),
(731,675,cs),
(894,672,o),
(1035,590,o),
(1035,419,cs),
(1035,248,o),
(894,168,o),
(731,165,cs),
(574,162,o),
(305,165,o),
(148,165,c),
(148,0,l)
);
},
{
closed = 1;
nodes = (
(322,0,l),
(322,1500,l),
(148,1500,l),
(148,0,l)
);
},
{
closed = 1;
nodes = (
(706,714,ls),
(914,714,o),
(1157,849,o),
(1157,1092,cs),
(1157,1368,o),
(932,1500,o),
(700,1500,cs),
(148,1500,l),
(148,1335,l),
(305,1335,o),
(524,1338,o),
(681,1335,cs),
(844,1332,o),
(985,1265,o),
(985,1089,cs),
(985,913,o),
(844,844,o),
(681,841,cs),
(524,838,o),
(305,841,o),
(148,841,c),
(148,714,l)
);
}
);
width = 1297;
}
);
unicode = 66;
}
{
glyphname = C;
kernLeft = O;
kernRight = C;
layers = (
{
anchors = (
{
name = bottom;
pos = (800,0);
},
{
name = top;
pos = (800,1500);
}
);
layerId = m01;
shapes = (
{
closed = 1;
nodes = (
(1033,-24,o),
(1215,73,o),
(1337,217,c),
(1220,330,l),
(1120,218,o),
(986,144,o),
(800,144,cs),
(447,144,o),
(256,427,o),
(256,751,cs),
(256,1075,o),
(447,1356,o),
(800,1356,cs),
(986,1356,o),
(1118,1284,o),
(1218,1172,c),
(1336,1285,l),
(1214,1429,o),
(1033,1524,o),
(800,1524,cs),
(345,1524,o),
(78,1147,o),
(78,751,cs),
(78,353,o),
(345,-24,o),
(800,-24,cs)
);
}
);
width = 1425;
},
{
associatedMasterId = m01;
layerId = "2E83A5DF-EAF7-41CB-9E70-CDF48D24DB9C";
name = "May 11, 24 at 15:29";
shapes = (
{
closed = 1;
nodes = (
(1235,-24,o),
(1495,368,o),
(1495,751,cs),
(1495,1132,o),
(1235,1524,o),
(778,1524,cs),
(320,1524,o),
(60,1132,o),
(60,751,cs),
(60,368,o),
(320,-24,o),
(778,-24,cs)
);
},
{
closed = 1;
nodes = (
(428,144,o),
(245,423,o),
(245,751,cs),
(245,1079,o),
(428,1356,o),
(778,1356,cs),
(1127,1356,o),
(1310,1079,o),
(1310,751,cs),
(1310,423,o),
(1127,144,o),
(778,144,cs)
);
},
{
closed = 1;
nodes = (
(1520,10,l),
(2262,752,l),
(1520,1494,l),
(778,752,l)
);
}
);
width = 1558;
},
{
associatedMasterId = m01;
layerId = "4AD352B9-5AF7-438D-96C3-2AD9E1AF7151";
name = "May 11, 24 at 15:36";
shapes = (
{
closed = 1;
nodes = (
(1007,-24,o),
(1186,74,o),
(1308,220,c),
(1187,341,l),
(1098,221,o),
(961,144,o),
(778,144,cs),
(428,144,o),
(245,423,o),
(245,751,cs),
(245,1079,o),
(428,1356,o),
(778,1356,cs),
(961,1356,o),
(1099,1280,o),
(1188,1160,c),
(1308,1280,l),
(1186,1426,o),
(1007,1524,o),
(778,1524,cs),
(320,1524,o),
(60,1132,o),
(60,751,cs),
(60,368,o),
(320,-24,o),
(778,-24,cs)
);
}
);
width = 1368;
},
{
associatedMasterId = m01;
layerId = "2BD9ED81-BB04-4620-A54F-91B8935E0EA2";
name = "May 12, 24 at 12:38";
shapes = (
{
closed = 1;
nodes = (
(1037,-24,o),
(1216,73,o),
(1338,218,c),
(1204,327,l),
(1114,215,o),
(980,144,o),
(806,144,cs),
(458,144,o),
(271,426,o),
(271,751,cs),
(271,1076,o),
(458,1356,o),
(806,1356,cs),
(980,1356,o),
(1113,1286,o),
(1203,1175,c),
(1337,1283,l),
(1215,1427,o),
(1036,1524,o),
(806,1524,cs),
(343,1524,o),
(86,1135,o),
(86,751,cs),
(86,365,o),
(343,-24,o),
(806,-24,cs)
);
}
);
width = 1427;
},
{
associatedMasterId = m01;
layerId = "C995030E-C08C-4A27-AC74-77831BADD58C";
name = C;
shapes = (
{
closed = 1;
nodes = (
(1022,-24,o),
(1203,72,o),
(1325,217,c),
(1200,342,l),
(1110,222,o),
(972,144,o),
(790,144,cs),
(442,144,o),
(255,426,o),
(255,751,cs),
(255,1076,o),
(442,1356,o),
(790,1356,cs),
(971,1356,o),
(1109,1280,o),
(1199,1161,c),
(1323,1285,l),
(1201,1429,o),
(1021,1524,o),
(790,1524,cs),
(327,1524,o),
(70,1145,o),
(70,751,cs),
(70,355,o),
(327,-24,o),
(790,-24,cs)
);
}
);
width = 1455;
},
{
associatedMasterId = m01;
layerId = "0E526CCF-B0CB-4D2C-AC1E-9FEBCE1EF6A2";
name = "May 20, 24 at 16:30";
shapes = (
{
closed = 1;
nodes = (
(442,144,o),
(255,426,o),
(255,751,cs),
(255,1076,o),
(442,1356,o),
(790,1356,cs),
(971,1356,o),
(1105,1276,o),
(1204,1166,c),
(1323,1285,l),
(1201,1429,o),
(1021,1524,o),
(790,1524,cs),
(327,1524,o),
(70,1145,o),
(70,751,cs),
(70,355,o),
(327,-24,o),
(790,-24,cs),
(1021,-24,o),
(1203,72,o),
(1325,217,c),
(1206,336,l),
(1107,226,o),
(973,144,o),
(790,144,cs)
);
}
);
width = 1445;
},
{
anchors = (
{
name = bottom;
pos = (796,0);
},
{
name = top;
pos = (796,1500);
}
);
layerId = m002;
shapes = (
{
closed = 1;
nodes = (
(1064,-32,o),
(1247,79,o),
(1386,253,c),
(1072,523,l),
(1016,448,o),
(929,382,o),
(796,382,cs),
(587,382,o),
(457,548,o),
(457,750,cs),
(457,952,o),
(587,1118,o),
(796,1118,cs),
(929,1118,o),
(1016,1052,o),
(1072,977,c),
(1386,1247,l),
(1247,1421,o),
(1064,1532,o),
(796,1532,cs),
(307,1532,o),
(42,1146,o),
(42,750,cs),
(42,352,o),
(307,-32,o),
(796,-32,cs)
);
}
);
width = 1438;
},
{
anchors = (
{
name = bottom;
pos = (788,0);
},
{
name = top;
pos = (788,1500);
}
);
layerId = m003;
shapes = (
{
closed = 1;
nodes = (
(1016,-18,o),
(1195,79,o),
(1316,226,c),
(1290,246,l),
(1174,104,o),
(997,13,o),
(788,13,cs),
(379,13,o),
(110,356,o),
(110,751,cs),
(110,1147,o),
(379,1487,o),
(788,1487,cs),
(997,1487,o),
(1174,1396,o),
(1290,1254,c),
(1316,1274,l),
(1195,1421,o),
(1016,1518,o),
(788,1518,cs),
(332,1518,o),
(78,1131,o),
(78,751,cs),
(78,369,o),
(332,-18,o),
(788,-18,cs)
);
}
);
width = 1424;
},
{
anchors = (
{
name = bottom;
pos = (813,0);
},
{
name = center;
pos = (813,750);
},
{
name = ogonek;
pos = (1425,0);
},
{
name = top;
pos = (813,1500);
},
{
name = topright;
pos = (1425,1500);
}
);
associatedMasterId = m002;
layerId = "692BD257-2B72-4240-A12A-7B84286DD92C";
name = "May 28, 24 at 10:46";
shapes = (
{
closed = 1;
nodes = (
(557,376,o),
(421,547,o),
(421,750,cs),
(421,953,o),
(557,1124,o),
(769,1124,cs),
(914,1124,o),
(997,1047,o),
(1061,976,c),
(1352,1254,l),
(1207,1426,o),
(1025,1524,o),
(769,1524,cs),
(282,1524,o),
(17,1138,o),
(17,750,cs),
(17,360,o),
(282,-24,o),
(769,-24,cs),
(1025,-24,o),
(1207,74,o),
(1352,246,c),
(1061,524,l),
(997,453,o),
(914,376,o),
(769,376,cs)
);
},
{
closed = 1;
nodes = (
(1510,10,l),
(2252,752,l),
(1510,1494,l),
(768,752,l)
);
}
);
width = 1536;
},
{
anchors = (
{
name = bottom;
pos = (813,0);
},
{
name = center;
pos = (813,750);
},
{
name = ogonek;
pos = (1425,0);
},
{
name = top;
pos = (813,1500);
},
{
name = topright;
pos = (1425,1500);
}
);
associatedMasterId = m002;
layerId = "B8D5817A-0BD3-4C4A-8ACC-38ED24EBCA9B";
name = "May 28, 24 at 10:47";
shapes = (
{
closed = 1;
nodes = (
(557,376,o),
(421,547,o),
(421,750,cs),
(421,953,o),
(557,1124,o),
(769,1124,cs),
(874,1124,o),
(961,1081,o),
(1025,1010,c),
(1314,1297,l),
(1171,1444,o),
(999,1524,o),
(769,1524,cs),
(282,1524,o),
(17,1138,o),
(17,750,cs),
(17,360,o),
(282,-24,o),
(769,-24,cs),
(1025,-24,o),
(1207,74,o),
(1352,246,c),
(1061,524,l),
(997,453,o),
(914,376,o),
(769,376,cs)
);
}
);
width = 1536;
},
{
anchors = (
{
name = bottom;
pos = (713,0);
},
{
name = top;
pos = (713,1500);
}
);
associatedMasterId = m003;
layerId = "23192FDE-0DBA-480C-8105-2278AD164489";
name = "May 28, 24 at 10:57";
shapes = (
{
closed = 1;
nodes = (
(1040,-24,o),
(1219,73,o),
(1341,219,c),
(1318,242,l),
(1198,99,o),
(1022,7,o),
(808,7,cs),
(392,7,o),
(122,352,o),
(122,751,cs),
(122,1151,o),
(392,1493,o),
(808,1493,cs),
(1022,1493,o),
(1197,1403,o),
(1317,1261,c),
(1339,1283,l),
(1218,1428,o),
(1039,1524,o),
(808,1524,cs),
(345,1524,o),
(90,1135,o),
(90,751,cs),
(90,365,o),
(345,-24,o),
(808,-24,cs)
);
}
);
width = 1616;
},
{
anchors = (
{
name = bottom;
pos = (820,0);
},
{
name = center;
pos = (820,750);
},
{
name = ogonek;
pos = (1432,0);
},
{
name = top;
pos = (820,1500);
},
{
name = topright;
pos = (1432,1500);
}
);
associatedMasterId = m002;
layerId = "A4D1E4E8-E8AA-415C-89C6-752B7F49F97F";
name = "May 28, 24 at 21:24";
shapes = (
{
closed = 1;
nodes = (
(1383,-32,o),
(1648,352,o),
(1648,750,cs),
(1648,1146,o),
(1383,1532,o),
(894,1532,cs),
(405,1532,o),
(140,1146,o),
(140,750,cs),
(140,352,o),
(405,-32,o),
(894,-32,cs)
);
},
{
closed = 1;
nodes = (
(683,378,o),
(552,546,o),
(552,750,cs),
(552,954,o),
(683,1122,o),
(894,1122,cs),
(1107,1122,o),
(1236,954,o),
(1236,750,cs),
(1236,546,o),
(1107,378,o),
(894,378,cs)
);
}
);
visible = 1;
width = 1640;
},
{
anchors = (
{
name = bottom;
pos = (820,0);
},
{
name = top;
pos = (820,1500);
}
);
associatedMasterId = m002;
layerId = "4B51374D-AF1C-4EC7-A8E1-95F02439454D";
name = "May 28, 24 at 21:25";
shapes = (
{
closed = 1;
nodes = (
(1662,10,l),
(2404,752,l),
(1662,1494,l),
(920,752,l)
);
},
{
closed = 1;
nodes = (
(1307,-24,o),
(1572,360,o),
(1572,750,cs),
(1572,1138,o),
(1307,1524,o),
(820,1524,cs),
(333,1524,o),
(68,1138,o),
(68,750,cs),
(68,360,o),
(333,-24,o),
(820,-24,cs)
);
},
{
closed = 1;
nodes = (
(608,376,o),
(472,547,o),
(472,750,cs),
(472,953,o),
(608,1124,o),
(820,1124,cs),
(1032,1124,o),
(1168,953,o),
(1168,750,cs),
(1168,547,o),
(1032,376,o),
(820,376,cs)
);
}
);
width = 1423;
},
{
anchors = (
{
name = bottom;
pos = (820,0);
},
{
name = top;
pos = (820,1500);
}
);
associatedMasterId = m002;
layerId = "04705858-D300-4A0B-9189-3E02C56020A2";
name = "May 30, 24 at 20:07";
shapes = (
{
closed = 1;
nodes = (
(1086,-24,o),
(1276,92,o),
(1403,260,c),
(1112,528,l),
(1057,464,o),
(972,376,o),
(820,376,cs),
(608,376,o),
(472,547,o),
(472,750,cs),
(472,953,o),
(608,1124,o),
(820,1124,cs),
(972,1124,o),
(1057,1036,o),
(1112,972,c),
(1403,1240,l),
(1276,1408,o),
(1086,1524,o),
(820,1524,cs),
(333,1524,o),
(68,1138,o),
(68,750,cs),
(68,360,o),
(333,-24,o),
(820,-24,cs)
);
}
);
width = 1461;
},
{
anchors = (
{
name = bottom;
pos = (798,0);
},
{
name = top;
pos = (798,1500);
}
);
associatedMasterId = m003;
layerId = "6B7B0592-FD0E-4640-ABF9-CE58F1CE922C";
name = "May 30, 24 at 20:13";
shapes = (
{
closed = 1;
nodes = (
(1030,-24,o),
(1209,73,o),
(1331,219,c),
(1308,242,l),
(1188,99,o),
(1012,7,o),
(798,7,cs),
(382,7,o),
(112,352,o),
(112,751,cs),
(112,1151,o),
(382,1493,o),
(798,1493,cs),
(1012,1493,o),
(1187,1403,o),
(1307,1261,c),
(1329,1283,l),
(1208,1428,o),
(1029,1524,o),
(798,1524,cs),
(335,1524,o),
(80,1135,o),
(80,751,cs),
(80,365,o),
(335,-24,o),
(798,-24,cs)
);
}
);
width = 1451;
},
{
anchors = (
{
name = bottom;
pos = (806,0);
},
{
name = top;
pos = (806,1500);
}
);
associatedMasterId = m002;
layerId = "436CE79F-69FF-4721-A7A5-99C1023E5F37";
name = "Jun 9, 24 at 21:07";
shapes = (
{
closed = 1;
nodes = (
(1074,-32,o),
(1257,79,o),
(1396,253,c),
(1085,521,l),
(1029,445,o),
(943,378,o),
(806,378,cs),
(595,378,o),
(464,546,o),
(464,750,cs),
(464,954,o),
(595,1122,o),
(806,1122,cs),
(943,1122,o),
(1029,1055,o),
(1085,979,c),
(1396,1247,l),
(1257,1421,o),
(1074,1532,o),
(806,1532,cs),
(317,1532,o),
(52,1146,o),
(52,750,cs),
(52,352,o),
(317,-32,o),
(806,-32,cs)
);
}
);
width = 1456;
}
);
unicode = 67;
}
{
glyphname = D;
kernLeft = H;
kernRight = O;
layers = (
{
anchors = (
{
name = bottom;
pos = (598,0);
},
{
name = top;
pos = (598,1500);
}
);
layerId = m01;
name = Regular;
shapes = (
{
closed = 1;
nodes = (
(640,0,ls),
(1119,0,o),
(1346,388,o),
(1346,751,cs),
(1346,1112,o),
(1119,1500,o),
(640,1500,cs),
(148,1500,l),
(148,0,l)
);
},
{
closed = 1;
nodes = (
(324,1381,l),
(293,1336,l),
(407,1337,o),
(537,1337,o),
(626,1336,cs),
(989,1330,o),
(1168,1063,o),
(1168,751,cs),
(1168,439,o),
(989,170,o),
(626,164,cs),
(537,163,o),
(407,163,o),
(293,164,c),
(324,119,l)
);
}
);
width = 1416;
},
{
associatedMasterId = m01;
layerId = "F93675DB-E26C-401B-B176-A5482AD88ADF";
name = "May 11, 24 at 16:34";
shapes = (
{
closed = 1;
nodes = (
(180,0,l),
(362,0,l),
(362,1500,l),
(180,1500,l)
);
},
{
closed = 1;
nodes = (
(620,0,ls),
(1059,0,o),
(1315,292,o),
(1315,739,cs),
(1315,1191,o),
(1032,1500,o),
(579,1500,cs),
(242,1500,l),
(242,1332,l),
(579,1332,ls),
(943,1332,o),
(1133,1052,o),
(1133,739,cs),
(1133,401,o),
(963,168,o),
(605,168,cs),
(242,168,l),
(242,0,l)
);
}
);
width = 1430;
},
{
associatedMasterId = m01;
layerId = "47721890-AC6A-4C39-9F22-8A240CF4A4BA";
name = "May 11, 24 at 16:28";
shapes = (
{
closed = 1;
nodes = (
(120,0,l),
(302,0,l),
(302,1500,l),
(120,1500,l)
);
},
{
closed = 1;
nodes = (
(560,0,ls),
(999,0,o),
(1255,292,o),
(1255,739,cs),
(1255,1191,o),
(972,1500,o),
(519,1500,cs),
(182,1500,l),
(182,1328,l),
(294,1330,o),
(407,1334,o),
(519,1332,cs),
(883,1326,o),
(1073,1052,o),
(1073,739,cs),
(1073,401,o),
(903,174,o),
(545,168,cs),
(424,166,o),
(303,170,o),
(182,172,c),
(182,0,l)
);
}
);
width = 1425;
},
{
associatedMasterId = m01;
layerId = "DFA9D4B7-7D32-45F6-BCE7-E1F804DE100D";
name = "May 11, 24 at 16:36";
shapes = (
{
closed = 1;
nodes = (
(120,0,l),
(302,0,l),
(302,1500,l),
(120,1500,l)
);
},
{
closed = 1;
nodes = (
(617,0,ls),
(1076,0,o),
(1309,296,o),
(1309,739,cs),
(1309,1191,o),
(1030,1500,o),
(580,1500,cs),
(182,1500,l),
(182,1328,l),
(294,1330,o),
(463,1334,o),
(575,1332,cs),
(949,1326,o),
(1127,1052,o),
(1127,739,cs),
(1127,391,o),
(981,174,o),
(605,168,cs),
(484,166,o),
(303,170,o),
(182,172,c),
(182,0,l)
);
}
);
width = 1425;
},
{
anchors = (
{
name = bottom;
pos = (787,0);
},
{
name = top;
pos = (787,1500);
}
);
layerId = m002;
name = Regular;
shapes = (
{
closed = 1;
nodes = (
(658,0,ls),
(1173,0,o),
(1434,336,o),
(1434,745,cs),
(1434,1155,o),
(1170,1500,o),
(672,1500,cs),
(112,1500,l),
(112,0,l)
);
},
{
closed = 1;
nodes = (
(498,1146,l),
(453,1101,l),
(514,1101,o),
(574,1100,o),
(635,1100,cs),
(871,1097,o),
(1030,982,o),
(1030,750,cs),
(1030,518,o),
(873,403,o),
(635,400,cs),
(574,400,o),
(514,399,o),
(453,399,c),
(498,354,l)
);
}
);
width = 1476;
},
{
anchors = (
{
name = bottom;
pos = (588,0);
},
{
name = top;
pos = (588,1500);
}
);
layerId = m003;
name = Regular;
shapes = (
{
closed = 1;
nodes = (
(536,0,ls),
(1032,0,o),
(1248,368,o),
(1248,751,cs),
(1248,1132,o),
(1012,1500,o),
(530,1500,cs),
(164,1500,l),
(164,0,l)
);
},
{
closed = 1;
nodes = (
(196,1495,l),
(171,1470,l),
(293,1470,o),
(410,1470,o),
(532,1470,cs),
(1003,1470,o),
(1216,1097,o),
(1216,751,cs),
(1216,409,o),
(1023,30,o),
(538,30,cs),
(414,30,o),
(295,30,o),
(171,30,c),
(196,5,l)
);
}
);
width = 1328;
},
{
anchors = (
{
name = bottom;
pos = (803,0);
},
{
name = top;
pos = (803,1500);
}
);
associatedMasterId = m002;
layerId = "877E890C-E621-4B3D-8973-FD0ADD5960AC";
name = "Jun 7, 24 at 19:51";
shapes = (
{
closed = 1;
nodes = (
(674,0,ls),
(1189,0,o),
(1456,336,o),
(1456,745,cs),
(1456,1155,o),
(1186,1500,o),
(688,1500,cs),
(128,1500,l),
(128,1100,l),
(297,1100,o),
(473,1102,o),
(651,1100,cs),
(887,1097,o),
(1046,982,o),
(1046,750,cs),
(1046,518,o),
(889,403,o),
(651,400,cs),
(473,398,o),
(297,400,o),
(128,400,c),
(128,0,l)
);
},
{
closed = 1;
nodes = (
(514,0,l),
(514,1500,l),
(128,1500,l),
(128,0,l)
);
}
);
width = 1516;
},
{
anchors = (
{
name = bottom;
pos = (598,0);
},
{
name = top;
pos = (598,1500);
}
);
associatedMasterId = m01;
layerId = "888EFE84-36BB-4F67-90C9-534606C01A8E";
name = "Jun 7, 24 at 19:51";
shapes = (
{
closed = 1;
nodes = (
(640,0,ls),
(1119,0,o),
(1346,388,o),
(1346,751,cs),
(1346,1112,o),
(1119,1500,o),
(640,1500,cs),
(148,1500,l),
(148,1334,l),
(278,1335,o),
(496,1338,o),
(626,1336,cs),
(989,1330,o),
(1168,1063,o),
(1168,751,cs),
(1168,439,o),
(989,170,o),
(626,164,cs),
(496,162,o),
(278,165,o),
(148,166,c),
(148,0,l)
);
},
{
closed = 1;
nodes = (
(324,0,l),
(324,1500,l),
(148,1500,l),
(148,0,l)
);
}
);
width = 1424;
},
{
anchors = (
{
name = bottom;
pos = (588,0);
},
{
name = top;
pos = (588,1500);
}
);
associatedMasterId = m003;
layerId = "B46B9ECD-2800-4E1B-96BA-7419ADC9C9C7";
name = "Jun 7, 24 at 19:52";
shapes = (
{
closed = 1;
nodes = (
(536,0,ls),
(1032,0,o),
(1248,368,o),
(1248,751,cs),
(1248,1132,o),
(1012,1500,o),
(530,1500,cs),
(164,1500,l),
(164,1470,l),
(287,1470,o),
(409,1470,o),
(532,1470,cs),
(1003,1470,o),
(1216,1097,o),
(1216,751,cs),
(1216,409,o),
(1023,30,o),
(538,30,cs),
(413,30,o),
(289,30,o),
(164,30,c),
(164,0,l)
);
},
{
closed = 1;
nodes = (
(196,0,l),
(196,1500,l),
(164,1500,l),
(164,0,l)
);
}
);
width = 1328;
}
);
unicode = 68;
}
{
glyphname = E;
kernLeft = H;
kernRight = E;
layers = (
{
anchors = (
{
name = bottom;
pos = (598,0);
},
{
name = ogonek;
pos = (1122,0);
},
{
name = top;
pos = (598,1500);
},
{
name = topleft;
pos = (148,1500);
}
);
layerId = m01;
shapes = (
{
closed = 1;
nodes = (
(148,0,l),
(1122,0,l),
(1122,12,l),
(1066,164,l),
(277,164,l),
(322,119,l),
(322,715,l),
(277,670,l),
(1009,670,l),
(1009,834,l),
(277,834,l),
(322,789,l),
(322,1381,l),
(277,1336,l),
(1058,1336,l),
(1058,1500,l),
(148,1500,l)
);
}
);
width = 1216;
},
{
anchors = (
{
name = bottom;
pos = (595,0);
},
{
name = ogonek;
pos = (1031,0);
},
{
name = top;
pos = (595,1500);
},
{
name = topleft;
pos = (168,1500);
}
);
layerId = m003;
shapes = (
{
closed = 1;
nodes = (
(164,0,l),
(1041,0,l),
(1041,4,l),
(1030,30,l),
(171,30,l),
(196,5,l),
(196,762,l),
(171,737,l),
(946,737,l),
(946,767,l),
(171,767,l),
(196,742,l),
(196,1495,l),
(171,1470,l),
(995,1470,l),
(995,1500,l),
(164,1500,l)
);
}
);
width = 1145;
},
{
anchors = (
{
name = bottom;
pos = (660,0);
},
{
name = ogonek;
pos = (1263,0);
},
{
name = top;
pos = (660,1500);
},
{
name = topleft;
pos = (120,1500);
}
);
associatedMasterId = m002;
layerId = "D568A8C8-FE93-4964-B319-7E892C3D4DBE";
name = "May 27, 24 at 10:36";
shapes = (
{
closed = 1;
nodes = (
(120,0,l),
(530,0,l),
(530,1500,l),
(120,1500,l)
);
},
{
closed = 1;
nodes = (
(120,937,l),
(120,567,l),
(1135,567,l),
(1135,937,l)
);
},
{
closed = 1;
nodes = (
(120,1500,l),
(120,1120,l),
(1188,1120,l),
(1188,1500,l)
);
},
{
closed = 1;
nodes = (
(120,380,l),
(120,0,l),
(1263,0,l),
(1263,20,l),
(1132,380,l)
);
}
);
width = 1353;
},
{
anchors = (
{
name = bottom;
pos = (594,0);
},
{
name = ogonek;
pos = (1118,0);
},
{
name = top;
pos = (594,1500);
},
{
name = topleft;
pos = (144,1500);
}
);
associatedMasterId = m01;
layerId = "EB021D5E-7946-43C8-B095-5DF02F0B0D21";
name = "May 28, 24 at 13:31";
shapes = (
{
closed = 1;
nodes = (
(144,0,l),
(318,0,l),
(318,1500,l),
(144,1500,l)
);
},
{
closed = 1;
nodes = (
(144,834,l),
(144,670,l),
(1005,670,l),
(1005,834,l)
);
},
{
closed = 1;
nodes = (
(144,1500,l),
(144,1336,l),
(1054,1336,l),
(1054,1500,l)
);
},
{
closed = 1;
nodes = (
(144,162,l),
(144,0,l),
(1118,0,l),
(1118,12,l),
(1063,162,l)
);
}
);
width = 1198;
},
{
anchors = (
{
name = bottom;
pos = (662,0);
},
{
name = ogonek;
pos = (1232,0);
},
{
name = top;
pos = (662,1500);
},
{
name = topleft;
pos = (122,1500);
}
);
associatedMasterId = m002;
layerId = "2F74EDB3-C3E9-446A-A3D3-8F1B53A2942C";
name = "May 29, 24 at 21:39";
shapes = (
{
closed = 1;
nodes = (
(122,0,l),
(532,0,l),
(532,1500,l),
(122,1500,l)
);
},
{
closed = 1;
nodes = (
(122,937,l),
(122,567,l),
(1137,567,l),
(1137,937,l)
);
},
{
closed = 1;
nodes = (
(122,1500,l),
(122,1120,l),
(1190,1120,l),
(1190,1500,l)
);
},
{
closed = 1;
nodes = (
(122,380,l),
(122,0,l),
(1238,0,l),
(1238,20,l),
(1147,380,l)
);
}
);
visible = 1;
width = 1338;
},
{
anchors = (
{
name = bottom;
pos = (656,0);
},
{
name = ogonek;
pos = (1226,0);
},
{
name = top;
pos = (656,1500);
},
{
name = topleft;
pos = (116,1500);
}
);
layerId = m002;
name = Ultra;
shapes = (
{
closed = 1;
nodes = (
(112,0,l),
(1232,0,l),
(1232,20,l),
(1144,370,l),
(467,370,l),
(512,325,l),
(512,617,l),
(467,572,l),
(1131,572,l),
(1131,932,l),
(467,932,l),
(512,887,l),
(512,1175,l),
(467,1130,l),
(1184,1130,l),
(1184,1500,l),
(112,1500,l)
);
}
);
width = 1314;
},
{
anchors = (
{
name = bottom;
pos = (668,0);
},
{
name = ogonek;
pos = (1238,0);
},
{
name = top;
pos = (668,1500);
},
{
name = topleft;
pos = (128,1500);
}
);
associatedMasterId = m002;
layerId = "59CE5A9F-328F-47FB-94FE-0C9E225FB454";
name = "Jun 7, 24 at 19:52";
shapes = (
{
closed = 1;
nodes = (
(128,0,l),
(524,0,l),
(524,1500,l),
(128,1500,l)
);
},
{
closed = 1;
nodes = (
(128,932,l),
(128,572,l),
(1143,572,l),
(1143,932,l)
);
},
{
closed = 1;
nodes = (
(128,1500,l),
(128,1130,l),
(1196,1130,l),
(1196,1500,l)
);
},
{
closed = 1;
nodes = (
(128,370,l),
(128,0,l),
(1244,0,l),
(1244,20,l),
(1156,370,l)
);
}
);
width = 1344;
},
{
anchors = (
{
name = bottom;
pos = (598,0);
},
{
name = ogonek;
pos = (1122,0);
},
{
name = top;
pos = (598,1500);
},
{
name = topleft;
pos = (148,1500);
}
);
associatedMasterId = m01;
layerId = "3EC8A5B6-1A09-4BE7-9F38-D64C6B26DBCB";
name = "Jun 7, 24 at 19:52";
shapes = (
{
closed = 1;
nodes = (
(148,0,l),
(322,0,l),
(322,1500,l),
(148,1500,l)
);
},
{
closed = 1;
nodes = (
(148,834,l),
(148,670,l),
(1009,670,l),
(1009,834,l)
);
},
{
closed = 1;
nodes = (
(148,1500,l),
(148,1336,l),
(1058,1336,l),
(1058,1500,l)
);
},
{
closed = 1;
nodes = (
(148,164,l),
(148,0,l),
(1122,0,l),
(1122,12,l),
(1066,164,l)
);
}
);
width = 1202;
},
{
anchors = (
{
name = bottom;
pos = (591,0);
},
{
name = ogonek;
pos = (1027,0);
},
{
name = top;
pos = (591,1500);
},
{
name = topleft;
pos = (164,1500);
}
);
associatedMasterId = m003;
layerId = "62B9040E-C85F-4B39-B5EF-D71A2A37E6BE";
name = "Jun 7, 24 at 19:53";
shapes = (
{
closed = 1;
nodes = (
(164,0,l),
(196,0,l),
(196,1500,l),
(164,1500,l)
);
},
{
closed = 1;
nodes = (
(164,767,l),
(164,737,l),
(942,737,l),
(942,767,l)
);
},
{
closed = 1;
nodes = (
(164,1500,l),
(164,1470,l),
(991,1470,l),
(991,1500,l)
);
},
{
closed = 1;
nodes = (
(164,30,l),
(164,0,l),
(1037,0,l),
(1037,4,l),
(1026,30,l)
);
}
);
width = 1137;
}
);
unicode = 69;
}
{
glyphname = F;
kernLeft = H;
kernRight = F;
layers = (
{
anchors = (
{
name = bottom;
pos = (620,0);
},
{
name = top;
pos = (620,1500);
},
{
name = topleft;
pos = (148,1500);
}
);
layerId = m01;
shapes = (
{
closed = 1;
nodes = (
(148,0,l),
(324,0,l),
(324,697,l),
(279,652,l),
(1012,652,l),
(1012,816,l),
(279,816,l),
(324,771,l),
(324,1381,l),
(279,1336,l),
(1082,1336,l),
(1082,1500,l),
(148,1500,l)
);
}
);
width = 1176;
},
{
anchors = (
{
name = bottom;
pos = (664,0);
},
{
name = top;
pos = (664,1500);
},
{
name = topleft;
pos = (112,1500);
}
);
layerId = m002;
shapes = (
{
closed = 1;
nodes = (
(112,0,l),
(512,0,l),
(512,591,l),
(467,546,l),
(1132,546,l),
(1132,918,l),
(467,918,l),
(512,873,l),
(512,1169,l),
(467,1124,l),
(1200,1124,l),
(1200,1500,l),
(112,1500,l)
);
}
);
width = 1258;
},
{
anchors = (
{
name = bottom;
pos = (620,0);
},
{
name = top;
pos = (620,1500);
},
{
name = topleft;
pos = (164,1500);
}
);
layerId = m003;
shapes = (
{
closed = 1;
nodes = (
(164,0,l),
(196,0,l),
(196,744,l),
(171,719,l),
(936,719,l),
(936,749,l),
(171,749,l),
(196,724,l),
(196,1495,l),
(171,1470,l),
(1006,1470,l),
(1006,1500,l),
(164,1500,l)
);
}
);
width = 1102;
},
{
anchors = (
{
name = bottom;
pos = (674,0);
},
{
name = top;
pos = (674,1500);
},
{
name = topleft;
pos = (122,1500);
}
);
associatedMasterId = m002;
layerId = "1AF0B879-5969-4F39-88E9-0E7FA7C26D3A";
name = "Jun 7, 24 at 19:53";
shapes = (
{
closed = 1;
nodes = (
(122,0,l),
(522,0,l),
(522,1500,l),
(122,1500,l)
);
},
{
closed = 1;
nodes = (
(122,918,l),
(122,546,l),
(1142,546,l),
(1142,918,l)
);
},
{
closed = 1;
nodes = (
(122,1500,l),
(122,1124,l),
(1210,1124,l),
(1210,1500,l)
);
}
);
width = 1270;
},
{
anchors = (
{
name = bottom;
pos = (620,0);
},
{
name = top;
pos = (620,1500);
},
{
name = topleft;
pos = (148,1500);
}
);
associatedMasterId = m01;
layerId = "EC9028BA-CCBF-4BDF-9DBF-39F22CDC3EE0";
name = "Jun 7, 24 at 19:53";
shapes = (
{
closed = 1;
nodes = (
(148,0,l),
(324,0,l),
(324,1500,l),
(148,1500,l)
);
},
{
closed = 1;
nodes = (
(148,816,l),
(148,652,l),
(1012,652,l),
(1012,816,l)
);
},
{
closed = 1;
nodes = (
(148,1500,l),
(148,1336,l),
(1082,1336,l),
(1082,1500,l)
);
}
);
width = 1160;
},
{
anchors = (
{
name = bottom;
pos = (620,0);
},
{
name = top;
pos = (620,1500);
},
{
name = topleft;
pos = (164,1500);
}
);
associatedMasterId = m003;
layerId = "C1631F41-A70E-4FB9-9367-C1562C753A05";
name = "Jun 7, 24 at 19:53";
shapes = (
{
closed = 1;
nodes = (
(164,0,l),
(196,0,l),
(196,1500,l),
(164,1500,l)
);
},
{
closed = 1;
nodes = (
(164,749,l),
(164,719,l),
(936,719,l),
(936,749,l)
);
},
{
closed = 1;
nodes = (
(164,1500,l),
(164,1470,l),
(1006,1470,l),
(1006,1500,l)
);
}
);
width = 1090;
}
);
unicode = 70;
}
{
glyphname = G;
kernLeft = O;
kernRight = G;
layers = (
{
associatedMasterId = m01;
layerId = "8746AEB5-235C-4F2A-AA54-CCD35F1EF805";
name = G;
shapes = (
{
closed = 1;
nodes = (
(733,720,l),
(733,552,l),
(1313,552,l),
(1313,720,l)
);
},
{
closed = 1;
nodes = (
(1133,0,l),
(1315,0,l),
(1315,720,l),
(1133,720,l)
);
},
{
ref = C;
}
);
width = 1368;
},
{
associatedMasterId = m01;
layerId = "748BAA85-9F6A-4B86-ABBE-4151A066AC82";
name = "May 11, 24 at 15:40";
shapes = (
{
closed = 1;
nodes = (
(1195,-24,o),
(1452,355,o),
(1452,751,cs),
(1452,1145,o),
(1195,1524,o),
(733,1524,cs),
(270,1524,o),
(13,1145,o),
(13,751,cs),
(13,355,o),
(270,-24,o),
(733,-24,cs)
);
},
{
closed = 1;
nodes = (
(385,144,o),
(198,426,o),
(198,751,cs),
(198,1076,o),
(385,1356,o),
(733,1356,cs),
(1080,1356,o),
(1267,1076,o),
(1267,751,cs),
(1267,426,o),
(1080,144,o),
(733,144,cs)
);
},
{
closed = 1;
nodes = (
(1520,10,l),
(2262,752,l),
(1520,1494,l),
(778,752,l)
);
}
);
width = 1555;
},
{
associatedMasterId = m01;
layerId = "C7AAF729-FE6E-4E0A-9539-30F6BB733835";
name = "May 11, 24 at 15:44";
shapes = (
{
closed = 1;
nodes = (
(1195,-24,o),
(1452,355,o),
(1452,751,cs),
(1452,1145,o),
(1195,1524,o),
(733,1524,cs),
(270,1524,o),
(13,1145,o),
(13,751,cs),
(13,355,o),
(270,-24,o),
(733,-24,cs)
);
},
{
closed = 1;
nodes = (
(385,144,o),
(198,426,o),
(198,751,cs),
(198,1076,o),
(385,1356,o),
(733,1356,cs),
(1080,1356,o),
(1267,1076,o),
(1267,751,cs),
(1267,426,o),
(1080,144,o),
(733,144,cs)
);
},
{
closed = 1;
nodes = (
(2220,752,l),
(1478,1494,l),
(736,752,l)
);
}
);
width = 1555;
},
{
associatedMasterId = m01;
layerId = "FDB6185C-8E16-4AC9-95CD-063C2756CCB4";
name = "May 11, 24 at 15:44";
shapes = (
{
closed = 1;
nodes = (
(1240,-24,o),
(1497,355,o),
(1497,751,cs),
(1497,752,l),
(1312,752,l),
(1312,751,ls),
(1312,426,o),
(1125,144,o),
(778,144,cs),
(430,144,o),
(243,426,o),
(243,751,cs),
(243,1076,o),
(430,1356,o),
(778,1356,cs),
(959,1356,o),
(1097,1280,o),
(1187,1161,c),
(1311,1285,l),
(1189,1429,o),
(1009,1524,o),
(778,1524,cs),
(315,1524,o),
(58,1145,o),
(58,751,cs),
(58,355,o),
(315,-24,o),
(778,-24,cs)
);
}
);
width = 1645;
},
{
associatedMasterId = m01;
layerId = "ACB21E86-A826-425D-9DD1-938030B441BD";
name = "May 11, 24 at 16:08";
shapes = (
{
closed = 1;
nodes = (
(1012,-24,o),
(1193,72,o),
(1315,217,c),
(1190,342,l),
(1100,222,o),
(962,144,o),
(780,144,cs),
(432,144,o),
(245,426,o),
(245,751,cs),
(245,1076,o),
(432,1356,o),
(780,1356,cs),
(932,1356,o),
(1054,1302,o),
(1142,1214,c),
(1265,1337,l),
(1145,1451,o),
(982,1524,o),
(780,1524,cs),
(317,1524,o),
(60,1145,o),
(60,751,cs),
(60,355,o),
(317,-24,o),
(780,-24,cs)
);
},
{
closed = 1;
nodes = (
(790,720,l),
(790,552,l),
(1370,552,l),
(1370,720,l)
);
},
{
closed = 1;
nodes = (
(1190,0,l),
(1372,0,l),
(1372,720,l),
(1190,720,l)
);
}
);
width = 1432;
},
{
associatedMasterId = m01;
layerId = "E7963EC7-54D0-4BC4-BAF3-0CD026DD486A";
name = "May 11, 24 at 16:15";
shapes = (
{
closed = 1;
nodes = (
(1077,-24,o),
(1279,166,o),
(1319,369,c),
(1193,369,l),
(1124,243,o),
(970,144,o),
(780,144,cs),
(432,144,o),
(245,426,o),
(245,751,cs),
(245,1076,o),
(432,1356,o),
(780,1356,cs),
(932,1356,o),
(1054,1302,o),
(1142,1214,c),
(1265,1337,l),
(1145,1451,o),
(982,1524,o),
(780,1524,cs),
(317,1524,o),
(60,1145,o),
(60,751,cs),
(60,355,o),
(317,-24,o),
(780,-24,cs)
);
},
{
closed = 1;
nodes = (
(790,720,l),
(790,552,l),
(1364,552,l),
(1364,720,l)
);
},
{
closed = 1;
nodes = (
(1190,0,l),
(1366,0,l),
(1366,720,l),
(1190,720,l)
);
}
);
width = 1432;
},
{
associatedMasterId = m01;
layerId = "99FD8E27-0337-4C44-A005-D978D507CF04";
name = "May 12, 24 at 12:42";
shapes = (
{
closed = 1;
nodes = (
(1300,-24,o),
(1557,365,o),
(1557,751,cs),
(1557,1135,o),
(1300,1524,o),
(838,1524,cs),
(375,1524,o),
(118,1135,o),
(118,751,cs),
(118,365,o),
(375,-24,o),
(838,-24,cs)
);
},
{
closed = 1;
nodes = (
(490,144,o),
(303,426,o),
(303,751,cs),
(303,1076,o),
(490,1356,o),
(838,1356,cs),
(1185,1356,o),
(1372,1076,o),
(1372,751,cs),
(1372,426,o),
(1185,144,o),
(838,144,cs)
);
}
);
width = 1555;
},
{
associatedMasterId = m01;
layerId = "8AE80F92-5F6C-4949-A1E9-338B1CAECBDB";
name = "May 12, 24 at 20:11";
shapes = (
{
closed = 1;
nodes = (
(1077,-24,o),
(1279,166,o),
(1319,369,c),
(1193,369,l),
(1124,243,o),
(970,144,o),
(780,144,cs),
(432,144,o),
(245,426,o),
(245,751,cs),
(245,1076,o),
(432,1356,o),
(780,1356,cs),
(932,1356,o),
(1054,1302,o),
(1142,1214,c),
(1265,1337,l),
(1145,1451,o),
(982,1524,o),
(780,1524,cs),
(317,1524,o),
(60,1145,o),
(60,751,cs),
(60,355,o),
(317,-24,o),
(780,-24,cs)
);
},
{
closed = 1;
nodes = (
(790,760,l),
(790,592,l),
(1364,592,l),
(1364,760,l)
);
},
{
closed = 1;
nodes = (
(1190,0,l),
(1366,0,l),
(1366,760,l),
(1190,760,l)
);
}
);
width = 1432;
},
{
associatedMasterId = m01;
layerId = "CB974D60-71C8-47AA-A752-2D0D4B688C7C";
name = G;
shapes = (
{
closed = 1;
nodes = (
(1128,-24,o),
(1318,171,o),
(1385,309,c),
(1204,349,l),
(1143,258,o),
(1013,144,o),
(790,144,cs),
(443,144,o),
(255,426,o),
(255,751,cs),
(255,1076,o),
(442,1356,o),
(790,1356,cs),
(942,1356,o),
(1064,1302,o),
(1152,1214,c),
(1275,1337,l),
(1155,1451,o),
(992,1524,o),
(790,1524,cs),
(327,1524,o),
(70,1145,o),
(70,751,cs),
(70,355,o),
(327,-24,o),
(790,-24,cs)
);
},
{
closed = 1;
nodes = (
(806,771,l),
(806,603,l),
(1385,603,l),
(1385,771,l)
);
},
{
closed = 1;
nodes = (
(1204,349,l),
(1385,309,l),
(1385,771,l),
(1204,771,l)
);
}
);
width = 1457;
},
{
anchors = (
{
name = bottom;
pos = (793,-24);
},
{
name = top;
pos = (791,1500);
}
);
layerId = m01;
name = Regular;
shapes = (
{
closed = 1;
nodes = (
(1140,-24,o),
(1324,174,o),
(1384,333,c),
(1384,771,l),
(810,771,l),
(810,607,l),
(1208,607,l),
(1208,369,l),
(1147,244,o),
(1020,144,o),
(793,144,cs),
(450,144,o),
(248,421,o),
(248,751,cs),
(248,1080,o),
(446,1356,o),
(794,1356,cs),
(946,1356,o),
(1073,1307,o),
(1163,1222,c),
(1280,1338,l),
(1160,1452,o),
(996,1524,o),
(794,1524,cs),
(335,1524,o),
(70,1149,o),
(70,751,cs),
(70,350,o),
(338,-24,o),
(793,-24,cs)
);
}
);
width = 1504;
},
{
associatedMasterId = m01;
layerId = "B8B8F035-921A-4E4B-9531-AD45369AFE59";
name = "G!";
shapes = (
{
closed = 1;
nodes = (
(1134,-24,o),
(1323,177,o),
(1385,333,c),
(1205,369,l),
(1144,244,o),
(1020,144,o),
(790,144,cs),
(443,144,o),
(255,426,o),
(255,751,cs),
(255,1076,o),
(442,1356,o),
(790,1356,cs),
(942,1356,o),
(1064,1302,o),
(1152,1214,c),
(1275,1337,l),
(1155,1451,o),
(992,1524,o),
(790,1524,cs),
(327,1524,o),
(70,1145,o),
(70,751,cs),
(70,355,o),
(327,-24,o),
(790,-24,cs)
);
},
{
closed = 1;
nodes = (
(806,771,l),
(806,603,l),
(1385,603,l),
(1385,771,l)
);
},
{
closed = 1;
nodes = (
(1205,369,l),
(1385,333,l),
(1385,771,l),
(1205,771,l)
);
}
);
width = 1457;
},
{
associatedMasterId = m01;
layerId = "D32CB444-7918-440B-8EFB-B2BBEF1CFA1F";
name = "May 20, 24 at 17:18";
shapes = (
{
closed = 1;
nodes = (
(1134,-24,o),
(1323,177,o),
(1385,333,c),
(1204,369,l),
(1143,244,o),
(1020,144,o),
(790,144,cs),
(443,144,o),
(255,426,o),
(255,751,cs),
(255,1076,o),
(442,1356,o),
(790,1356,cs),
(942,1356,o),
(1064,1302,o),
(1152,1214,c),
(1275,1337,l),
(1155,1451,o),
(992,1524,o),
(790,1524,cs),
(327,1524,o),
(70,1145,o),
(70,751,cs),
(70,355,o),
(327,-24,o),
(790,-24,cs)
);
},
{
closed = 1;
nodes = (
(806,771,l),
(806,603,l),
(1385,603,l),
(1385,771,l)
);
},
{
closed = 1;
nodes = (
(1204,369,l),
(1385,333,l),
(1385,771,l),
(1204,771,l)
);
}
);
width = 1495;
},
{
anchors = (
{
name = bottom;
pos = (792,0);
},
{
name = top;
pos = (792,1500);
}
);
layerId = m003;
name = Regular;
shapes = (
{
closed = 1;
nodes = (
(1067,-18,o),
(1270,127,o),
(1386,326,c),
(1387,744,l),
(834,744,l),
(834,714,l),
(1355,714,l),
(1355,336,l),
(1240,145,o),
(1042,13,o),
(788,13,cs),
(379,13,o),
(110,356,o),
(110,751,cs),
(110,1147,o),
(379,1487,o),
(788,1487,cs),
(972,1487,o),
(1127,1418,o),
(1243,1307,c),
(1265,1329,l),
(1148,1444,o),
(987,1518,o),
(788,1518,cs),
(332,1518,o),
(78,1131,o),
(78,751,cs),
(78,369,o),
(332,-18,o),
(788,-18,cs)
);
}
);
width = 1487;
},
{
associatedMasterId = m002;
layerId = "C3188510-038F-4403-A78F-BA420E10337E";
name = "May 28, 24 at 13:51";
shapes = (
{
closed = 1;
nodes = (
(814,771,l),
(814,607,l),
(1388,607,l),
(1388,771,l)
);
},
{
closed = 1;
nodes = (
(1212,369,l),
(1388,333,l),
(1388,771,l),
(1212,771,l)
);
},
{
closed = 1;
nodes = (
(1296,1348,l),
(1165,1460,o),
(1011,1524,o),
(810,1524,cs),
(323,1524,o),
(58,1138,o),
(58,750,cs),
(58,360,o),
(323,-24,o),
(810,-24,cs),
(1040,-24,o),
(1212,56,o),
(1355,203,c),
(1066,490,l),
(1002,419,o),
(915,376,o),
(810,376,cs),
(598,376,o),
(462,547,o),
(462,750,cs),
(462,953,o),
(598,1124,o),
(810,1124,cs),
(888,1124,o),
(955,1101,o),
(1011,1060,c)
);
}
);
width = 1500;
},
{
anchors = (
{
name = bottom;
pos = (822,0);
},
{
name = top;
pos = (822,1500);
}
);
associatedMasterId = m002;
layerId = "88E893E4-B938-4E97-AC35-6177FB3AEC7A";
name = "May 28, 24 at 14:07";
shapes = (
{
closed = 1;
nodes = (
(814,879,l),
(814,550,l),
(1441,550,l),
(1441,879,l)
);
},
{
closed = 1;
nodes = (
(1055,465,l),
(1441,424,l),
(1441,879,l),
(1055,879,l)
);
},
{
closed = 1;
nodes = (
(1055,465,l),
(1008,413,o),
(926,376,o),
(810,376,cs),
(598,376,o),
(462,547,o),
(462,750,cs),
(462,953,o),
(598,1124,o),
(810,1124,cs),
(888,1124,o),
(956,1101,o),
(1011,1061,c),
(1296,1348,l),
(1175,1453,o),
(1013,1524,o),
(810,1524,cs),
(323,1524,o),
(58,1138,o),
(58,750,cs),
(58,360,o),
(323,-24,o),
(810,-24,cs),
(1212,-24,o),
(1391,222,o),
(1441,424,c)
);
}
);
width = 1500;
},
{
anchors = (
{
name = bottom;
pos = (796,0);
},
{
name = top;
pos = (796,1500);
}
);
layerId = m002;
name = Ultra;
shapes = (
{
closed = 1;
nodes = (
(1134,-32,o),
(1365,143,o),
(1450,409,c),
(1451,879,l),
(782,879,l),
(782,560,l),
(1107,560,l),
(1107,558,l),
(1082,494,o),
(993,371,o),
(797,370,cs),
(585,369,o),
(455,542,o),
(455,750,cs),
(455,958,o),
(590,1122,o),
(797,1124,cs),
(907,1125,o),
(991,1077,o),
(1047,1023,c),
(1341,1304,l),
(1209,1445,o),
(1033,1532,o),
(796,1532,cs),
(307,1532,o),
(42,1146,o),
(42,750,cs),
(42,352,o),
(307,-32,o),
(796,-32,cs)
);
}
);
visible = 1;
width = 1537;
},
{
anchors = (
{
name = bottom;
pos = (822,0);
},
{
name = center;
pos = (822,750);
},
{
name = ogonek;
pos = (1434,0);
},
{
name = top;
pos = (822,1500);
},
{
name = topright;
pos = (1434,1500);
}
);
associatedMasterId = m002;
layerId = "267BBC8F-B752-47E7-92F2-651BA3B5F98A";
name = "May 28, 24 at 14:07";
shapes = (
{
closed = 1;
nodes = (
(1345,-32,o),
(1610,352,o),
(1610,750,cs),
(1610,1146,o),
(1345,1532,o),
(856,1532,cs),
(367,1532,o),
(102,1146,o),
(102,750,cs),
(102,352,o),
(367,-32,o),
(856,-32,cs)
);
},
{
closed = 1;
nodes = (
(645,378,o),
(514,546,o),
(514,750,cs),
(514,954,o),
(645,1122,o),
(856,1122,cs),
(1069,1122,o),
(1198,954,o),
(1198,750,cs),
(1198,546,o),
(1069,378,o),
(856,378,cs)
);
}
);
width = 1640;
},
{
anchors = (
{
name = bottom;
pos = (822,0);
},
{
name = top;
pos = (822,1500);
}
);
associatedMasterId = m002;
layerId = "14CF2575-A4D7-4622-B50A-F23D9F957C9B";
name = "May 28, 24 at 14:08";
shapes = (
{
closed = 1;
nodes = (
(784,869,l),
(784,560,l),
(1441,560,l),
(1441,869,l)
);
},
{
closed = 1;
nodes = (
(1066,475,l),
(1441,324,l),
(1441,869,l),
(1066,869,l)
);
},
{
closed = 1;
nodes = (
(1066,475,l),
(1007,408,o),
(912,376,o),
(810,376,cs),
(598,376,o),
(462,547,o),
(462,750,cs),
(462,953,o),
(598,1124,o),
(810,1124,cs),
(888,1124,o),
(956,1101,o),
(1011,1061,c),
(1296,1348,l),
(1175,1453,o),
(1013,1524,o),
(810,1524,cs),
(323,1524,o),
(58,1138,o),
(58,750,cs),
(58,360,o),
(323,-24,o),
(810,-24,cs),
(1115,-24,o),
(1336,125,o),
(1441,324,c)
);
}
);
width = 1500;
},
{
anchors = (
{
name = bottom;
pos = (750,0);
},
{
name = top;
pos = (750,1500);
}
);
associatedMasterId = m003;
layerId = "4E8755C8-F5AF-4FC2-A4E7-B3E87C5C31F0";
name = "May 28, 24 at 14:18";
shapes = (
{
closed = 1;
nodes = (
(1145,-24,o),
(1328,174,o),
(1388,333,c),
(1212,369,l),
(1151,244,o),
(1025,144,o),
(798,144,cs),
(451,144,o),
(256,426,o),
(256,751,cs),
(256,1076,o),
(450,1356,o),
(798,1356,cs),
(950,1356,o),
(1077,1307,o),
(1167,1222,c),
(1284,1338,l),
(1164,1452,o),
(1000,1524,o),
(798,1524,cs),
(339,1524,o),
(78,1145,o),
(78,751,cs),
(78,355,o),
(339,-24,o),
(798,-24,cs)
);
},
{
closed = 1;
nodes = (
(1388,607,l),
(1388,769,l),
(814,769,l),
(814,607,l)
);
},
{
closed = 1;
nodes = (
(1388,769,l),
(1212,769,l),
(1212,369,l),
(1388,333,l)
);
}
);
width = 1500;
},
{
anchors = (
{
name = bottom;
pos = (741,0);
},
{
name = top;
pos = (741,1500);
}
);
associatedMasterId = m003;
layerId = "5BA0104B-89C9-4CE0-B234-BFA88FA4C916";
name = "May 28, 24 at 14:22";
shapes = (
{
closed = 1;
nodes = (
(1309,-24,o),
(1564,365,o),
(1564,751,cs),
(1564,752,l),
(1532,752,l),
(1532,751,ls),
(1532,352,o),
(1262,7,o),
(846,7,cs),
(430,7,o),
(160,352,o),
(160,751,cs),
(160,1151,o),
(430,1493,o),
(846,1493,cs),
(1033,1493,o),
(1190,1424,o),
(1307,1311,c),
(1330,1334,l),
(1211,1450,o),
(1048,1524,o),
(846,1524,cs),
(383,1524,o),
(128,1135,o),
(128,751,cs),
(128,365,o),
(383,-24,o),
(846,-24,cs)
);
},
{
closed = 1;
nodes = (
(887,721,l),
(887,691,l),
(1440,691,l),
(1440,721,l)
);
},
{
closed = 1;
nodes = (
(1408,309,l),
(1440,309,l),
(1440,721,l),
(1408,721,l)
);
}
);
width = 1607;
},
{
anchors = (
{
name = bottom;
pos = (820,0);
},
{
name = top;
pos = (820,1500);
}
);
associatedMasterId = m002;
layerId = "6056232C-E259-4BE4-958F-F571CBF880B7";
name = "May 28, 24 at 21:56";
shapes = (
{
closed = 1;
nodes = (
(1157,-24,o),
(1372,160,o),
(1476,358,c),
(1123,560,l),
(1091,493,o),
(997,376,o),
(820,376,cs),
(608,376,o),
(472,547,o),
(472,750,cs),
(472,953,o),
(608,1124,o),
(820,1124,cs),
(898,1124,o),
(966,1101,o),
(1021,1061,c),
(1306,1348,l),
(1185,1453,o),
(1023,1524,o),
(820,1524,cs),
(333,1524,o),
(68,1138,o),
(68,750,cs),
(68,360,o),
(333,-24,o),
(820,-24,cs)
);
},
{
closed = 1;
nodes = (
(1476,560,l),
(1476,889,l),
(794,889,l),
(794,560,l)
);
},
{
closed = 1;
nodes = (
(1476,889,l),
(1123,889,l),
(1123,560,l),
(1476,358,l)
);
}
);
width = 1594;
},
{
anchors = (
{
name = bottom;
pos = (820,0);
},
{
name = top;
pos = (820,1500);
}
);
associatedMasterId = m002;
layerId = "E26B0FA3-0784-4345-ABFE-4A3CEE4897D1";
name = "May 30, 24 at 21:48";
shapes = (
{
closed = 1;
nodes = (
(1171,-24,o),
(1391,170,o),
(1483,368,c),
(1134,560,l),
(1102,488,o),
(1016,376,o),
(820,376,cs),
(608,376,o),
(472,547,o),
(472,750,cs),
(472,953,o),
(608,1124,o),
(820,1124,cs),
(936,1124,o),
(1012,1089,o),
(1072,1040,c),
(1349,1325,l),
(1225,1444,o),
(1044,1524,o),
(820,1524,cs),
(332,1524,o),
(68,1138,o),
(68,750,cs),
(68,360,o),
(333,-24,o),
(820,-24,cs)
);
},
{
closed = 1;
nodes = (
(1483,560,l),
(1483,889,l),
(805,889,l),
(805,560,l)
);
},
{
closed = 1;
nodes = (
(1483,889,l),
(1134,889,l),
(1134,560,l),
(1483,368,l)
);
}
);
width = 1595;
},
{
anchors = (
{
name = bottom;
pos = (820,0);
},
{
name = top;
pos = (820,1500);
}
);
associatedMasterId = m002;
layerId = "0000FF00-E484-4747-8CD1-83996F40B141";
name = "May 30, 24 at 22:26";
shapes = (
{
closed = 1;
nodes = (
(1478,569,l),
(1478,889,l),
(805,890,l),
(805,570,l)
);
},
{
closed = 1;
nodes = (
(1478,889,l),
(1131,890,l),
(1131,569,l),
(1478,424,l)
);
},
{
closed = 1;
nodes = (
(609,362,o),
(478,546,o),
(478,750,cs),
(478,954,o),
(609,1122,o),
(820,1122,cs),
(926,1122,o),
(1011,1080,o),
(1073,1011,c),
(1369,1301,l),
(1244,1442,o),
(1058,1532,o),
(820,1532,cs),
(331,1532,o),
(66,1146,o),
(66,750,cs),
(66,352,o),
(331,-32,o),
(820,-32,cs),
(1256,-32,o),
(1432,264,o),
(1478,424,c),
(1131,569,l),
(1098,462,o),
(1008,362,o),
(820,362,c)
);
}
);
width = 1595;
},
{
anchors = (
{
name = bottom;
pos = (820,0);
},
{
name = top;
pos = (820,1500);
}
);
associatedMasterId = m002;
layerId = "0D43293B-F9FE-4E70-9856-C6229CB718C2";
name = "May 30, 24 at 22:39";
shapes = (
{
closed = 1;
nodes = (
(1478,569,l),
(1478,889,l),
(805,890,l),
(805,570,l)
);
},
{
closed = 1;
nodes = (
(1478,889,l),
(1139,890,l),
(1139,569,l),
(1478,424,l)
);
},
{
closed = 1;
nodes = (
(599,344,o),
(470,521,o),
(470,738,cs),
(470,946,o),
(593,1130,o),
(820,1130,cs),
(933,1130,o),
(1023,1091,o),
(1087,1026,c),
(1369,1301,l),
(1244,1442,o),
(1058,1532,o),
(820,1532,cs),
(331,1532,o),
(66,1146,o),
(66,750,cs),
(66,352,o),
(331,-32,o),
(820,-32,cs),
(1256,-32,o),
(1432,264,o),
(1478,424,c),
(1139,569,l),
(1109,465,o),
(1016,344,o),
(820,344,c)
);
},
{
closed = 0;
nodes = (
(1131,497,l),
(1070,413,o),
(975,339,o),
(823,339,cs),
(590,339,o),
(446,525,o),
(446,750,cs),
(446,975,o),
(590,1161,o),
(823,1161,cs),
(975,1161,o),
(1070,1087,o),
(1131,1003,c)
);
}
);
width = 1595;
},
{
anchors = (
{
name = bottom;
pos = (797,0);
},
{
name = top;
pos = (797,1500);
}
);
associatedMasterId = m003;
layerId = "2D363606-0331-472E-A40E-FD7FB528D5D4";
name = "May 30, 24 at 22:46";
shapes = (
{
closed = 1;
nodes = (
(1112,-24,o),
(1301,154,o),
(1391,303,c),
(1360,313,l),
(1240,128,o),
(1045,7,o),
(798,7,cs),
(382,7,o),
(112,352,o),
(112,751,cs),
(112,1151,o),
(382,1493,o),
(798,1493,cs),
(985,1493,o),
(1142,1424,o),
(1259,1311,c),
(1282,1334,l),
(1163,1450,o),
(1000,1524,o),
(798,1524,cs),
(335,1524,o),
(80,1135,o),
(80,751,cs),
(80,365,o),
(335,-24,o),
(798,-24,cs)
);
},
{
closed = 1;
nodes = (
(1392,691,l),
(1392,721,l),
(839,721,l),
(839,691,l)
);
},
{
closed = 1;
nodes = (
(1392,721,l),
(1360,721,l),
(1360,313,l),
(1391,303,l)
);
}
);
width = 1512;
},
{
anchors = (
{
name = bottom;
pos = (797,0);
},
{
name = center;
pos = (778,750);
},
{
name = ogonek;
pos = (1390,0);
},
{
name = top;
pos = (797,1500);
},
{
name = topright;
pos = (1390,1500);
}
);
associatedMasterId = m003;
layerId = "822A2A3B-5032-4528-9DEC-75060A7D2396";
name = "May 30, 24 at 22:46";
shapes = (
{
closed = 1;
nodes = (
(1271,-18,o),
(1525,369,o),
(1525,751,cs),
(1525,1131,o),
(1271,1518,o),
(815,1518,cs),
(359,1518,o),
(105,1131,o),
(105,751,cs),
(105,369,o),
(359,-18,o),
(815,-18,cs)
);
},
{
closed = 1;
nodes = (
(406,13,o),
(137,356,o),
(137,751,cs),
(137,1147,o),
(406,1487,o),
(815,1487,cs),
(1224,1487,o),
(1493,1146,o),
(1493,751,cs),
(1493,356,o),
(1224,13,o),
(815,13,cs)
);
}
);
width = 1556;
},
{
anchors = (
{
name = bottom;
pos = (795,0);
},
{
name = top;
pos = (795,1500);
}
);
associatedMasterId = m01;
layerId = "4C588EB5-65B2-428E-80C2-3B25CA6E0522";
name = "Jun 1, 24 at 17:33";
shapes = (
{
closed = 1;
nodes = (
(1388,607,l),
(1388,771,l),
(814,771,l),
(814,607,l)
);
},
{
closed = 1;
nodes = (
(1388,771,l),
(1212,771,l),
(1212,369,l),
(1388,333,l)
);
},
{
closed = 1;
nodes = (
(1269,-24,o),
(1526,365,o),
(1526,751,cs),
(1526,1135,o),
(1269,1524,o),
(802,1524,cs),
(335,1524,o),
(78,1135,o),
(78,751,cs),
(78,365,o),
(335,-24,o),
(802,-24,cs)
);
},
{
closed = 1;
nodes = (
(447,145,o),
(256,429,o),
(256,751,cs),
(256,1074,o),
(447,1356,o),
(802,1356,cs),
(1157,1356,o),
(1348,1074,o),
(1348,751,cs),
(1348,429,o),
(1157,145,o),
(802,145,cs)
);
}
);
width = 1500;
},
{
anchors = (
{
name = bottom;
pos = (814,0);
},
{
name = top;
pos = (814,1500);
}
);
associatedMasterId = m002;
layerId = "20726634-5E3A-40BD-8F92-3AC3D1CC35A0";
name = "Jun 6, 24 at 19:43";
shapes = (
{
closed = 1;
nodes = (
(1250,-32,o),
(1420,252,o),
(1469,424,c),
(1147,559,l),
(1125,471,o),
(1025,339,o),
(817,339,cs),
(587,339,o),
(447,525,o),
(447,751,cs),
(447,977,o),
(591,1153,o),
(817,1153,cs),
(927,1153,o),
(1020,1110,o),
(1090,1038,c),
(1363,1301,l),
(1238,1442,o),
(1052,1532,o),
(814,1532,cs),
(325,1532,o),
(60,1146,o),
(60,750,cs),
(60,352,o),
(325,-32,o),
(814,-32,cs)
);
},
{
closed = 1;
nodes = (
(1469,879,l),
(802,880,l),
(802,560,l),
(1469,559,l)
);
},
{
closed = 1;
nodes = (
(1469,879,l),
(1147,880,l),
(1147,559,l),
(1469,424,l)
);
}
);
width = 1569;
},
{
anchors = (
{
name = bottom;
pos = (814,0);
},
{
name = top;
pos = (814,1500);
}
);
associatedMasterId = m002;
layerId = "5E5FBE47-1607-4593-812E-C47621E30BAA";
name = "Jun 7, 24 at 19:54";
shapes = (
{
closed = 1;
nodes = (
(1250,-32,o),
(1420,252,o),
(1469,424,c),
(1147,559,l),
(1125,471,o),
(1025,339,o),
(817,339,cs),
(587,339,o),
(447,525,o),
(447,751,cs),
(447,977,o),
(591,1153,o),
(817,1153,cs),
(927,1153,o),
(1020,1110,o),
(1090,1038,c),
(1363,1301,l),
(1238,1442,o),
(1052,1532,o),
(814,1532,cs),
(325,1532,o),
(60,1146,o),
(60,750,cs),
(60,352,o),
(325,-32,o),
(814,-32,cs)
);
},
{
closed = 1;
nodes = (
(1468,560,l),
(1468,881,l),
(804,881,l),
(804,560,l)
);
},
{
closed = 1;
nodes = (
(1469,879,l),
(1147,880,l),
(1147,559,l),
(1469,424,l)
);
}
);
width = 1569;
},
{
anchors = (
{
name = bottom;
pos = (795,0);
},
{
name = top;
pos = (795,1500);
}
);
associatedMasterId = m01;
layerId = "C58CD11B-D9D6-4F02-8238-9ADCD946EC92";
name = "Jun 7, 24 at 19:54";
shapes = (
{
closed = 1;
nodes = (
(1144,-24,o),
(1328,174,o),
(1388,333,c),
(1212,369,l),
(1151,244,o),
(1024,144,o),
(797,144,cs),
(454,144,o),
(252,421,o),
(252,751,cs),
(252,1080,o),
(450,1356,o),
(798,1356,cs),
(950,1356,o),
(1077,1307,o),
(1167,1222,c),
(1284,1338,l),
(1164,1452,o),
(1000,1524,o),
(798,1524,cs),
(339,1524,o),
(74,1149,o),
(74,751,cs),
(74,350,o),
(342,-24,o),
(797,-24,cs)
);
},
{
closed = 1;
nodes = (
(1388,607,l),
(1388,771,l),
(814,771,l),
(814,607,l)
);
},
{
closed = 1;
nodes = (
(1388,771,l),
(1212,771,l),
(1212,369,l),
(1388,333,l)
);
}
);
width = 1500;
},
{
anchors = (
{
name = bottom;
pos = (792,0);
},
{
name = top;
pos = (792,1500);
}
);
associatedMasterId = m003;
layerId = "B9E30AE5-8928-4363-89D5-7F5F9AC39EBC";
name = "Jun 7, 24 at 19:55";
shapes = (
{
closed = 1;
nodes = (
(1067,-18,o),
(1270,127,o),
(1386,326,c),
(1355,336,l),
(1240,145,o),
(1042,13,o),
(788,13,cs),
(379,13,o),
(110,356,o),
(110,751,cs),
(110,1147,o),
(379,1487,o),
(788,1487,cs),
(972,1487,o),
(1127,1418,o),
(1243,1307,c),
(1265,1329,l),
(1148,1444,o),
(987,1518,o),
(788,1518,cs),
(332,1518,o),
(78,1131,o),
(78,751,cs),
(78,369,o),
(332,-18,o),
(788,-18,cs)
);
},
{
closed = 1;
nodes = (
(1387,714,l),
(1387,744,l),
(834,744,l),
(834,714,l)
);
},
{
closed = 1;
nodes = (
(1387,744,l),
(1355,744,l),
(1355,336,l),
(1386,326,l)
);
}
);
width = 1487;
},
{
anchors = (
{
name = bottom;
pos = (814,0);
},
{
name = top;
pos = (814,1500);
}
);
associatedMasterId = m002;
layerId = "F1A9FC70-972E-4B62-8FBE-95481C0DC5CF";
name = "Jun 7, 24 at 19:55";
shapes = (
{
closed = 1;
nodes = (
(1250,-32,o),
(1420,252,o),
(1469,424,c),
(1147,559,l),
(1125,471,o),
(1025,339,o),
(817,339,cs),
(587,339,o),
(447,525,o),
(447,751,cs),
(447,977,o),
(591,1153,o),
(817,1153,cs),
(927,1153,o),
(1020,1110,o),
(1090,1038,c),
(1363,1301,l),
(1238,1442,o),
(1052,1532,o),
(814,1532,cs),
(325,1532,o),
(60,1146,o),
(60,750,cs),
(60,352,o),
(325,-32,o),
(814,-32,cs)
);
},
{
closed = 1;
nodes = (
(1468,560,l),
(1468,881,l),
(804,881,l),
(804,560,l)
);
},
{
closed = 1;
nodes = (
(1469,879,l),
(1147,880,l),
(1147,559,l),
(1469,424,l)
);
}
);
visible = 1;
width = 1569;
},
{
anchors = (
{
name = bottom;
pos = (814,0);
},
{
name = top;
pos = (814,1500);
}
);
associatedMasterId = m002;
layerId = "F74A6789-1630-4393-927B-46B350FC0F03";
name = "Jun 7, 24 at 20:24";
shapes = (
{
closed = 1;
nodes = (
(1468,425,l),
(1469,879,l),
(790,879,l),
(790,560,l),
(1133,560,l),
(1133,556,l)
);
},
{
closed = 1;
nodes = (
(1359,1304,l),
(1227,1445,o),
(1051,1532,o),
(814,1532,cs),
(325,1532,o),
(60,1146,o),
(60,750,cs),
(60,352,o),
(325,-32,o),
(814,-32,cs),
(1152,-32,o),
(1387,151,o),
(1468,425,c),
(1133,556,l),
(1108,470,o),
(1010,351,o),
(816,351,cs),
(600,351,o),
(457,531,o),
(457,750,cs),
(457,969,o),
(600,1141,o),
(816,1143,cs),
(936,1144,o),
(1020,1095,o),
(1079,1037,c)
);
}
);
width = 1569;
}
);
unicode = 71;
}
{
glyphname = H;
kernLeft = H;
kernRight = H;
layers = (
{
anchors = (
{
name = bottom;
pos = (713,0);
},
{
name = top;
pos = (713,1500);
},
{
name = topleft;
pos = (148,1500);
}
);
layerId = m01;
shapes = (
{
closed = 1;
nodes = (
(324,0,l),
(324,689,l),
(1102,689,l),
(1102,0,l),
(1278,0,l),
(1278,1500,l),
(1102,1500,l),
(1102,853,l),
(324,853,l),
(324,1500,l),
(148,1500,l),
(148,0,l)
);
}
);
width = 1426;
},
{
anchors = (
{
name = bottom;
pos = (782,0);
},
{
name = top;
pos = (782,1500);
},
{
name = topleft;
pos = (97,1500);
}
);
layerId = m002;
shapes = (
{
closed = 1;
nodes = (
(528,0,l),
(528,571,l),
(1036,571,l),
(1036,0,l),
(1452,0,l),
(1452,1500,l),
(1036,1500,l),
(1036,971,l),
(528,971,l),
(528,1500,l),
(112,1500,l),
(112,0,l)
);
}
);
width = 1564;
},
{
anchors = (
{
name = bottom;
pos = (669,0);
},
{
name = top;
pos = (669,1500);
},
{
name = topleft;
pos = (176,1500);
}
);
layerId = m003;
shapes = (
{
closed = 1;
nodes = (
(200,0,l),
(200,756,l),
(1138,756,l),
(1138,0,l),
(1170,0,l),
(1170,1500,l),
(1138,1500,l),
(1138,786,l),
(200,786,l),
(200,1500,l),
(168,1500,l),
(168,0,l)
);
}
);
width = 1338;
},
{
anchors = (
{
name = bottom;
pos = (808,0);
},
{
name = top;
pos = (808,1500);
},
{
name = topleft;
pos = (123,1500);
}
);
associatedMasterId = m002;
layerId = "95E9AC5F-D92E-4F2E-914A-AF9E8BB11056";
name = "Jun 7, 24 at 20:27";
shapes = (
{
closed = 1;
nodes = (
(128,0,l),
(544,0,l),
(544,1500,l),
(128,1500,l)
);
},
{
closed = 1;
nodes = (
(1072,0,l),
(1488,0,l),
(1488,1500,l),
(1072,1500,l)
);
},
{
closed = 1;
nodes = (
(128,971,l),
(128,571,l),
(1488,571,l),
(1488,971,l)
);
}
);
width = 1616;
},
{
anchors = (
{
name = bottom;
pos = (713,0);
},
{
name = top;
pos = (713,1500);
},
{
name = topleft;
pos = (148,1500);
}
);
associatedMasterId = m01;
layerId = "374A2DB0-B5B5-46F9-82B0-F0152C38F7D6";
name = "Jun 7, 24 at 20:28";
shapes = (
{
closed = 1;
nodes = (
(148,0,l),
(324,0,l),
(324,1500,l),
(148,1500,l)
);
},
{
closed = 1;
nodes = (
(1102,0,l),
(1278,0,l),
(1278,1500,l),
(1102,1500,l)
);
},
{
closed = 1;
nodes = (
(148,853,l),
(148,689,l),
(1278,689,l),
(1278,853,l)
);
}
);
width = 1426;
},
{
anchors = (
{
name = bottom;
pos = (800,0);
},
{
name = top;
pos = (800,1500);
},
{
name = topleft;
pos = (115,1500);
}
);
associatedMasterId = m002;
layerId = "9323502E-B38D-4E6F-BE67-D1BAC0238B76";
name = "Jun 11, 24 at 14:59";
shapes = (
{
closed = 1;
nodes = (
(536,0,l),
(536,571,l),
(1064,571,l),
(1064,0,l),
(1480,0,l),
(1480,1500,l),
(1064,1500,l),
(1064,971,l),
(536,971,l),
(536,1500,l),
(120,1500,l),
(120,0,l)
);
}
);
width = 1600;
}
);
unicode = 72;
}
{
glyphname = I;
kernLeft = I;
kernRight = I;
layers = (
{
anchors = (
{
name = bottom;
pos = (419,0);
},
{
name = ogonek;
pos = (742,0);
},
{
name = top;
pos = (419,1500);
},
{
name = topleft;
pos = (96,1500);
}
);
layerId = m01;
shapes = (
{
closed = 1;
nodes = (
(742,0,l),
(742,162,l),
(506,162,l),
(506,1338,l),
(742,1338,l),
(742,1500,l),
(96,1500,l),
(96,1338,l),
(332,1338,l),
(332,162,l),
(96,162,l),
(96,0,l)
);
}
);
width = 838;
},
{
anchors = (
{
name = bottom;
pos = (495,0);
},
{
name = ogonek;
pos = (898,0);
},
{
name = top;
pos = (495,1500);
},
{
name = topleft;
pos = (92,1500);
}
);
layerId = m002;
shapes = (
{
closed = 1;
nodes = (
(904,0,l),
(904,384,l),
(695,384,l),
(695,1116,l),
(904,1116,l),
(904,1500,l),
(86,1500,l),
(86,1116,l),
(295,1116,l),
(295,384,l),
(86,384,l),
(86,0,l)
);
}
);
width = 990;
},
{
anchors = (
{
name = bottom;
pos = (411,0);
},
{
name = ogonek;
pos = (718,0);
},
{
name = top;
pos = (411,1500);
},
{
name = topleft;
pos = (98,1500);
}
);
layerId = m003;
shapes = (
{
closed = 1;
nodes = (
(718,0,l),
(718,30,l),
(427,30,l),
(427,1470,l),
(718,1470,l),
(718,1500,l),
(104,1500,l),
(104,1470,l),
(395,1470,l),
(395,30,l),
(104,30,l),
(104,0,l)
);
}
);
width = 822;
},
{
anchors = (
{
name = bottom;
pos = (505,0);
},
{
name = ogonek;
pos = (908,0);
},
{
name = top;
pos = (505,1500);
},
{
name = topleft;
pos = (102,1500);
}
);
associatedMasterId = m002;
layerId = "9F8A5E11-F5D8-4279-8557-01C6BC009319";
name = "Jun 7, 24 at 20:30";
shapes = (
{
closed = 1;
nodes = (
(297,0,l),
(713,0,l),
(713,1500,l),
(297,1500,l)
);
},
{
closed = 1;
nodes = (
(102,1500,l),
(102,1110,l),
(908,1110,l),
(908,1500,l)
);
},
{
closed = 1;
nodes = (
(102,390,l),
(102,0,l),
(908,0,l),
(908,390,l)
);
}
);
width = 1010;
},
{
anchors = (
{
name = bottom;
pos = (405,0);
},
{
name = ogonek;
pos = (712,0);
},
{
name = top;
pos = (405,1500);
},
{
name = topleft;
pos = (92,1500);
}
);
associatedMasterId = m003;
layerId = "D717CFDD-5B61-4359-8A39-C80A0E2D468C";
name = "Jun 7, 24 at 20:31";
shapes = (
{
closed = 1;
nodes = (
(389,0,l),
(421,0,l),
(421,1500,l),
(389,1500,l)
);
},
{
closed = 1;
nodes = (
(98,1500,l),
(98,1470,l),
(712,1470,l),
(712,1500,l)
);
},
{
closed = 1;
nodes = (
(98,30,l),
(98,0,l),
(712,0,l),
(712,30,l)
);
}
);
width = 810;
}
);
unicode = 73;
}
{
glyphname = J;
kernLeft = J;
kernRight = H;
layers = (
{
associatedMasterId = m01;
layerId = "203969D0-F1DA-4BC2-88DC-6DBCB9A24ECE";
name = J;
shapes = (
{
closed = 1;
nodes = (
(663,1500,l),
(663,387,ls),
(663,232,o),
(654,169,o),
(497,167,cs),
(368,165,o),
(283,167,o),
(163,167,c),
(110,12,l),
(110,0,l),
(256,0,l),
(559,0,ls),
(754,0,o),
(843,99,o),
(843,304,cs),
(843,1500,l)
);
},
{
closed = 1;
nodes = (
(332,1339,l),
(844,1339,l),
(844,1500,l),
(332,1500,l)
);
}
);
width = 987;
},
{
associatedMasterId = m01;
layerId = "7A81B470-8E91-4B6E-9264-7800A2F9AF7A";
name = "May 20, 24 at 17:21";
shapes = (
{
closed = 1;
nodes = (
(68,159,l),
(158,60,o),
(312,-24,o),
(498,-24,cs),
(762,-24,o),
(965,121,o),
(969,467,cs),
(973,811,o),
(969,1156,o),
(969,1500,c),
(787,1500,l),
(787,1143,o),
(796,790,o),
(787,433,cs),
(783,266,o),
(681,156,o),
(507,156,cs),
(372,156,o),
(268,218,o),
(199,291,c)
);
},
{
closed = 1;
nodes = (
(386,1500,l),
(386,1334,l),
(820,1334,l),
(820,1500,l)
);
}
);
width = 1115;
},
{
anchors = (
{
name = bottom;
pos = (600,0);
},
{
name = top;
pos = (600,1500);
}
);
layerId = m002;
name = Regular;
shapes = (
{
closed = 1;
nodes = (
(918,-24,o),
(1105,199,o),
(1105,537,cs),
(1105,1500,l),
(376,1500,l),
(376,1118,l),
(731,1118,l),
(731,957,o),
(731,778,o),
(730,618,cs),
(729,461,o),
(673,353,o),
(519,353,cs),
(421,353,o),
(321,412,o),
(244,471,c),
(10,190,l),
(178,43,o),
(374,-24,o),
(576,-24,cs)
);
}
);
width = 1217;
},
{
anchors = (
{
name = bottom;
pos = (495,0);
},
{
name = top;
pos = (495,1500);
}
);
layerId = m003;
name = Regular;
shapes = (
{
closed = 1;
nodes = (
(738,-24,o),
(860,112,o),
(860,457,cs),
(860,1500,l),
(371,1500,l),
(371,1470,l),
(828,1470,l),
(828,1138,o),
(828,806,o),
(828,474,cs),
(828,238,o),
(779,8,o),
(496,8,cs),
(310,8,o),
(171,118,o),
(103,186,c),
(78,159,l),
(168,67,o),
(326,-24,o),
(485,-24,cs)
);
}
);
width = 1028;
},
{
associatedMasterId = m01;
layerId = "CC92ED3D-59C6-4DC9-8737-30028C0CEB11";
name = "May 12, 24 at 19:14";
shapes = (
{
closed = 1;
nodes = (
(112,159,l),
(202,56,o),
(345,-24,o),
(540,-24,cs),
(869,-24,o),
(1005,146,o),
(1009,493,cs),
(1013,825,o),
(1009,1168,o),
(1009,1500,c),
(827,1500,l),
(827,1165,o),
(833,826,o),
(827,491,cs),
(823,254,o),
(725,156,o),
(544,156,cs),
(415,156,o),
(312,216,o),
(243,291,c)
);
}
);
width = 1189;
},
{
associatedMasterId = m01;
layerId = "F36F30DB-4C94-456C-8335-9A6E2F74C98A";
name = "May 12, 24 at 19:02";
shapes = (
{
closed = 1;
nodes = (
(130,159,l),
(221,56,o),
(355,-24,o),
(542,-24,cs),
(853,-24,o),
(1008,174,o),
(1009,493,cs),
(1010,825,o),
(1009,1168,o),
(1009,1500,c),
(827,1500,l),
(827,1165,o),
(829,819,o),
(827,484,cs),
(826,265,o),
(730,156,o),
(546,156,cs),
(425,156,o),
(330,212,o),
(261,291,c)
);
}
);
width = 1189;
},
{
anchors = (
{
name = bottom;
pos = (492,0);
},
{
name = top;
pos = (492,1500);
}
);
associatedMasterId = m01;
layerId = "9B576DFC-97ED-4188-9F34-BD74B599D05E";
name = "May 28, 24 at 18:27";
shapes = (
{
closed = 1;
nodes = (
(954,1338,l),
(954,1500,l),
(375,1500,l),
(375,1338,l)
);
},
{
pos = (-76,1);
ref = u;
scale = (1.0144,1.0144);
}
);
width = 1102;
},
{
anchors = (
{
name = bottom;
pos = (492,0);
},
{
name = top;
pos = (492,1500);
}
);
associatedMasterId = m01;
layerId = "65DD4752-A4B0-4B78-B781-3E3FA1AAFACE";
name = "May 28, 24 at 18:29";
shapes = (
{
closed = 1;
nodes = (
(954,1338,l),
(954,1500,l),
(375,1500,l),
(375,1338,l)
);
},
{
closed = 1;
nodes = (
(778,1500,l),
(778,1290,o),
(778,648,o),
(778,438,cs),
(778,282,o),
(684,143,o),
(505,143,cs),
(441,143,o),
(389,153,o),
(344,171,c),
(278,17,l),
(345,-14,o),
(431,-24,o),
(516,-24,cs),
(767,-24,o),
(954,147,o),
(954,434,cs),
(954,639,o),
(954,1295,o),
(954,1500,c)
);
}
);
width = 1102;
},
{
anchors = (
{
name = bottom;
pos = (492,0);
},
{
name = top;
pos = (492,1500);
}
);
associatedMasterId = m01;
layerId = "AC1CD440-90A6-48FF-9520-17D4B6BA3BCE";
name = "May 28, 24 at 18:33";
shapes = (
{
closed = 1;
nodes = (
(954,1338,l),
(954,1500,l),
(375,1500,l),
(375,1338,l)
);
},
{
closed = 1;
nodes = (
(258,37,l),
(321,1,o),
(399,-24,o),
(486,-24,cs),
(751,-24,o),
(954,121,o),
(954,467,cs),
(954,1500,l),
(778,1500,l),
(778,1143,o),
(782,561,o),
(778,434,cs),
(772,252,o),
(674,137,o),
(492,137,cs),
(431,137,o),
(376,154,o),
(334,177,c)
);
}
);
width = 1102;
},
{
anchors = (
{
name = bottom;
pos = (469,0);
},
{
name = top;
pos = (469,1500);
}
);
layerId = m01;
name = Regular;
shapes = (
{
closed = 1;
nodes = (
(730,-24,o),
(931,121,o),
(931,467,cs),
(931,1500,l),
(352,1500,l),
(352,1338,l),
(755,1338,l),
(756,988,o),
(758,543,o),
(755,434,cs),
(749,254,o),
(644,141,o),
(469,141,cs),
(335,141,o),
(218,217,o),
(150,283,c),
(40,162,l),
(130,68,o),
(285,-24,o),
(464,-24,cs)
);
}
);
width = 1073;
},
{
anchors = (
{
name = bottom;
pos = (626,0);
},
{
name = top;
pos = (626,1500);
}
);
associatedMasterId = m002;
layerId = "43B3DD75-F1E9-4DAE-8DE7-81038BB4D3A8";
name = "May 29, 24 at 21:47";
shapes = (
{
closed = 1;
nodes = (
(926,-24,o),
(1131,201,o),
(1131,537,cs),
(1131,1500,l),
(715,1500,l),
(715,1208,o),
(717,916,o),
(715,624,cs),
(714,467,o),
(659,376,o),
(539,376,cs),
(451,376,o),
(355,427,o),
(278,486,c),
(36,190,l),
(204,43,o),
(391,-24,o),
(593,-24,cs)
);
},
{
closed = 1;
nodes = (
(1131,1100,l),
(1131,1500,l),
(402,1500,l),
(402,1100,l)
);
}
);
visible = 1;
width = 1253;
},
{
anchors = (
{
name = bottom;
pos = (600,0);
},
{
name = top;
pos = (600,1500);
}
);
associatedMasterId = m002;
layerId = "0965C35B-167D-4976-97DE-5A1D8D187C45";
name = "Jun 7, 24 at 20:31";
shapes = (
{
closed = 1;
nodes = (
(900,-24,o),
(1105,201,o),
(1105,537,cs),
(1105,1500,l),
(699,1500,l),
(699,1208,o),
(701,910,o),
(699,618,cs),
(698,461,o),
(643,370,o),
(513,370,cs),
(425,370,o),
(325,422,o),
(248,481,c),
(10,190,l),
(178,43,o),
(365,-24,o),
(567,-24,cs)
);
},
{
closed = 1;
nodes = (
(1105,1100,l),
(1105,1500,l),
(376,1500,l),
(376,1100,l)
);
}
);
width = 1233;
},
{
anchors = (
{
name = bottom;
pos = (469,0);
},
{
name = top;
pos = (469,1500);
}
);
associatedMasterId = m01;
layerId = "3D051BD7-4F60-44B5-AC36-48A162CFEA20";
name = "Jun 7, 24 at 20:31";
shapes = (
{
closed = 1;
nodes = (
(730,-24,o),
(931,121,o),
(931,467,cs),
(931,1500,l),
(755,1500,l),
(755,1143,o),
(759,561,o),
(755,434,cs),
(749,254,o),
(644,141,o),
(469,141,cs),
(335,141,o),
(218,217,o),
(150,283,c),
(40,162,l),
(130,68,o),
(285,-24,o),
(464,-24,cs)
);
},
{
closed = 1;
nodes = (
(931,1338,l),
(931,1500,l),
(352,1500,l),
(352,1338,l)
);
}
);
width = 1079;
},
{
anchors = (
{
name = bottom;
pos = (487,0);
},
{
name = top;
pos = (487,1500);
}
);
associatedMasterId = m003;
layerId = "A81844C3-344C-4AA5-8C64-241E6E5A95C6";
name = "Jun 7, 24 at 20:31";
shapes = (
{
closed = 1;
nodes = (
(730,-24,o),
(852,112,o),
(852,457,cs),
(852,1500,l),
(820,1500,l),
(820,1143,o),
(820,721,o),
(820,474,cs),
(820,238,o),
(771,8,o),
(488,8,cs),
(302,8,o),
(163,118,o),
(95,186,c),
(70,159,l),
(160,67,o),
(318,-24,o),
(477,-24,cs)
);
},
{
closed = 1;
nodes = (
(852,1470,l),
(852,1500,l),
(363,1500,l),
(363,1470,l)
);
}
);
width = 1016;
},
{
anchors = (
{
name = bottom;
pos = (600,0);
},
{
name = top;
pos = (600,1500);
}
);
associatedMasterId = m002;
layerId = "671EBB98-DD46-4360-8918-847252AE625C";
name = "Jun 8, 24 at 23:24";
shapes = (
{
closed = 1;
nodes = (
(900,-24,o),
(1105,201,o),
(1105,537,cs),
(1105,1500,l),
(376,1500,l),
(376,1118,l),
(730,1118,l),
(730,957,o),
(730,778,o),
(729,618,cs),
(728,461,o),
(679,370,o),
(519,370,cs),
(431,370,o),
(325,422,o),
(248,481,c),
(10,190,l),
(178,43,o),
(365,-24,o),
(567,-24,cs)
);
}
);
width = 1233;
}
);
unicode = 74;
}
